<svg width="16" height="16" viewBox="0 0 16 16" fill="none" xmlns="http://www.w3.org/2000/svg">
<path d="M10.5 1C9.30653 1 8.16193 1.47411 7.31802 2.31802C6.47411 3.16193 6 4.30653 6 5.5C5.99956 5.94229 6.06529 6.38216 6.195 6.805L1 12V15H4L9.195 9.805C9.83827 10.0024 10.5176 10.053 11.183 9.95309C11.8484 9.8532 12.483 9.60536 13.0399 9.22782C13.5969 8.85027 14.0621 8.35263 14.4013 7.77152C14.7405 7.19041 14.9451 6.54063 15 5.87C15.1009 4.80277 14.8075 3.73554 14.175 2.87C13.7558 2.28798 13.2036 1.81459 12.5643 1.4893C11.925 1.16402 11.2173 0.996254 10.5 1ZM10.5 9C10.1612 8.99867 9.82432 8.94814 9.5 8.85L8.925 8.675L8.5 9.1L6.91 10.69L6.205 10L5.5 10.705L6.19 11.395L5.395 12.19L4.705 11.5L4 12.205L4.69 12.895L3.585 14H2V12.415L6.9 7.5L7.325 7.075L7.18 6.6C6.92835 5.80867 6.96043 4.95436 7.27071 4.18413C7.581 3.41389 8.15008 2.77591 8.88 2.38C9.40582 2.10512 9.99288 1.96843 10.586 1.98276C11.1792 1.9971 11.759 2.16199 12.2709 2.46194C12.7828 2.7619 13.2101 3.18707 13.5125 3.69752C13.815 4.20796 13.9828 4.78692 14 5.38C14.0347 6.08756 13.8439 6.78786 13.455 7.38C13.1386 7.87689 12.7019 8.28587 12.1853 8.56906C11.6688 8.85224 11.0891 9.00047 10.5 9Z" fill="white" fill-opacity="0.4"/>
<path d="M11 6C11.5523 6 12 5.55228 12 5C12 4.44772 11.5523 4 11 4C10.4477 4 10 4.44772 10 5C10 5.55228 10.4477 6 11 6Z" fill="white" fill-opacity="0.4"/>
</svg>
