<svg width="12" height="13" viewBox="0 0 12 13" fill="none" xmlns="http://www.w3.org/2000/svg">
<path d="M9.81441 5.45256C9.81441 5.45256 9.36066 5.34006 9.54466 4.93406L10.6707 3.06306L9.75816 2.20881L9.57566 2.03806L7.79166 3.21056C7.73632 3.2353 7.67622 3.24756 7.61562 3.24646C7.55502 3.24536 7.4954 3.23094 7.441 3.20422C7.3866 3.17749 7.33875 3.13912 7.30084 3.09183C7.26293 3.04454 7.2359 2.98948 7.22166 2.93056L6.75016 0.976562H5.25016L4.77991 2.92281C4.71991 3.17031 4.45241 3.31781 4.21916 3.21581L4.20816 3.21081L2.42416 2.03831L2.24166 2.20906L1.32916 3.06331L2.45516 4.93431C2.63916 5.34031 2.18541 5.45281 2.18541 5.45281L0.0664062 5.97981L0.107406 7.22906L0.115656 7.47906L2.20641 7.91131C2.26233 7.93272 2.31292 7.96605 2.35467 8.00897C2.39643 8.05189 2.42834 8.10338 2.4482 8.15987C2.46806 8.21636 2.47539 8.2765 2.46969 8.33611C2.46398 8.39571 2.44537 8.45337 2.41516 8.50506L2.40716 8.51906L1.28116 10.3901L2.19366 11.2443L2.37616 11.4153L4.16016 10.2428L4.17116 10.2378L4.17966 10.2348C4.46966 10.1408 4.77791 10.3216 4.84941 10.6181L5.29816 12.4763H6.79816L7.26991 10.5226C7.28416 10.4637 7.31118 10.4087 7.34907 10.3614C7.38697 10.3141 7.43479 10.2758 7.48916 10.249C7.54353 10.2223 7.60312 10.2079 7.66369 10.2068C7.72426 10.2057 7.78434 10.2179 7.83966 10.2426L9.62366 11.4151L9.80616 11.2441L10.7187 10.3898L9.59266 8.51881L9.58441 8.50481C9.55415 8.45309 9.53552 8.3954 9.5298 8.33575C9.52409 8.2761 9.53143 8.21593 9.55132 8.1594C9.57121 8.10288 9.60317 8.05136 9.64497 8.00843C9.68678 7.9655 9.73743 7.93219 9.79341 7.91081L11.8839 7.47856L11.8922 7.22856L11.9334 5.97956L9.81441 5.45256V5.45256ZM5.99991 9.22631C4.61916 9.22631 3.49991 8.10706 3.49991 6.72631C3.49991 5.34556 4.61916 4.22631 5.99991 4.22631C7.38066 4.22631 8.49991 5.34581 8.49991 6.72631C8.49991 8.10681 7.38066 9.22631 5.99991 9.22631Z" fill="#D0CFCE"/>
</svg>
