<svg width="35" height="15" viewBox="0 0 35 15" fill="none" xmlns="http://www.w3.org/2000/svg">
<g filter="url(#filter0_d)">
<path d="M17.3333 0C15.5 0 14 1.5 14 3.33333C14 5.16667 15.5 6.66667 17.3333 6.66667C19.1667 6.66667 20.6667 5.16667 20.6667 3.33333C20.6667 1.5 19.1667 0 17.3333 0ZM27.3333 0C25.5 0 24 1.5 24 3.33333C24 5.16667 25.5 6.66667 27.3333 6.66667C29.1667 6.66667 30.6667 5.16667 30.6667 3.33333C30.6667 1.5 29.1667 0 27.3333 0ZM7.33333 0C5.5 0 4 1.5 4 3.33333C4 5.16667 5.5 6.66667 7.33333 6.66667C9.16667 6.66667 10.6667 5.16667 10.6667 3.33333C10.6667 1.5 9.16667 0 7.33333 0Z" fill="white" fill-opacity="0.6"/>
</g>
<defs>
<filter id="filter0_d" x="0" y="0" width="34.6667" height="14.6667" filterUnits="userSpaceOnUse" color-interpolation-filters="sRGB">
<feFlood flood-opacity="0" result="BackgroundImageFix"/>
<feColorMatrix in="SourceAlpha" type="matrix" values="0 0 0 0 0 0 0 0 0 0 0 0 0 0 0 0 0 0 127 0"/>
<feOffset dy="4"/>
<feGaussianBlur stdDeviation="2"/>
<feColorMatrix type="matrix" values="0 0 0 0 0 0 0 0 0 0 0 0 0 0 0 0 0 0 0.25 0"/>
<feBlend mode="normal" in2="BackgroundImageFix" result="effect1_dropShadow"/>
<feBlend mode="normal" in="SourceGraphic" in2="effect1_dropShadow" result="shape"/>
</filter>
</defs>
</svg>
