<?xml version="1.0" standalone="no"?>
<!DOCTYPE svg PUBLIC "-//W3C//DTD SVG 1.1//EN" "http://www.w3.org/Graphics/SVG/1.1/DTD/svg11.dtd" >
<svg xmlns="http://www.w3.org/2000/svg" xmlns:xlink="http://www.w3.org/1999/xlink" version="1.1">
<metadata>
Created by FontForge 20190801 at Mon Jul 13 08:11:53 2020
 By www-data
(c) 2000-2020 JetBrains s.r.o. Developed with drive and IntelliJ IDEA.
</metadata>
<defs>
<font id="JetBrainsMonoRegular" horiz-adv-x="600" >
  <font-face 
    font-family="JetBrainsMonoRegular"
    font-weight="400"
    font-stretch="normal"
    units-per-em="1000"
    panose-1="2 11 5 9 2 1 2 5 0 4"
    ascent="800"
    descent="-200"
    x-height="550"
    cap-height="730"
    bbox="-1735 -365 680 1075"
    underline-thickness="50"
    underline-position="-155"
    unicode-range="U+000A-FEFF"
  />
<missing-glyph 
d="M510 0h-420v720h420v-720zM140 670v-561l300 561h-300zM460 611l-300 -561h300v561z" />
    <glyph glyph-name=".notdef" 
d="M510 0h-420v720h420v-720zM140 670v-561l300 561h-300zM460 611l-300 -561h300v561z" />
    <glyph glyph-name=".null" horiz-adv-x="0" 
 />
    <glyph glyph-name="nonmarkingreturn" unicode="&#xd;" 
 />
    <glyph glyph-name="NULL" horiz-adv-x="0" 
 />
    <glyph glyph-name="NULL" horiz-adv-x="0" 
 />
    <glyph glyph-name="uni000A" unicode="&#xa;" 
 />
    <glyph glyph-name="space" unicode=" " 
 />
    <glyph glyph-name="space" unicode="&#xa0;" 
 />
    <glyph glyph-name="exclam" unicode="!" 
d="M332 215h-64l-21 395v120h106v-120zM285 -5q-26 0 -43 17t-17 43t17 43t43 17h30q28 0 44 -16.5t16 -42.5t-17 -43.5t-43 -17.5h-30z" />
    <glyph glyph-name="quotedbl" unicode="&#x22;" 
d="M236 430h-74l-12 150v150h97v-150zM439 430h-74l-12 150v150h97v-150z" />
    <glyph glyph-name="numbersign" unicode="#" 
d="M153 0h-70l37 200h-85v65h97l36 200h-98v65h110l37 200h70l-37 -200h160l37 200h70l-37 -200h85v-65h-97l-36 -200h98v-65h-110l-37 -200h-70l37 200h-160zM238 465l-36 -200h160l36 200h-160z" />
    <glyph glyph-name="dollar" unicode="$" 
d="M475.5 54q-52.5 -54 -140.5 -63v-131h-60v131q-94 7 -147.5 60t-55.5 139h90q0 -50 29.5 -80.5t83.5 -37.5v262l-27 8q-75 23 -115.5 76.5t-40.5 127.5q0 80 49.5 132.5t133.5 60.5v111h60v-110q83 -8 133 -60.5t51 -134.5h-90q0 47 -24.5 77t-69.5 37v-249l40 -13
q73 -23 113 -78t40 -129q0 -82 -52.5 -136zM206 476q24 -33 69 -47v230q-44 -8 -68.5 -35t-24.5 -70q0 -45 24 -78zM335 72q49 8 76 38t27 78q0 44 -24 77t-67 46l-12 4v-243z" />
    <glyph glyph-name="percent" unicode="%" 
d="M54 436q-38 36 -38 99v65q0 63 38 99t101 36t101 -36t38 -99v-65q0 -63 -38 -99t-101 -36t-101 36zM88 0h-74l498 730h74zM220 535v65q0 67 -65 67t-65 -67v-65q0 -67 65 -67t65 67zM344 31q-38 36 -38 99v65q0 63 38 99t101 36t101 -36t38 -99v-65q0 -63 -38 -99
t-101 -36t-101 36zM494 80q16 16 16 50v65q0 67 -65 67t-65 -67v-65q0 -34 16 -50t49 -16t49 16z" />
    <glyph glyph-name="ampersand" unicode="&#x26;" 
d="M566 0h-99l-63 87q-36 -47 -80.5 -72t-93.5 -25q-82 0 -128.5 44t-46.5 121v125q0 53 27.5 89.5t78.5 51.5l-7 10q-31 42 -45 78t-14 72q0 72 49.5 115.5t130.5 43.5q87 0 138 -46t51 -125h-90q0 43 -26.5 68t-72.5 25q-41 0 -65.5 -22.5t-24.5 -60.5q0 -25 10.5 -54.5
t29.5 -54.5l172 -237l71 127h94l-113 -199zM207 358q-62 -11 -62 -78v-125q0 -40 23.5 -62.5t66.5 -22.5q34 0 65.5 22.5t53.5 62.5z" />
    <glyph glyph-name="quotesingle" unicode="'" 
d="M332 430h-74l-12 150v150h97v-150z" />
    <glyph glyph-name="parenleft" unicode="(" 
d="M485 -125q-142 35 -221 138t-79 252v190q0 97 36.5 177t104 135t159.5 78v-85q-96 -23 -153 -105t-57 -200v-190q0 -116 56.5 -197t153.5 -104v-89z" />
    <glyph glyph-name="parenright" unicode=")" 
d="M115 -36q97 23 153.5 104t56.5 197v190q0 118 -57 200t-153 105v85q92 -23 159.5 -78t104 -135t36.5 -177v-190q0 -149 -79 -252t-221 -138v89z" />
    <glyph glyph-name="asterisk" unicode="*" 
d="M181 94l-72 50l54 78q31 44 100 101l-3 7q-88 7 -137 25l-88 32l30 83l88 -32q53 -19 123 -71l5 4q-25 93 -25 144v95h88v-95q0 -57 -26 -144l5 -4q70 52 123 71l89 32l30 -83l-89 -32q-50 -18 -136 -25l-4 -8q67 -53 99 -100l55 -78l-72 -50l-55 78q-17 25 -33 60.5
t-27 67.5h-7q-31 -87 -61 -128z" />
    <glyph glyph-name="plus" unicode="+" 
d="M344 95h-88v195h-191v80h191v195h88v-195h191v-80h-191v-195z" />
    <glyph glyph-name="comma" unicode="," 
d="M245 -160h-80l80 311h130z" />
    <glyph glyph-name="hyphen" unicode="-" 
d="M515 290h-430v80h430v-80z" />
    <glyph glyph-name="period" unicode="." 
d="M290 -10q-32 0 -53.5 23t-21.5 57t21.5 57t53.5 23h20q32 0 53.5 -23t21.5 -57t-21.5 -57t-53.5 -23h-20z" />
    <glyph glyph-name="slash" unicode="/" 
d="M170 -110h-95l355 940h95z" />
    <glyph glyph-name="zero" unicode="0" 
d="M139.5 48.5q-59.5 58.5 -59.5 156.5v320q0 98 59.5 156.5t160.5 58.5t160.5 -58.5t59.5 -156.5v-320q0 -98 -60 -156.5t-160 -58.5q-101 0 -160.5 58.5zM396.5 105.5q36.5 38.5 36.5 99.5v320q0 61 -36.5 99.5t-96.5 38.5t-96.5 -38.5t-36.5 -99.5v-320q0 -61 36.5 -99.5
t96.5 -38.5t96.5 38.5zM264 320q-14 15 -14 40v15q0 25 14 40t36 15q23 0 36.5 -15t13.5 -40v-15q0 -25 -13.5 -40t-36.5 -15q-22 0 -36 15z" />
    <glyph glyph-name="one" unicode="1" 
d="M540 0h-450v82h198v573l-198 -148v100l165 123h123v-648h162v-82z" />
    <glyph glyph-name="two" unicode="2" 
d="M92 0v92l223 237q57 61 83 108.5t26 91.5q0 61 -33.5 96t-91.5 35q-64 0 -100.5 -36t-36.5 -99h-90q3 99 64.5 157t162.5 58q99 0 157 -56.5t58 -153.5q0 -62 -33 -123t-108 -139l-180 -186h333v-82h-434z" />
    <glyph glyph-name="three" unicode="3" 
d="M303 462q95 -4 151 -60.5t56 -149.5v-52q0 -62 -27.5 -110t-78 -74t-115.5 -26t-115 26t-77 74t-27 110h90q0 -61 34.5 -95.5t95.5 -34.5t95.5 35.5t34.5 94.5v52q0 62 -34 96t-96 34h-75v90l181 176h-296v82h387v-90z" />
    <glyph glyph-name="four" unicode="4" 
d="M500 0h-90v160h-330v141l289 429h98l-297 -448v-40h240v178h90v-420z" />
    <glyph glyph-name="five" unicode="5" 
d="M466 424.5q49 -55.5 49 -153.5v-71q0 -97 -57.5 -153.5t-159.5 -56.5q-89 0 -146 46t-67 124h90q5 -43 37 -66.5t87 -23.5q62 0 94 33.5t32 96.5v71q0 63 -31.5 96.5t-93.5 33.5q-38 0 -67.5 -20.5t-42.5 -54.5h-90l5 404h384v-82h-297l-3 -243h3q10 36 46 55.5t91 19.5
q88 0 137 -55.5z" />
    <glyph glyph-name="six" unicode="6" 
d="M179 19.5q-53 29.5 -82 82.5t-29 123q0 112 62 210l183 295h100l-207 -332l4 -3q19 28 52 43t74 15q89 0 142.5 -62t53.5 -166q0 -70 -28.5 -123t-81 -82.5t-121.5 -29.5t-122 29.5zM403 112.5q39 42.5 39 112.5t-39 112.5t-103 42.5t-103 -42.5t-39 -112.5t39 -112.5
t103 -42.5t103 42.5z" />
    <glyph glyph-name="seven" unicode="7" 
d="M282 0h-97l261 648h-276v-108h-90v190h455v-88z" />
    <glyph glyph-name="eight" unicode="8" 
d="M494.5 319.5q35.5 -51.5 35.5 -121.5q0 -95 -62 -151.5t-168 -56.5t-168 55.5t-62 149.5q0 72 35.5 124t92.5 66q-51 13 -82 58t-31 107q0 56 27 99t75.5 67t112.5 24t112.5 -24t75.5 -67t27 -99q0 -62 -31 -107t-82 -58q57 -14 92.5 -65.5zM209.5 633
q-31.5 -32 -31.5 -91q0 -61 31.5 -94.5t90.5 -33.5t90.5 33.5t31.5 94.5q0 59 -31.5 91t-90.5 32t-90.5 -32zM401 102q36 37 36 105q0 67 -36 104t-101 37t-101 -37t-36 -104q0 -68 36 -105t101 -37t101 37z" />
    <glyph glyph-name="nine" unicode="9" 
d="M187 0l207 332l-4 3q-19 -28 -52 -43t-74 -15q-89 0 -142.5 62t-53.5 166q0 70 28.5 123t81 82.5t121.5 29.5t122 -29.5t82 -82.5t29 -123q0 -112 -62 -210l-183 -295h-100zM403 392.5q39 42.5 39 112.5t-39 112.5t-103 42.5t-103 -42.5t-39 -112.5t39 -112.5t103 -42.5
t103 42.5z" />
    <glyph glyph-name="colon" unicode=":" 
d="M290 410q-33 0 -54 21t-21 54q0 32 21.5 53.5t53.5 21.5h20q32 0 53.5 -21.5t21.5 -53.5q0 -33 -21 -54t-54 -21h-20zM290 -10q-33 0 -54 21t-21 54q0 32 21.5 53.5t53.5 21.5h20q32 0 53.5 -21.5t21.5 -53.5q0 -33 -21 -54t-54 -21h-20z" />
    <glyph glyph-name="semicolon" unicode=";" 
d="M290 410q-33 0 -54 21t-21 54q0 32 21.5 53.5t53.5 21.5h20q32 0 53.5 -21.5t21.5 -53.5q0 -33 -21 -54t-54 -21h-20zM250 -160h-80l80 311h130z" />
    <glyph glyph-name="less" unicode="&#x3c;" 
d="M515 65l-430 215v100l430 215v-87l-310 -152q-32 -15 -60 -24q30 -9 60 -24l310 -153v-90z" />
    <glyph glyph-name="equal" unicode="=" 
d="M515 410h-430v80h430v-80zM515 170h-430v80h430v-80z" />
    <glyph glyph-name="greater" unicode="&#x3e;" 
d="M85 65v87l310 152q32 15 60 24q-30 9 -60 24l-310 153v90l430 -215v-100z" />
    <glyph glyph-name="question" unicode="?" 
d="M211 205v180h50q64 0 101.5 35.5t37.5 94.5t-38 94.5t-102 35.5h-125v85h125q105 0 167.5 -58.5t62.5 -156.5q0 -57 -24 -102.5t-67 -72.5t-98 -30v-105h-90zM240 -5q-26 0 -43 17t-17 43t17 43t43 17h30q28 0 44 -16.5t16 -42.5t-17 -43.5t-43 -17.5h-30z" />
    <glyph glyph-name="at" unicode="@" 
d="M494.5 674.5q65.5 -65.5 65.5 -179.5v-430h-71v55h-11q-8 -30 -35.5 -47.5t-68.5 -17.5q-65 0 -99.5 39.5t-34.5 115.5v120q0 76 34.5 115.5t99.5 39.5q41 0 68.5 -17.5t35.5 -47.5h12l-10 70v5q0 85 -42.5 130t-122.5 45q-90 0 -140 -58t-50 -162v-340
q0 -100 53.5 -157.5t146.5 -57.5h70v-75h-70q-85 0 -148 35.5t-97.5 101t-34.5 153.5v340q0 135 72 212.5t198 77.5q114 0 179.5 -65.5zM480 331q0 47 -19.5 69t-60.5 22t-60.5 -22.5t-19.5 -69.5v-120q0 -47 19.5 -69.5t60.5 -22.5t60.5 25t19.5 77v111z" />
    <glyph glyph-name="A" unicode="A" 
d="M142 0h-92l190 730h121l189 -730h-91l-48 194h-221zM208 270h184l-56 225q-27 110 -36 163q-9 -54 -36 -162z" />
    <glyph glyph-name="B" unicode="B" 
d="M496.5 321q33.5 -48 33.5 -118q0 -94 -57.5 -148.5t-157.5 -54.5h-222v730h207q100 0 156.5 -50t56.5 -139q0 -59 -29 -100t-81 -55q60 -17 93.5 -65zM181 649v-230h118q58 0 91.5 31t33.5 84t-33 84t-91 31h-119zM305 81q63 0 99.5 33.5t36.5 91.5q0 61 -37 98t-99 37
h-124v-260h124z" />
    <glyph glyph-name="C" unicode="C" 
d="M146 46q-58 56 -58 154v330q0 98 58 154t158 56q98 0 156 -56.5t58 -153.5h-90q0 62 -32.5 96t-91.5 34t-92.5 -34t-33.5 -95v-331q0 -62 33 -96t93 -34q59 0 91.5 34t32.5 96h90q0 -97 -58 -153.5t-156 -56.5q-100 0 -158 56z" />
    <glyph glyph-name="D" unicode="D" 
d="M92 0v730h189q70 0 122 -27t80.5 -76.5t28.5 -115.5v-291q0 -101 -62.5 -160.5t-168.5 -59.5h-189zM281 80q66 0 103.5 37t37.5 103v291q0 65 -37.5 102t-103.5 37h-99v-570h99z" />
    <glyph glyph-name="E" unicode="E" 
d="M520 0h-420v730h420v-81h-331v-227h296v-81h-296v-260h331v-81z" />
    <glyph glyph-name="F" unicode="F" 
d="M185 0h-90v731h430v-82h-342v-244h316v-82h-314v-323z" />
    <glyph glyph-name="G" unicode="G" 
d="M146 46q-58 56 -58 154v330q0 98 58 154t158 56q98 0 156 -56.5t58 -153.5h-90q0 62 -32.5 96t-91.5 34t-92.5 -34t-33.5 -95v-331q0 -62 33 -96t93 -34q59 0 91.5 34t32.5 96v90h-148v80h238v-170q0 -97 -58 -153.5t-156 -56.5q-100 0 -158 56z" />
    <glyph glyph-name="H" unicode="H" 
d="M183 0h-90v730h90v-312h234v312h90v-730h-90v336h-234v-336z" />
    <glyph glyph-name="I" unicode="I" 
d="M495 0h-390v81h149v568h-149v81h390v-81h-149v-568h149v-81z" />
    <glyph glyph-name="J" unicode="J" 
d="M105 49q-60 59 -60 161h90q0 -67 35.5 -103.5t99.5 -36.5t99.5 36.5t35.5 103.5v438h-175v82h265v-520q0 -102 -60.5 -161t-164.5 -59q-105 0 -165 59z" />
    <glyph glyph-name="K" unicode="K" 
d="M182 0h-90v730h90v-313h108l162 313h98l-181 -351l191 -379h-103l-170 338h-105v-338z" />
    <glyph glyph-name="L" unicode="L" 
d="M535 0h-420v730h90v-648h330v-82z" />
    <glyph glyph-name="M" unicode="M" 
d="M76 0v730h118l76 -236q18 -56 33 -112q14 56 31 113l72 235h118v-730h-88v265q0 83 9 197.5t22 222.5l-118 -365h-95l-119 365q12 -104 20.5 -218t8.5 -202v-265h-88z" />
    <glyph glyph-name="N" unicode="N" 
d="M90 0v730h120l223 -625q-10 120 -10 215v410h87v-730h-120l-222 625q9 -120 9 -215v-410h-87z" />
    <glyph glyph-name="O" unicode="O" 
d="M145 46q-57 56 -57 154v330q0 98 57 154t155 56t155 -56t57 -153v-331q0 -98 -57 -154t-155 -56t-155 56zM390.5 103.5q31.5 33.5 31.5 96.5v330q0 63 -31.5 96.5t-90.5 33.5t-90.5 -33.5t-31.5 -96.5v-330q0 -63 31.5 -96.5t90.5 -33.5t90.5 33.5z" />
    <glyph glyph-name="P" unicode="P" 
d="M92 0v730h235q102 0 162.5 -58.5t60.5 -156.5t-60.5 -156.5t-162.5 -58.5h-145v-300h-90zM327 380q59 0 94.5 36.5t35.5 98.5t-35.5 98.5t-94.5 36.5h-145v-270h145z" />
    <glyph glyph-name="Q" unicode="Q" 
d="M526 -180h-104l-103 171q-5 -1 -19 -1q-101 0 -160.5 58.5t-59.5 156.5v320q0 98 59.5 156.5t160.5 58.5t160.5 -58.5t59.5 -156.5v-320q0 -67 -29 -117t-82 -75zM394.5 106.5q35.5 36.5 35.5 98.5v320q0 62 -35.5 98.5t-94.5 36.5t-94.5 -36.5t-35.5 -98.5v-320
q0 -62 35.5 -98.5t94.5 -36.5t94.5 36.5z" />
    <glyph glyph-name="R" unicode="R" 
d="M92 0v730h226q64 0 113.5 -26.5t76.5 -74t27 -109.5q0 -74 -38.5 -127t-104.5 -73l153 -320h-106l-140 310h-117v-310h-90zM318 390q56 0 90 35.5t34 94.5q0 58 -34 94t-90 36h-136v-260h136z" />
    <glyph glyph-name="S" unicode="S" 
d="M135.5 43.5q-61.5 53.5 -63.5 146.5h90q0 -56 37.5 -88t104.5 -32q63 0 98.5 31.5t35.5 86.5q0 44 -24 77t-67 46l-99 31q-75 23 -115.5 76.5t-40.5 127.5q0 58 26.5 102t75 68.5t112.5 24.5q96 0 153.5 -53.5t59.5 -142.5h-90q0 54 -32.5 85t-91.5 31q-58 0 -90.5 -28.5
t-32.5 -78.5q0 -45 24 -78t69 -47l100 -32q73 -23 113 -78t40 -129q0 -59 -28 -104.5t-79 -70.5t-117 -25q-107 0 -168.5 53.5z" />
    <glyph glyph-name="T" unicode="T" 
d="M345 0h-90v649h-200v82h490v-82h-200v-649z" />
    <glyph glyph-name="U" unicode="U" 
d="M144.5 45.5q-54.5 55.5 -54.5 154.5v530h90v-530q0 -61 30.5 -95.5t89.5 -34.5t89.5 34.5t30.5 95.5v530h90v-530q0 -99 -54 -154.5t-156 -55.5q-101 0 -155.5 55.5z" />
    <glyph glyph-name="V" unicode="V" 
d="M238 0l-188 730h93l124 -495q23 -90 35 -165q12 75 34 164l123 496h91l-189 -730h-123z" />
    <glyph glyph-name="W" unicode="W" 
d="M109 0l-84 730h86l55 -540q6 -57 9 -125q6 68 13 125l68 540h93l62 -540l14 -125q5 68 11 125l57 540h82l-86 -730h-113l-62 550l-12 117l-13 -117l-67 -550h-113z" />
    <glyph glyph-name="X" unicode="X" 
d="M40 0l210 370l-199 360h104l113 -216l34 -67q17 37 33 67l115 216h99l-199 -354l210 -376h-103l-125 232q-16 29 -33 68q-18 -38 -33 -67l-126 -233h-100z" />
    <glyph glyph-name="Y" unicode="Y" 
d="M255 0v273l-220 457h93l145 -300q20 -43 28 -68q8 25 29 68l142 300h93l-220 -457v-273h-90z" />
    <glyph glyph-name="Z" unicode="Z" 
d="M515 0h-430v90l329 559l-324 -1v82h415v-90l-329 -558h339v-82z" />
    <glyph glyph-name="bracketleft" unicode="[" 
d="M455 -110h-245v940h245v-80h-155v-780h155v-80z" />
    <glyph glyph-name="backslash" unicode="\" 
d="M525 -110h-95l-355 940h95z" />
    <glyph glyph-name="bracketright" unicode="]" 
d="M395 -110h-245v80h155v780h-155v80h245v-940z" />
    <glyph glyph-name="asciicircum" unicode="^" 
d="M80 340l179 390h84l177 -390h-81l-112 258q-14 33 -24 67q-12 -34 -27 -67l-115 -258h-81z" />
    <glyph glyph-name="underscore" unicode="_" 
d="M540 -100h-480v75h480v-75z" />
    <glyph glyph-name="grave" unicode="`" 
d="M395 645h-95l-120 140h100z" />
    <glyph glyph-name="a" unicode="a" 
d="M454 510.5q56 -48.5 56 -132.5v-378h-88v105h-1q-4 -52 -52 -83.5t-120 -31.5q-84 0 -134 44t-50 119q0 79 49.5 124t135.5 45h170v53q0 50 -31.5 77.5t-87.5 27.5q-49 0 -81 -20t-37 -55h-90q9 70 66 112t143 42q96 0 152 -48.5zM378 92.5q42 31.5 42 82.5v78h-168
q-45 0 -71 -25t-26 -69q0 -46 31 -72t84 -26q66 0 108 31.5z" />
    <glyph glyph-name="b" unicode="b" 
d="M463.5 505q48.5 -55 48.5 -150v-161q0 -94 -48.5 -149t-131.5 -55q-62 0 -102 30.5t-47 84.5h-1v-105h-90v730h90v-160l-2 -125h3q8 53 48 84t101 31q83 0 131.5 -55zM422 350q0 63 -31.5 97.5t-88.5 34.5q-56 0 -88 -35t-32 -97v-150q0 -62 32 -97t88 -35
q57 0 88.5 34.5t31.5 97.5v150z" />
    <glyph glyph-name="c" unicode="c" 
d="M146 46q-58 56 -58 154v150q0 98 58 154t158 56q95 0 153 -51t61 -139h-90q-3 52 -35.5 81t-88.5 29q-59 0 -92.5 -34t-33.5 -95v-151q0 -62 33 -96t93 -34q56 0 88.5 29t35.5 81h90q-3 -88 -61 -139t-153 -51q-100 0 -158 56z" />
    <glyph glyph-name="d" unicode="d" 
d="M418 730h90v-730h-90v105h-1q-7 -54 -47 -84.5t-102 -30.5q-83 0 -131.5 55t-48.5 149v161q0 95 48.5 150t131.5 55q61 0 101 -31t48 -84h3l-2 125v160zM418 350q0 62 -32 97t-88 35q-57 0 -88.5 -34.5t-31.5 -97.5v-150q0 -63 31.5 -97.5t88.5 -34.5q56 0 88 35t32 97
v150z" />
    <glyph glyph-name="e" unicode="e" 
d="M512 253h-336v-53q0 -66 31.5 -100t92.5 -34q105 0 120 74h90q-9 -69 -66 -109.5t-144 -40.5q-97 0 -154.5 57t-57.5 153v150q0 96 57.5 153t154.5 57t154.5 -57t57.5 -153v-97zM176 321h248v29q0 66 -31.5 100.5t-92.5 34.5t-92.5 -34.5t-31.5 -100.5v-29z" />
    <glyph glyph-name="f" unicode="f" 
d="M220 0v457h-160v82h160v53q0 64 39 101t106 37h170v-82h-170q-26 0 -40.5 -14.5t-14.5 -40.5v-54h225v-82h-225v-457h-90z" />
    <glyph glyph-name="g" unicode="g" 
d="M420 550h87v-570q0 -75 -45.5 -117.5t-126.5 -42.5h-174v82h175q42 0 61.5 19t19.5 59v70l3 70h-13q-13 -41 -49 -63t-90 -22q-83 0 -131.5 55t-48.5 150v116q0 94 48.5 149t131.5 55q54 0 90 -22t49 -63h13v75zM418 350q0 62 -32 97t-88 35q-57 0 -88.5 -34.5
t-31.5 -97.5v-105q0 -63 31.5 -97.5t88.5 -34.5q56 0 88 35t32 97v105z" />
    <glyph glyph-name="h" unicode="h" 
d="M461 508.5q49 -51.5 49 -138.5v-370h-90v360q0 58 -31.5 91t-85.5 33q-57 0 -89 -35.5t-32 -98.5v-350h-90v730h90v-285h1q7 55 45 85t101 30q83 0 132 -51.5z" />
    <glyph glyph-name="i" unicode="i" 
d="M300 645q-30 0 -47.5 16t-17.5 43t18 44t47 17h20q29 0 47 -17t18 -44t-18 -43t-47 -16h-20zM550 0h-470v82h195v386h-170v82h260v-468h185v-82z" />
    <glyph glyph-name="j" unicode="j" 
d="M375 645q-30 0 -47.5 16t-17.5 43t18 44t47 17h20q29 0 47 -17t18 -44t-18 -43t-47 -16h-20zM85 -180v83h129q62 0 96.5 33.5t34.5 94.5v437h-230v82h320v-519q0 -97 -60 -154t-161 -57h-129z" />
    <glyph glyph-name="k" unicode="k" 
d="M185 0h-90v730h90v-407h96l160 227h103l-185 -262l188 -288h-105l-160 245h-97v-245z" />
    <glyph glyph-name="l" unicode="l" 
d="M365 0q-73 0 -116.5 42.5t-43.5 112.5v493h-165v82h255v-575q0 -34 19 -53.5t51 -19.5h185v-82h-185z" />
    <glyph glyph-name="m" unicode="m" 
d="M505 521.5q29 -38.5 29 -103.5v-418h-83v419q0 34 -14.5 53t-42.5 19q-27 0 -42.5 -18.5t-15.5 -52.5v-420h-72v419q0 34 -15.5 53t-43.5 19q-27 0 -41.5 -18.5t-14.5 -52.5v-420h-83v550h79v-66h6q6 35 29.5 55.5t59.5 20.5q34 0 57 -19.5t33 -56.5h4q7 35 31 55.5
t60 20.5q51 0 80 -38.5z" />
    <glyph glyph-name="n" unicode="n" 
d="M461 508.5q49 -51.5 49 -138.5v-370h-90v360q0 58 -31.5 91t-85.5 33q-57 0 -89 -35.5t-32 -98.5v-350h-90v550h90v-105h1q7 55 45 85t101 30q83 0 132 -51.5z" />
    <glyph glyph-name="o" unicode="o" 
d="M145 46q-57 56 -57 154v150q0 98 57 154t155 56t155 -56t57 -153v-151q0 -98 -57 -154t-155 -56t-155 56zM390.5 103.5q31.5 33.5 31.5 96.5v150q0 63 -31.5 96.5t-90.5 33.5t-90.5 -33.5t-31.5 -96.5v-150q0 -63 31.5 -96.5t90.5 -33.5t90.5 33.5z" />
    <glyph glyph-name="p" unicode="p" 
d="M464 505q48 -55 48 -149v-161q0 -95 -48 -150t-131 -55q-62 0 -102.5 31t-47.5 84h-3l2 -125v-160h-90v730h90v-105h1q7 54 47.5 84.5t102.5 30.5q83 0 131 -55zM422 350q0 64 -31 98t-88 34q-56 0 -88.5 -35t-32.5 -97v-150q0 -62 32.5 -97t88.5 -35q57 0 88 34t31 98
v150z" />
    <glyph glyph-name="q" unicode="q" 
d="M418 550h90v-730h-90v160l2 125h-3q-8 -53 -48 -84t-101 -31q-83 0 -131.5 55t-48.5 150v161q0 94 48.5 149t131.5 55q62 0 102 -30.5t47 -84.5h1v105zM418 350q0 62 -32 97t-88 35q-57 0 -88.5 -34.5t-31.5 -97.5v-150q0 -63 31.5 -97.5t88.5 -34.5q56 0 88 35t32 97
v150z" />
    <glyph glyph-name="r" unicode="r" 
d="M482.5 505.5q51.5 -54.5 51.5 -147.5v-33h-90v25q0 64 -31.5 99t-89.5 35q-57 0 -89.5 -35.5t-32.5 -98.5v-350h-90v550h88v-98q27 108 145 108q87 0 138.5 -54.5z" />
    <glyph glyph-name="s" unicode="s" 
d="M278 -10q-84 0 -134.5 39t-58.5 106h90q6 -30 33 -47.5t70 -17.5h42q52 0 78.5 22t26.5 59q0 68 -93 83l-74 12q-82 13 -121 50.5t-39 106.5q0 75 48 116t140 41h38q78 0 126.5 -37.5t58.5 -101.5h-90q-6 27 -31 43t-64 16h-38q-98 0 -98 -78q0 -33 19.5 -49.5
t63.5 -23.5l74 -12q89 -14 129.5 -52t40.5 -110q0 -78 -49.5 -121.5t-145.5 -43.5h-42z" />
    <glyph glyph-name="t" unicode="t" 
d="M360 0q-71 0 -110.5 38t-39.5 107v323h-155v82h155v150h90v-150h220v-82h-220v-323q0 -32 14.5 -47.5t45.5 -15.5h150v-82h-150z" />
    <glyph glyph-name="u" unicode="u" 
d="M147 47q-57 57 -57 153v350h90v-350q0 -62 31.5 -96.5t87.5 -34.5q57 0 89 34.5t32 96.5v350h90v-350q0 -96 -57.5 -153t-153.5 -57q-95 0 -152 57z" />
    <glyph glyph-name="v" unicode="v" 
d="M239 0l-179 550h92l117 -370q18 -57 33 -111q15 54 33 111l114 370h91l-179 -550h-122z" />
    <glyph glyph-name="w" unicode="w" 
d="M123 0l-88 550h80l55 -390l12 -90l14 90l61 390h86l61 -390l14 -90l14 90l57 390h76l-92 -550h-99l-59 380l-16 100l-15 -100l-62 -380h-99z" />
    <glyph glyph-name="x" unicode="x" 
d="M55 0l190 283l-178 267h106l104 -170q12 -19 24 -45q11 26 23 45l105 170h105l-178 -268l189 -282h-106l-113 180q-11 19 -25 49q-15 -29 -27 -49l-114 -180h-105z" />
    <glyph glyph-name="y" unicode="y" 
d="M181 -180l81 214l-202 516h100l123 -340q10 -29 23 -80q12 51 22 80l115 340h97l-263 -730h-96z" />
    <glyph glyph-name="z" unicode="z" 
d="M510 0h-420v90l308 378h-300v82h401v-90l-314 -378h325v-82z" />
    <glyph glyph-name="braceleft" unicode="{" 
d="M470 750q-48 0 -72.5 -22t-22.5 -64l10 -164q3 -57 -23.5 -94t-76.5 -46q50 -9 76.5 -46.5t23.5 -93.5l-10 -164q-2 -42 22.5 -64t72.5 -22h45v-80h-45q-89 0 -139 44t-46 122l10 164q2 37 -5.5 58.5t-29.5 31.5t-65 10h-110v80h110q43 0 65 10t29.5 31t5.5 59l-10 164
q-4 78 46 122t139 44h45v-80h-45z" />
    <glyph glyph-name="bar" unicode="|" 
d="M345 -110h-90v940h90v-940z" />
    <glyph glyph-name="braceright" unicode="}" 
d="M515 400v-80h-110q-43 0 -65 -10t-29.5 -31.5t-5.5 -58.5l10 -164q4 -78 -46 -122t-139 -44h-45v80h45q48 0 72.5 22t22.5 64l-10 164q-3 56 23.5 93.5t76.5 46.5q-50 9 -76.5 46t-23.5 94l10 164q2 42 -22.5 64t-72.5 22h-45v80h45q89 0 139 -44t46 -122l-10 -164
q-2 -38 5.5 -59t29.5 -31t65 -10h110z" />
    <glyph glyph-name="asciitilde" unicode="~" 
d="M65 325q0 59 36 94.5t94 35.5q48 0 76.5 -20.5t61.5 -59.5q21 -26 36 -38t34 -12q23 0 35 14t12 41v70h85v-70q0 -58 -36 -94t-94 -36q-48 0 -76.5 20.5t-61.5 59.5q-21 26 -36 38t-34 12q-23 0 -35 -14t-12 -41v-70h-85v70z" />
    <glyph glyph-name="exclamdown" unicode="&#xa1;" 
d="M290 436q-29 0 -47 17t-18 44t18 43t47 16h20q29 0 47 -15.5t18 -42.5q0 -28 -18 -45t-47 -17h-20zM353 -180h-106v125l21 391h64l21 -391v-125z" />
    <glyph glyph-name="cent" unicode="&#xa2;" 
d="M340 74q40 8 63 35.5t25 70.5h90q-3 -79 -50.5 -128.5t-127.5 -59.5v-132h-65v131q-87 8 -137 63.5t-50 145.5v150q0 90 50 145.5t137 63.5v131h65v-132q80 -10 127.5 -59.5t50.5 -128.5h-90q-2 43 -25 70.5t-63 35.5v-402zM178 200q0 -54 25.5 -87t71.5 -41v406
q-46 -8 -71.5 -41t-25.5 -86v-151z" />
    <glyph glyph-name="sterling" unicode="&#xa3;" 
d="M535 80v-80h-460v100q46 37 77.5 79t31.5 75q0 26 -5 51h-104v80h75l-18 32q-23 39 -34.5 68.5t-11.5 69.5q0 85 58 135t156 50q99 0 156.5 -50.5t58.5 -139.5h-95q0 50 -33 80t-88 30q-58 0 -90 -28.5t-32 -81.5q0 -31 10 -54t31 -56q22 -34 32 -55h185v-80h-163
q3 -19 3 -42q0 -58 -32 -106t-78 -77h370z" />
    <glyph glyph-name="currency" unicode="&#xa4;" 
d="M470 245l87 -87l-63 -63l-87 87q-50 -29 -108 -29q-61 0 -107 29l-87 -87l-63 63l86 86q-32 47 -32 111q0 62 32 113l-86 86l63 63l88 -88q47 28 106 28q62 0 110 -31l85 85l63 -63l-85 -85q29 -50 29 -108q0 -62 -31 -110zM392 261.5q35 35.5 35 93.5t-35 93.5t-93 35.5
t-93.5 -35.5t-35.5 -93.5t35.5 -93.5t93.5 -35.5t93 35.5z" />
    <glyph glyph-name="yen" unicode="&#xa5;" 
d="M565 730l-185 -385h160v-75h-195v-75h195v-75h-195v-120h-90v120h-195v75h195v75h-195v75h160l-185 385h93l145 -300q20 -43 28 -68q8 25 29 68l142 300h93z" />
    <glyph glyph-name="brokenbar" unicode="&#xa6;" 
d="M345 450h-90v380h90v-380zM345 -110h-90v380h90v-380z" />
    <glyph glyph-name="section" unicode="&#xa7;" 
d="M285 -154q-82 0 -139.5 42.5t-68.5 111.5h95q9 -33 40 -53.5t73 -20.5h30q56 0 86.5 23t30.5 63q0 72 -101 93l-92 19q-69 13 -111 57.5t-42 103.5q0 57 36.5 98t92.5 46v7q-52 2 -88.5 37t-36.5 106q0 74 53 117.5t146 43.5h30q79 0 133 -40t65 -105h-95q-8 29 -36 47
t-67 18h-30q-51 0 -79.5 -22t-28.5 -60q0 -32 25.5 -55.5t71.5 -33.5l90 -19q71 -15 112 -58t41 -104q0 -59 -37 -98.5t-96 -39.5v-7q56 -6 95.5 -42.5t39.5 -105.5q0 -78 -55 -123.5t-153 -45.5h-30zM330 185q10 -2 16 -2q37 0 60.5 33.5t23.5 82.5q0 35 -22 61t-57 34
l-74 15q-12 2 -16 2q-37 0 -60.5 -32t-23.5 -79q0 -38 21 -65.5t56 -34.5z" />
    <glyph glyph-name="dieresis" unicode="&#xa8;" 
d="M152 657q-17 17 -17 43t17 43t43 17t43 -17t17 -43t-17 -43t-43 -17t-43 17zM362 657q-17 17 -17 43t17 43t43 17t43 -17t17 -43t-17 -43t-43 -17t-43 17z" />
    <glyph glyph-name="copyright" unicode="&#xa9;" 
d="M166.5 140q-57.5 30 -89.5 84.5t-32 125.5v150q0 71 32 125.5t89.5 84.5t133.5 30t133.5 -30t89.5 -84.5t32 -125.5v-150q0 -71 -32 -125.5t-89.5 -84.5t-133.5 -30t-133.5 30zM445 212.5q55 52.5 55 137.5v150q0 86 -55 138t-145 52q-59 0 -104.5 -23.5t-70.5 -67
t-25 -99.5v-150q0 -56 25 -99.5t70.5 -67t104.5 -23.5q90 0 145 52.5zM214.5 276.5q-34.5 31.5 -34.5 83.5v130q0 52 34.5 83.5t90.5 31.5t90 -31.5t34 -83.5h-65q0 27 -16.5 43.5t-42.5 16.5q-27 0 -43.5 -16.5t-16.5 -43.5v-130q0 -27 16.5 -43.5t43.5 -16.5
q26 0 42.5 16.5t16.5 43.5h65q0 -52 -34 -83.5t-90 -31.5t-90.5 31.5z" />
    <glyph glyph-name="ordfeminine" unicode="&#xaa;" 
d="M389 716q31 -24 31 -66v-195h-47v55h-3q-11 -28 -36.5 -44t-59.5 -16q-45 0 -72 23.5t-27 62.5t28 62t77 23h90v29q0 23 -17.5 36.5t-47.5 13.5q-26 0 -44 -11t-21 -29h-50q5 38 35 59t80 21q53 0 84 -24zM348 506q22 18 22 49v26h-90q-26 0 -40.5 -12t-14.5 -33
q0 -22 16.5 -35t45.5 -13q39 0 61 18z" />
    <glyph glyph-name="guillemotleft" unicode="&#xab;" 
d="M337 40h-105l-202 240l201 240h106l-206 -238zM570 40h-105l-202 240l201 240h106l-206 -238z" />
    <glyph glyph-name="logicalnot" unicode="&#xac;" 
d="M530 205h-85v130h-375v80h460v-210z" />
    <glyph glyph-name="uni00AD" unicode="&#xad;" 
d="M460 290h-320v80h320v-80z" />
    <glyph glyph-name="registered" unicode="&#xae;" 
d="M433.5 710q57.5 -30 89.5 -84.5t32 -125.5v-150q0 -71 -32 -125.5t-89.5 -84.5t-133.5 -30t-133.5 30t-89.5 84.5t-32 125.5v150q0 71 32 125.5t89.5 84.5t133.5 30t133.5 -30zM500 500q0 86 -55 138t-145 52q-59 0 -104.5 -23.5t-70.5 -67t-25 -99.5v-150
q0 -56 25 -99.5t70.5 -67t104.5 -23.5q90 0 145 52.5t55 137.5v150zM405.5 437.5q-15.5 -24.5 -44.5 -36.5l66 -151h-64l-59 140h-54v-140h-60v350h114q54 0 85.5 -28.5t31.5 -76.5q0 -33 -15.5 -57.5zM250 550v-110h54q26 0 41 14.5t15 40.5t-15 40.5t-41 14.5h-54z" />
    <glyph glyph-name="macron" unicode="&#xaf;" 
d="M430 665h-260v75h260v-75z" />
    <glyph glyph-name="degree" unicode="&#xb0;" 
d="M191.5 490q-41.5 40 -41.5 105t41.5 105t108.5 40q68 0 109 -40t41 -105t-41 -105t-109 -40q-67 0 -108.5 40zM365 527q25 26 25 68q0 43 -25 69t-66 26q-40 0 -64.5 -26t-24.5 -69q0 -42 24.5 -68t64.5 -26q41 0 66 26z" />
    <glyph glyph-name="plusminus" unicode="&#xb1;" 
d="M530 0h-460v70h186v225h-191v80h191v195h88v-195h191v-80h-191v-225h186v-70z" />
    <glyph glyph-name="uni00B2" unicode="&#xb2;" 
d="M166 405v87l162 121q22 16 34.5 38t12.5 45q0 37 -21 59t-56 22t-56 -22t-21 -59h-70q3 66 43 105t104 39q67 0 106.5 -38.5t39.5 -103.5q0 -35 -21 -71t-58 -63l-128 -95h218v-64h-289z" />
    <glyph glyph-name="uni00B3" unicode="&#xb3;" 
d="M316 667q54 -8 85 -42.5t31 -89.5q0 -65 -40 -102.5t-108 -37.5t-108 37.5t-40 102.5h69q0 -35 21 -56t58 -21q35 0 55.5 21t20.5 56t-20 55.5t-55 20.5h-30v67l93 89h-183v64h240v-79z" />
    <glyph glyph-name="acute" unicode="&#xb4;" 
d="M295 645h-90l115 140h100z" />
    <glyph glyph-name="uni00B5" unicode="&#xb5;" 
d="M90 -180v730h90v-356q0 -125 119 -125q121 0 121 125v356h90v-356q0 -96 -53 -150t-148 -54q-64 0 -102.5 22.5t-51.5 54.5h-4q2 0 9 -29.5t8 -50.5l11 -167h-89z" />
    <glyph glyph-name="paragraph" unicode="&#xb6;" 
d="M255 310q-86 0 -138 47t-52 123v80q0 77 52 123.5t138 46.5h80v-910h-80v490zM505 -180h-80v910h80v-910z" />
    <glyph glyph-name="periodcentered" unicode="&#xb7;" 
d="M290 260q-32 0 -53.5 23t-21.5 57t21.5 57t53.5 23h20q32 0 53.5 -23t21.5 -57t-21.5 -57t-53.5 -23h-20z" />
    <glyph glyph-name="cedilla" unicode="&#xb8;" 
d="M205 -203v55h70q21 0 35 11t14 25q0 18 -28.5 30.5t-76.5 12.5l35 95h57l-21 -61q50 -7 85 -28.5t35 -56.5t-33.5 -59t-86.5 -24h-85z" />
    <glyph glyph-name="uni00B9" unicode="&#xb9;" 
d="M460 405h-305v64h131v298l-122 -87v79l97 71h95v-361h104v-64z" />
    <glyph glyph-name="ordmasculine" unicode="&#xba;" 
d="M216.5 474q-31.5 29 -31.5 76v80q0 47 31.5 76t83.5 29t83.5 -29t31.5 -76v-80q0 -47 -31.5 -76t-83.5 -29t-83.5 29zM347 503q18 18 18 47v80q0 29 -18 47t-47 18t-47 -18t-18 -47v-80q0 -29 18 -47t47 -18t47 18z" />
    <glyph glyph-name="guillemotright" unicode="&#xbb;" 
d="M136 40h-105l202 241l-203 239h105l202 -240zM369 40h-105l202 241l-203 239h105l202 -240z" />
    <glyph glyph-name="onequarter" unicode="&#xbc;" 
d="M447 730h63l-357 -730h-63l198 405h-258v50h118v236q-14 -21 -33 -38l-62 -54v70l70 61h85v-275h97v-15zM480 120v89h60v-209h-60v70h-175v80l126 175h69l-135 -189v-16h115z" />
    <glyph glyph-name="onehalf" unicode="&#xbd;" 
d="M447 730h61l-355 -730h-61l197 405h-259v50h118v236q-14 -21 -33 -38l-62 -54v70l70 61h85v-275h97v-17zM570 50v-50h-255v64l120 69q70 40 70 83q0 29 -18 46.5t-47 17.5t-47 -17.5t-18 -46.5h-60q2 52 36.5 83t88.5 31q56 0 90.5 -31t34.5 -81q0 -31 -22.5 -61
t-63.5 -53l-93 -52v-10q37 8 75 8h109z" />
    <glyph glyph-name="threequarters" unicode="&#xbe;" 
d="M246 429q-35 -29 -92 -29q-58 0 -93 29t-35 76h60q0 -25 18.5 -40t49.5 -15q30 0 48.5 15t18.5 40t-18.5 40t-47.5 15h-30v57l81 63h-156v50h215v-55l-85 -66q46 -6 73.5 -34t27.5 -70q0 -47 -35 -76zM90 0l357 730h63l-357 -730h-63zM480 120v89h60v-209h-60v70h-175v80
l126 175h69l-135 -189v-16h115z" />
    <glyph glyph-name="questiondown" unicode="&#xbf;" 
d="M335 435q-29 0 -47 17t-18 44t18 43t47 16h20q29 0 47 -15.5t18 -42.5q0 -28 -18 -45t-47 -17h-20zM340 -170q-106 0 -168 56.5t-62 153.5q0 85 52 140t137 60v105h90v-180h-50q-65 0 -102 -33.5t-37 -91.5t37.5 -91.5t102.5 -33.5h125v-85h-125z" />
    <glyph glyph-name="Agrave" unicode="&#xc0;" 
d="M142 0h-92l190 730h121l189 -730h-91l-48 194h-221zM208 270h184l-56 225q-27 110 -36 163q-9 -54 -36 -162zM360 810h-95l-125 135h105z" />
    <glyph glyph-name="Aacute" unicode="&#xc1;" 
d="M142 0h-92l190 730h121l189 -730h-91l-48 194h-221zM208 270h184l-56 225q-27 110 -36 163q-9 -54 -36 -162zM330 810h-90l115 135h100z" />
    <glyph glyph-name="Acircumflex" unicode="&#xc2;" 
d="M142 0h-92l190 730h121l189 -730h-91l-48 194h-221zM208 270h184l-56 225q-27 110 -36 163q-9 -54 -36 -162zM213 805h-96l142 140h82l142 -140h-94l-83 78h-10z" />
    <glyph glyph-name="Atilde" unicode="&#xc3;" 
d="M142 0h-92l190 730h121l189 -730h-91l-48 194h-221zM208 270h184l-56 225q-27 110 -36 163q-9 -54 -36 -162zM321 811q-19 11 -39 31q-15 15 -24.5 21.5t-22.5 6.5q-14 0 -22 -9t-8 -26v-30h-65v30q0 44 24.5 69.5t65.5 25.5q30 0 49 -11t39 -31q15 -15 24.5 -21.5
t22.5 -6.5q14 0 22 9t8 26v30h65v-30q0 -44 -24.5 -69.5t-65.5 -25.5q-30 0 -49 11z" />
    <glyph glyph-name="Adieresis" unicode="&#xc4;" 
d="M142 0h-92l190 730h121l189 -730h-91l-48 194h-221zM208 270h184l-56 225q-27 110 -36 163q-9 -54 -36 -162zM151 822q-17 17 -17 43t17 43t43 17t43 -17t17 -43t-17 -43t-43 -17t-43 17zM363 822q-17 17 -17 43t17 43t43 17t43 -17t17 -43t-17 -43t-43 -17t-43 17z" />
    <glyph glyph-name="Aring" unicode="&#xc5;" 
d="M142 0h-92l190 730h121l189 -730h-91l-48 194h-221zM208 270h184l-56 225q-27 110 -36 163q-9 -54 -36 -162zM213 772.5q-33 27.5 -33 72.5t33 72.5t87 27.5t87 -27.5t33 -72.5t-33 -72.5t-87 -27.5t-87 27.5zM344 809q16 13 16 36q0 24 -16 37t-45 13q-28 0 -43.5 -13
t-15.5 -37t15 -36.5t44 -12.5t45 13z" />
    <glyph glyph-name="AE" unicode="&#xc6;" 
d="M121 0h-91l145 730h395v-82h-182v-228h157v-82h-157v-256h182v-82h-268v203h-141zM246 648l-71 -370h127v370h-56z" />
    <glyph glyph-name="Ccedilla" unicode="&#xc7;" 
d="M395.5 104q32.5 34 32.5 96h90q0 -97 -58 -153.5t-156 -56.5h-5l-9 -25q50 -7 85 -28.5t35 -56.5t-33.5 -59t-86.5 -24h-85v55h70q21 0 35 11t14 25q0 18 -28.5 30.5t-76.5 12.5l24 65q-73 16 -114 69t-41 135v330q0 98 58 154t158 56q98 0 156 -56.5t58 -153.5h-90
q0 62 -32.5 96t-91.5 34t-92.5 -34t-33.5 -95v-331q0 -62 33 -96t93 -34q59 0 91.5 34z" />
    <glyph glyph-name="Egrave" unicode="&#xc8;" 
d="M520 0h-420v730h420v-81h-331v-227h296v-81h-296v-260h331v-81zM360 810h-95l-125 135h105z" />
    <glyph glyph-name="Eacute" unicode="&#xc9;" 
d="M520 0h-420v730h420v-81h-331v-227h296v-81h-296v-260h331v-81zM330 810h-90l115 135h100z" />
    <glyph glyph-name="Ecircumflex" unicode="&#xca;" 
d="M520 0h-420v730h420v-81h-331v-227h296v-81h-296v-260h331v-81zM213 805h-96l142 140h82l142 -140h-94l-83 78h-10z" />
    <glyph glyph-name="Edieresis" unicode="&#xcb;" 
d="M520 0h-420v730h420v-81h-331v-227h296v-81h-296v-260h331v-81zM151 822q-17 17 -17 43t17 43t43 17t43 -17t17 -43t-17 -43t-43 -17t-43 17zM363 822q-17 17 -17 43t17 43t43 17t43 -17t17 -43t-17 -43t-43 -17t-43 17z" />
    <glyph glyph-name="Igrave" unicode="&#xcc;" 
d="M495 0h-390v81h149v568h-149v81h390v-81h-149v-568h149v-81zM360 810h-95l-125 135h105z" />
    <glyph glyph-name="Iacute" unicode="&#xcd;" 
d="M495 0h-390v81h149v568h-149v81h390v-81h-149v-568h149v-81zM330 810h-90l115 135h100z" />
    <glyph glyph-name="Icircumflex" unicode="&#xce;" 
d="M495 0h-390v81h149v568h-149v81h390v-81h-149v-568h149v-81zM213 805h-96l142 140h82l142 -140h-94l-83 78h-10z" />
    <glyph glyph-name="Idieresis" unicode="&#xcf;" 
d="M495 0h-390v81h149v568h-149v81h390v-81h-149v-568h149v-81zM151 822q-17 17 -17 43t17 43t43 17t43 -17t17 -43t-17 -43t-43 -17t-43 17zM363 822q-17 17 -17 43t17 43t43 17t43 -17t17 -43t-17 -43t-43 -17t-43 17z" />
    <glyph glyph-name="Eth" unicode="&#xd0;" 
d="M281 730q70 0 122 -27t80.5 -76.5t28.5 -115.5v-291q0 -101 -62.5 -160.5t-168.5 -59.5h-189v320h-57v75h57v335h189zM422 511q0 65 -37.5 102t-103.5 37h-99v-255h118v-75h-118v-240h99q66 0 103.5 37t37.5 103v291z" />
    <glyph glyph-name="Ntilde" unicode="&#xd1;" 
d="M90 0v730h120l223 -625q-10 120 -10 215v410h87v-730h-120l-222 625q9 -120 9 -215v-410h-87zM321 811q-19 11 -39 31q-15 15 -24.5 21.5t-22.5 6.5q-14 0 -22 -9t-8 -26v-30h-65v30q0 44 24.5 69.5t65.5 25.5q30 0 49 -11t39 -31q15 -15 24.5 -21.5t22.5 -6.5q14 0 22 9
t8 26v30h65v-30q0 -44 -24.5 -69.5t-65.5 -25.5q-30 0 -49 11z" />
    <glyph glyph-name="Ograve" unicode="&#xd2;" 
d="M145 46q-57 56 -57 154v330q0 98 57 154t155 56t155 -56t57 -153v-331q0 -98 -57 -154t-155 -56t-155 56zM390.5 103.5q31.5 33.5 31.5 96.5v330q0 63 -31.5 96.5t-90.5 33.5t-90.5 -33.5t-31.5 -96.5v-330q0 -63 31.5 -96.5t90.5 -33.5t90.5 33.5zM360 810h-95l-125 135
h105z" />
    <glyph glyph-name="Oacute" unicode="&#xd3;" 
d="M145 46q-57 56 -57 154v330q0 98 57 154t155 56t155 -56t57 -153v-331q0 -98 -57 -154t-155 -56t-155 56zM390.5 103.5q31.5 33.5 31.5 96.5v330q0 63 -31.5 96.5t-90.5 33.5t-90.5 -33.5t-31.5 -96.5v-330q0 -63 31.5 -96.5t90.5 -33.5t90.5 33.5zM330 810h-90l115 135
h100z" />
    <glyph glyph-name="Ocircumflex" unicode="&#xd4;" 
d="M145 46q-57 56 -57 154v330q0 98 57 154t155 56t155 -56t57 -153v-331q0 -98 -57 -154t-155 -56t-155 56zM390.5 103.5q31.5 33.5 31.5 96.5v330q0 63 -31.5 96.5t-90.5 33.5t-90.5 -33.5t-31.5 -96.5v-330q0 -63 31.5 -96.5t90.5 -33.5t90.5 33.5zM213 805h-96l142 140
h82l142 -140h-94l-83 78h-10z" />
    <glyph glyph-name="Otilde" unicode="&#xd5;" 
d="M145 46q-57 56 -57 154v330q0 98 57 154t155 56t155 -56t57 -153v-331q0 -98 -57 -154t-155 -56t-155 56zM390.5 103.5q31.5 33.5 31.5 96.5v330q0 63 -31.5 96.5t-90.5 33.5t-90.5 -33.5t-31.5 -96.5v-330q0 -63 31.5 -96.5t90.5 -33.5t90.5 33.5zM321 811
q-19 11 -39 31q-15 15 -24.5 21.5t-22.5 6.5q-14 0 -22 -9t-8 -26v-30h-65v30q0 44 24.5 69.5t65.5 25.5q30 0 49 -11t39 -31q15 -15 24.5 -21.5t22.5 -6.5q14 0 22 9t8 26v30h65v-30q0 -44 -24.5 -69.5t-65.5 -25.5q-30 0 -49 11z" />
    <glyph glyph-name="Odieresis" unicode="&#xd6;" 
d="M145 46q-57 56 -57 154v330q0 98 57 154t155 56t155 -56t57 -153v-331q0 -98 -57 -154t-155 -56t-155 56zM390.5 103.5q31.5 33.5 31.5 96.5v330q0 63 -31.5 96.5t-90.5 33.5t-90.5 -33.5t-31.5 -96.5v-330q0 -63 31.5 -96.5t90.5 -33.5t90.5 33.5zM151 822
q-17 17 -17 43t17 43t43 17t43 -17t17 -43t-17 -43t-43 -17t-43 17zM363 822q-17 17 -17 43t17 43t43 17t43 -17t17 -43t-17 -43t-43 -17t-43 17z" />
    <glyph glyph-name="multiply" unicode="&#xd7;" 
d="M295 278l-142 -142l-51 52l141 141l-141 142l51 51l142 -141l145 145l51 -52l-145 -145l142 -141l-52 -52z" />
    <glyph glyph-name="Oslash" unicode="&#xd8;" 
d="M565 750l-70 -125q17 -42 17 -94v-331q0 -98 -57 -154t-155 -56q-85 0 -140 43l-41 -73h-84l76 134q-23 46 -23 106v330q0 98 57 154t155 56q93 0 148 -49l33 59h84zM178 213l224 398q-31 49 -102 49q-59 0 -90.5 -33.5t-31.5 -96.5v-317zM422 497l-218 -387
q31 -40 96 -40q59 0 90.5 33.5t31.5 96.5v297z" />
    <glyph glyph-name="Ugrave" unicode="&#xd9;" 
d="M144.5 45.5q-54.5 55.5 -54.5 154.5v530h90v-530q0 -61 30.5 -95.5t89.5 -34.5t89.5 34.5t30.5 95.5v530h90v-530q0 -99 -54 -154.5t-156 -55.5q-101 0 -155.5 55.5zM360 810h-95l-125 135h105z" />
    <glyph glyph-name="Uacute" unicode="&#xda;" 
d="M144.5 45.5q-54.5 55.5 -54.5 154.5v530h90v-530q0 -61 30.5 -95.5t89.5 -34.5t89.5 34.5t30.5 95.5v530h90v-530q0 -99 -54 -154.5t-156 -55.5q-101 0 -155.5 55.5zM330 810h-90l115 135h100z" />
    <glyph glyph-name="Ucircumflex" unicode="&#xdb;" 
d="M144.5 45.5q-54.5 55.5 -54.5 154.5v530h90v-530q0 -61 30.5 -95.5t89.5 -34.5t89.5 34.5t30.5 95.5v530h90v-530q0 -99 -54 -154.5t-156 -55.5q-101 0 -155.5 55.5zM213 805h-96l142 140h82l142 -140h-94l-83 78h-10z" />
    <glyph glyph-name="Udieresis" unicode="&#xdc;" 
d="M144.5 45.5q-54.5 55.5 -54.5 154.5v530h90v-530q0 -61 30.5 -95.5t89.5 -34.5t89.5 34.5t30.5 95.5v530h90v-530q0 -99 -54 -154.5t-156 -55.5q-101 0 -155.5 55.5zM151 822q-17 17 -17 43t17 43t43 17t43 -17t17 -43t-17 -43t-43 -17t-43 17zM363 822q-17 17 -17 43
t17 43t43 17t43 -17t17 -43t-17 -43t-43 -17t-43 17z" />
    <glyph glyph-name="Yacute" unicode="&#xdd;" 
d="M255 0v273l-220 457h93l145 -300q20 -43 28 -68q8 25 29 68l142 300h93l-220 -457v-273h-90zM330 810h-90l115 135h100z" />
    <glyph glyph-name="Thorn" unicode="&#xde;" 
d="M90 0v730h90v-150h153q65 0 114 -25t76 -70.5t27 -104.5q0 -91 -59 -145.5t-158 -54.5h-153v-180h-90zM333 260q58 0 91 32t33 88q0 55 -33.5 87.5t-90.5 32.5h-153v-240h153z" />
    <glyph glyph-name="germandbls" unicode="&#xdf;" 
d="M495.5 327q34.5 -48 34.5 -119q0 -61 -27 -108t-75.5 -73.5t-112.5 -26.5h-66v82h56q60 0 95 35.5t35 93.5t-34.5 91t-95.5 33h-44v78h42q55 0 87 34.5t32 88.5q0 57 -32 89.5t-87 32.5q-56 0 -88.5 -33t-32.5 -91v-534h-90v534q0 93 57.5 149.5t153.5 56.5
q98 0 155.5 -48.5t57.5 -137.5q0 -60 -30.5 -103.5t-84.5 -59.5q60 -16 94.5 -64z" />
    <glyph glyph-name="agrave" unicode="&#xe0;" 
d="M454 510.5q56 -48.5 56 -132.5v-378h-88v105h-1q-4 -52 -52 -83.5t-120 -31.5q-84 0 -134 44t-50 119q0 79 49.5 124t135.5 45h170v53q0 50 -31.5 77.5t-87.5 27.5q-49 0 -81 -20t-37 -55h-90q9 70 66 112t143 42q96 0 152 -48.5zM378 92.5q42 31.5 42 82.5v78h-168
q-45 0 -71 -25t-26 -69q0 -46 31 -72t84 -26q66 0 108 31.5zM360 645h-95l-120 140h100z" />
    <glyph glyph-name="aacute" unicode="&#xe1;" 
d="M454 510.5q56 -48.5 56 -132.5v-378h-88v105h-1q-4 -52 -52 -83.5t-120 -31.5q-84 0 -134 44t-50 119q0 79 49.5 124t135.5 45h170v53q0 50 -31.5 77.5t-87.5 27.5q-49 0 -81 -20t-37 -55h-90q9 70 66 112t143 42q96 0 152 -48.5zM378 92.5q42 31.5 42 82.5v78h-168
q-45 0 -71 -25t-26 -69q0 -46 31 -72t84 -26q66 0 108 31.5zM330 645h-90l115 140h100z" />
    <glyph glyph-name="acircumflex" unicode="&#xe2;" 
d="M454 510.5q56 -48.5 56 -132.5v-378h-88v105h-1q-4 -52 -52 -83.5t-120 -31.5q-84 0 -134 44t-50 119q0 79 49.5 124t135.5 45h170v53q0 50 -31.5 77.5t-87.5 27.5q-49 0 -81 -20t-37 -55h-90q9 70 66 112t143 42q96 0 152 -48.5zM378 92.5q42 31.5 42 82.5v78h-168
q-45 0 -71 -25t-26 -69q0 -46 31 -72t84 -26q66 0 108 31.5zM219 645h-102l143 140h82l141 -140h-105l-75 75h-6z" />
    <glyph glyph-name="atilde" unicode="&#xe3;" 
d="M454 510.5q56 -48.5 56 -132.5v-378h-88v105h-1q-4 -52 -52 -83.5t-120 -31.5q-84 0 -134 44t-50 119q0 79 49.5 124t135.5 45h170v53q0 50 -31.5 77.5t-87.5 27.5q-49 0 -81 -20t-37 -55h-90q9 70 66 112t143 42q96 0 152 -48.5zM378 92.5q42 31.5 42 82.5v78h-168
q-45 0 -71 -25t-26 -69q0 -46 31 -72t84 -26q66 0 108 31.5zM321 661q-19 11 -39 31q-14 14 -24 21t-23 7q-14 0 -22 -9t-8 -26v-30h-65v30q0 44 24.5 69.5t65.5 25.5q30 0 49 -11t39 -31q14 -14 24 -21t23 -7q14 0 22 9t8 26v30h65v-30q0 -44 -24.5 -69.5t-65.5 -25.5
q-30 0 -49 11z" />
    <glyph glyph-name="adieresis" unicode="&#xe4;" 
d="M454 510.5q56 -48.5 56 -132.5v-378h-88v105h-1q-4 -52 -52 -83.5t-120 -31.5q-84 0 -134 44t-50 119q0 79 49.5 124t135.5 45h170v53q0 50 -31.5 77.5t-87.5 27.5q-49 0 -81 -20t-37 -55h-90q9 70 66 112t143 42q96 0 152 -48.5zM378 92.5q42 31.5 42 82.5v78h-168
q-45 0 -71 -25t-26 -69q0 -46 31 -72t84 -26q66 0 108 31.5zM152 657q-17 17 -17 43t17 43t43 17t43 -17t17 -43t-17 -43t-43 -17t-43 17zM362 657q-17 17 -17 43t17 43t43 17t43 -17t17 -43t-17 -43t-43 -17t-43 17z" />
    <glyph glyph-name="aring" unicode="&#xe5;" 
d="M454 510.5q56 -48.5 56 -132.5v-378h-88v105h-1q-4 -52 -52 -83.5t-120 -31.5q-84 0 -134 44t-50 119q0 79 49.5 124t135.5 45h170v53q0 50 -31.5 77.5t-87.5 27.5q-49 0 -81 -20t-37 -55h-90q9 70 66 112t143 42q96 0 152 -48.5zM378 92.5q42 31.5 42 82.5v78h-168
q-45 0 -71 -25t-26 -69q0 -46 31 -72t84 -26q66 0 108 31.5zM213 632.5q-33 27.5 -33 72.5t33 72.5t87 27.5t87 -27.5t33 -72.5t-33 -72.5t-87 -27.5t-87 27.5zM343.5 669.5q16.5 13.5 16.5 35.5q0 25 -16 37.5t-45 12.5q-26 0 -42.5 -14t-16.5 -36t16.5 -35.5t42.5 -13.5
q28 0 44.5 13.5z" />
    <glyph glyph-name="ae" unicode="&#xe6;" 
d="M71.5 27.5q-36.5 37.5 -36.5 102.5v60q0 62 41.5 98.5t111.5 36.5h74v74q0 43 -16 63.5t-51 20.5q-28 0 -45.5 -17t-17.5 -46h-85q0 63 36.5 101.5t96.5 38.5q53 0 83 -23.5t38 -56.5h4q8 33 36.5 56.5t78.5 23.5q67 0 106 -43t39 -117v-145h-222v-105q0 -37 18.5 -60
t48.5 -23q32 0 51 17t19 46h85q0 -63 -40 -101.5t-105 -38.5q-51 0 -79.5 23.5t-35.5 56.5h-4q-8 -33 -41 -56.5t-90 -23.5q-62 0 -98.5 37.5zM343 325h137v75q0 38 -18.5 60.5t-51.5 22.5q-31 0 -49 -22.5t-18 -60.5v-75zM242 90q20 23 20 60v105h-72q-31 0 -48 -17.5
t-17 -47.5v-60q0 -29 17.5 -46t47.5 -17q32 0 52 23z" />
    <glyph glyph-name="ccedilla" unicode="&#xe7;" 
d="M392.5 99q32.5 29 35.5 81h90q-3 -88 -61 -139t-153 -51h-5l-9 -25q50 -7 85 -28.5t35 -56.5t-33.5 -59t-86.5 -24h-85v55h70q21 0 35 11t14 25q0 18 -28.5 30.5t-76.5 12.5l24 65q-73 16 -114 69t-41 135v150q0 98 58 154t158 56q95 0 153 -51t61 -139h-90
q-3 52 -35.5 81t-88.5 29q-59 0 -92.5 -34t-33.5 -95v-151q0 -62 33 -96t93 -34q56 0 88.5 29z" />
    <glyph glyph-name="egrave" unicode="&#xe8;" 
d="M512 253h-336v-53q0 -66 31.5 -100t92.5 -34q105 0 120 74h90q-9 -69 -66 -109.5t-144 -40.5q-97 0 -154.5 57t-57.5 153v150q0 96 57.5 153t154.5 57t154.5 -57t57.5 -153v-97zM176 321h248v29q0 66 -31.5 100.5t-92.5 34.5t-92.5 -34.5t-31.5 -100.5v-29zM360 645h-95
l-120 140h100z" />
    <glyph glyph-name="eacute" unicode="&#xe9;" 
d="M512 253h-336v-53q0 -66 31.5 -100t92.5 -34q105 0 120 74h90q-9 -69 -66 -109.5t-144 -40.5q-97 0 -154.5 57t-57.5 153v150q0 96 57.5 153t154.5 57t154.5 -57t57.5 -153v-97zM176 321h248v29q0 66 -31.5 100.5t-92.5 34.5t-92.5 -34.5t-31.5 -100.5v-29zM330 645h-90
l115 140h100z" />
    <glyph glyph-name="ecircumflex" unicode="&#xea;" 
d="M512 253h-336v-53q0 -66 31.5 -100t92.5 -34q105 0 120 74h90q-9 -69 -66 -109.5t-144 -40.5q-97 0 -154.5 57t-57.5 153v150q0 96 57.5 153t154.5 57t154.5 -57t57.5 -153v-97zM176 321h248v29q0 66 -31.5 100.5t-92.5 34.5t-92.5 -34.5t-31.5 -100.5v-29zM219 645h-102
l143 140h82l141 -140h-105l-75 75h-6z" />
    <glyph glyph-name="edieresis" unicode="&#xeb;" 
d="M512 253h-336v-53q0 -66 31.5 -100t92.5 -34q105 0 120 74h90q-9 -69 -66 -109.5t-144 -40.5q-97 0 -154.5 57t-57.5 153v150q0 96 57.5 153t154.5 57t154.5 -57t57.5 -153v-97zM176 321h248v29q0 66 -31.5 100.5t-92.5 34.5t-92.5 -34.5t-31.5 -100.5v-29zM152 657
q-17 17 -17 43t17 43t43 17t43 -17t17 -43t-17 -43t-43 -17t-43 17zM362 657q-17 17 -17 43t17 43t43 17t43 -17t17 -43t-17 -43t-43 -17t-43 17z" />
    <glyph glyph-name="igrave" unicode="&#xec;" 
d="M545 0h-455v82h205v386h-180v82h270v-468h160v-82zM395 645h-95l-120 140h100z" />
    <glyph glyph-name="iacute" unicode="&#xed;" 
d="M545 0h-455v82h205v386h-180v82h270v-468h160v-82zM330 645h-90l115 140h100z" />
    <glyph glyph-name="icircumflex" unicode="&#xee;" 
d="M545 0h-455v82h205v386h-180v82h270v-468h160v-82zM219 645h-102l143 140h82l141 -140h-105l-75 75h-6z" />
    <glyph glyph-name="idieresis" unicode="&#xef;" 
d="M545 0h-455v82h205v386h-180v82h270v-468h160v-82zM152 657q-17 17 -17 43t17 43t43 17t43 -17t17 -43t-17 -43t-43 -17t-43 17zM362 657q-17 17 -17 43t17 43t43 17t43 -17t17 -43t-17 -43t-43 -17t-43 17z" />
    <glyph glyph-name="eth" unicode="&#xf0;" 
d="M433 493q45 -65 71 -136t26 -134q0 -69 -28.5 -122t-81 -82t-121.5 -29q-68 0 -120 28t-80.5 79t-28.5 118q0 66 26 116t74 77.5t111 27.5q39 0 68.5 -16.5t45.5 -39.5h14q-17 34 -64 100l-65 91l-163 -76v80l120 56l-72 99h104l44 -64l148 69v-80l-106 -49zM401.5 110
q38.5 40 38.5 105t-38.5 105t-102.5 40q-62 0 -100.5 -40t-38.5 -105t38.5 -105t100.5 -40q64 0 102.5 40z" />
    <glyph glyph-name="ntilde" unicode="&#xf1;" 
d="M461 508.5q49 -51.5 49 -138.5v-370h-90v360q0 58 -31.5 91t-85.5 33q-57 0 -89 -35.5t-32 -98.5v-350h-90v550h90v-105h1q7 55 45 85t101 30q83 0 132 -51.5zM321 661q-19 11 -39 31q-14 14 -24 21t-23 7q-14 0 -22 -9t-8 -26v-30h-65v30q0 44 24.5 69.5t65.5 25.5
q30 0 49 -11t39 -31q14 -14 24 -21t23 -7q14 0 22 9t8 26v30h65v-30q0 -44 -24.5 -69.5t-65.5 -25.5q-30 0 -49 11z" />
    <glyph glyph-name="ograve" unicode="&#xf2;" 
d="M145 46q-57 56 -57 154v150q0 98 57 154t155 56t155 -56t57 -153v-151q0 -98 -57 -154t-155 -56t-155 56zM390.5 103.5q31.5 33.5 31.5 96.5v150q0 63 -31.5 96.5t-90.5 33.5t-90.5 -33.5t-31.5 -96.5v-150q0 -63 31.5 -96.5t90.5 -33.5t90.5 33.5zM360 645h-95l-120 140
h100z" />
    <glyph glyph-name="oacute" unicode="&#xf3;" 
d="M145 46q-57 56 -57 154v150q0 98 57 154t155 56t155 -56t57 -153v-151q0 -98 -57 -154t-155 -56t-155 56zM390.5 103.5q31.5 33.5 31.5 96.5v150q0 63 -31.5 96.5t-90.5 33.5t-90.5 -33.5t-31.5 -96.5v-150q0 -63 31.5 -96.5t90.5 -33.5t90.5 33.5zM330 645h-90l115 140
h100z" />
    <glyph glyph-name="ocircumflex" unicode="&#xf4;" 
d="M145 46q-57 56 -57 154v150q0 98 57 154t155 56t155 -56t57 -153v-151q0 -98 -57 -154t-155 -56t-155 56zM390.5 103.5q31.5 33.5 31.5 96.5v150q0 63 -31.5 96.5t-90.5 33.5t-90.5 -33.5t-31.5 -96.5v-150q0 -63 31.5 -96.5t90.5 -33.5t90.5 33.5zM219 645h-102l143 140
h82l141 -140h-105l-75 75h-6z" />
    <glyph glyph-name="otilde" unicode="&#xf5;" 
d="M145 46q-57 56 -57 154v150q0 98 57 154t155 56t155 -56t57 -153v-151q0 -98 -57 -154t-155 -56t-155 56zM390.5 103.5q31.5 33.5 31.5 96.5v150q0 63 -31.5 96.5t-90.5 33.5t-90.5 -33.5t-31.5 -96.5v-150q0 -63 31.5 -96.5t90.5 -33.5t90.5 33.5zM321 661
q-19 11 -39 31q-14 14 -24 21t-23 7q-14 0 -22 -9t-8 -26v-30h-65v30q0 44 24.5 69.5t65.5 25.5q30 0 49 -11t39 -31q14 -14 24 -21t23 -7q14 0 22 9t8 26v30h65v-30q0 -44 -24.5 -69.5t-65.5 -25.5q-30 0 -49 11z" />
    <glyph glyph-name="odieresis" unicode="&#xf6;" 
d="M145 46q-57 56 -57 154v150q0 98 57 154t155 56t155 -56t57 -153v-151q0 -98 -57 -154t-155 -56t-155 56zM390.5 103.5q31.5 33.5 31.5 96.5v150q0 63 -31.5 96.5t-90.5 33.5t-90.5 -33.5t-31.5 -96.5v-150q0 -63 31.5 -96.5t90.5 -33.5t90.5 33.5zM152 657
q-17 17 -17 43t17 43t43 17t43 -17t17 -43t-17 -43t-43 -17t-43 17zM362 657q-17 17 -17 43t17 43t43 17t43 -17t17 -43t-17 -43t-43 -17t-43 17z" />
    <glyph glyph-name="divide" unicode="&#xf7;" 
d="M290 460q-30 0 -47.5 16t-17.5 43t18 44t47 17h20q29 0 47 -17t18 -44t-18 -43t-47 -16h-20zM500 295h-400v75h400v-75zM290 85q-30 0 -47.5 16t-17.5 43t18 44t47 17h20q29 0 47 -17t18 -44t-18 -43t-47 -16h-20z" />
    <glyph glyph-name="oslash" unicode="&#xf8;" 
d="M565 590l-84 -118q31 -51 31 -121v-151q0 -98 -57 -154t-155 -56q-81 0 -134 38l-41 -58h-90l81 114q-28 50 -28 116v150q0 98 57 154t155 56q75 0 128 -34l46 64h91zM178 200q0 -10 2 -26l200 283q-31 23 -80 23q-59 0 -90.5 -33.5t-31.5 -96.5v-150zM422 350
q0 19 -3 35l-203 -287q29 -28 84 -28q59 0 90.5 33.5t31.5 96.5v150z" />
    <glyph glyph-name="ugrave" unicode="&#xf9;" 
d="M147 47q-57 57 -57 153v350h90v-350q0 -62 31.5 -96.5t87.5 -34.5q57 0 89 34.5t32 96.5v350h90v-350q0 -96 -57.5 -153t-153.5 -57q-95 0 -152 57zM360 645h-95l-120 140h100z" />
    <glyph glyph-name="uacute" unicode="&#xfa;" 
d="M147 47q-57 57 -57 153v350h90v-350q0 -62 31.5 -96.5t87.5 -34.5q57 0 89 34.5t32 96.5v350h90v-350q0 -96 -57.5 -153t-153.5 -57q-95 0 -152 57zM330 645h-90l115 140h100z" />
    <glyph glyph-name="ucircumflex" unicode="&#xfb;" 
d="M147 47q-57 57 -57 153v350h90v-350q0 -62 31.5 -96.5t87.5 -34.5q57 0 89 34.5t32 96.5v350h90v-350q0 -96 -57.5 -153t-153.5 -57q-95 0 -152 57zM219 645h-102l143 140h82l141 -140h-105l-75 75h-6z" />
    <glyph glyph-name="udieresis" unicode="&#xfc;" 
d="M147 47q-57 57 -57 153v350h90v-350q0 -62 31.5 -96.5t87.5 -34.5q57 0 89 34.5t32 96.5v350h90v-350q0 -96 -57.5 -153t-153.5 -57q-95 0 -152 57zM152 657q-17 17 -17 43t17 43t43 17t43 -17t17 -43t-17 -43t-43 -17t-43 17zM362 657q-17 17 -17 43t17 43t43 17t43 -17
t17 -43t-17 -43t-43 -17t-43 17z" />
    <glyph glyph-name="yacute" unicode="&#xfd;" 
d="M181 -180l81 214l-202 516h100l123 -340q10 -29 23 -80q12 51 22 80l115 340h97l-263 -730h-96zM330 645h-90l115 140h100z" />
    <glyph glyph-name="thorn" unicode="&#xfe;" 
d="M458.5 505q48.5 -55 48.5 -150v-161q0 -94 -48.5 -149t-131.5 -55q-62 0 -102 30.5t-47 84.5h-1v-275h-90v900h90v-160l-2 -125h3q8 53 48 84t101 31q83 0 131.5 -55zM417 350q0 63 -31.5 97.5t-88.5 34.5q-56 0 -88 -35t-32 -97v-150q0 -62 32 -97t88 -35
q57 0 88.5 34.5t31.5 97.5v150z" />
    <glyph glyph-name="ydieresis" unicode="&#xff;" 
d="M181 -180l81 214l-202 516h100l123 -340q10 -29 23 -80q12 51 22 80l115 340h97l-263 -730h-96zM152 657q-17 17 -17 43t17 43t43 17t43 -17t17 -43t-17 -43t-43 -17t-43 17zM362 657q-17 17 -17 43t17 43t43 17t43 -17t17 -43t-17 -43t-43 -17t-43 17z" />
    <glyph glyph-name="Amacron" unicode="&#x100;" 
d="M142 0h-92l190 730h121l189 -730h-91l-48 194h-221zM208 270h184l-56 225q-27 110 -36 163q-9 -54 -36 -162zM430 820h-260v75h260v-75z" />
    <glyph glyph-name="amacron" unicode="&#x101;" 
d="M454 510.5q56 -48.5 56 -132.5v-378h-88v105h-1q-4 -52 -52 -83.5t-120 -31.5q-84 0 -134 44t-50 119q0 79 49.5 124t135.5 45h170v53q0 50 -31.5 77.5t-87.5 27.5q-49 0 -81 -20t-37 -55h-90q9 70 66 112t143 42q96 0 152 -48.5zM378 92.5q42 31.5 42 82.5v78h-168
q-45 0 -71 -25t-26 -69q0 -46 31 -72t84 -26q66 0 108 31.5zM430 665h-260v75h260v-75z" />
    <glyph glyph-name="Abreve" unicode="&#x102;" 
d="M142 0h-92l190 730h121l189 -730h-91l-48 194h-221zM208 270h184l-56 225q-27 110 -36 163q-9 -54 -36 -162zM180.5 837q-45.5 37 -45.5 98h71q0 -36 24.5 -56t68.5 -20q45 0 70 20t25 56h71q0 -61 -45.5 -98t-119.5 -37t-119.5 37z" />
    <glyph glyph-name="abreve" unicode="&#x103;" 
d="M454 510.5q56 -48.5 56 -132.5v-378h-88v105h-1q-4 -52 -52 -83.5t-120 -31.5q-84 0 -134 44t-50 119q0 79 49.5 124t135.5 45h170v53q0 50 -31.5 77.5t-87.5 27.5q-49 0 -81 -20t-37 -55h-90q9 70 66 112t143 42q96 0 152 -48.5zM378 92.5q42 31.5 42 82.5v78h-168
q-45 0 -71 -25t-26 -69q0 -46 31 -72t84 -26q66 0 108 31.5zM180.5 680q-45.5 40 -45.5 105h71q0 -40 25 -63t68 -23q44 0 69.5 23t25.5 63h71q0 -65 -45.5 -105t-119.5 -40t-119.5 40z" />
    <glyph glyph-name="Aogonek" unicode="&#x104;" 
d="M580 -143v-60h-78q-55 0 -88.5 26t-33.5 67q0 29 18 57t60 58l-47 189h-221l-48 -194h-92l190 730h121l189 -730h-22q-33 -28 -48 -50t-15 -43q0 -22 15 -36t40 -14h60zM208 270h184l-56 225q-27 110 -36 163q-9 -54 -36 -162z" />
    <glyph glyph-name="aogonek" unicode="&#x105;" 
d="M550 -143v-60h-78q-55 0 -88.5 26t-33.5 67q0 57 72 111v104h-1q-4 -52 -52 -83.5t-120 -31.5q-84 0 -134 44t-50 119q0 79 49.5 124t135.5 45h170v53q0 50 -31.5 77.5t-87.5 27.5q-49 0 -81 -20t-37 -55h-90q9 70 66 112t143 42q96 0 152 -48.5t56 -132.5v-378h-12
q-33 -28 -48 -50t-15 -43q0 -22 15 -36t40 -14h60zM378 92.5q42 31.5 42 82.5v78h-168q-45 0 -71 -25t-26 -69q0 -46 31 -72t84 -26q66 0 108 31.5z" />
    <glyph glyph-name="Cacute" unicode="&#x106;" 
d="M146 46q-58 56 -58 154v330q0 98 58 154t158 56q98 0 156 -56.5t58 -153.5h-90q0 62 -32.5 96t-91.5 34t-92.5 -34t-33.5 -95v-331q0 -62 33 -96t93 -34q59 0 91.5 34t32.5 96h90q0 -97 -58 -153.5t-156 -56.5q-100 0 -158 56zM330 810h-90l115 135h100z" />
    <glyph glyph-name="cacute" unicode="&#x107;" 
d="M146 46q-58 56 -58 154v150q0 98 58 154t158 56q95 0 153 -51t61 -139h-90q-3 52 -35.5 81t-88.5 29q-59 0 -92.5 -34t-33.5 -95v-151q0 -62 33 -96t93 -34q56 0 88.5 29t35.5 81h90q-3 -88 -61 -139t-153 -51q-100 0 -158 56zM330 645h-90l115 140h100z" />
    <glyph glyph-name="Ccircumflex" unicode="&#x108;" 
d="M146 46q-58 56 -58 154v330q0 98 58 154t158 56q98 0 156 -56.5t58 -153.5h-90q0 62 -32.5 96t-91.5 34t-92.5 -34t-33.5 -95v-331q0 -62 33 -96t93 -34q59 0 91.5 34t32.5 96h90q0 -97 -58 -153.5t-156 -56.5q-100 0 -158 56zM213 805h-96l142 140h82l142 -140h-94
l-83 78h-10z" />
    <glyph glyph-name="ccircumflex" unicode="&#x109;" 
d="M146 46q-58 56 -58 154v150q0 98 58 154t158 56q95 0 153 -51t61 -139h-90q-3 52 -35.5 81t-88.5 29q-59 0 -92.5 -34t-33.5 -95v-151q0 -62 33 -96t93 -34q56 0 88.5 29t35.5 81h90q-3 -88 -61 -139t-153 -51q-100 0 -158 56zM219 645h-102l143 140h82l141 -140h-105
l-75 75h-6z" />
    <glyph glyph-name="Cdotaccent" unicode="&#x10a;" 
d="M146 46q-58 56 -58 154v330q0 98 58 154t158 56q98 0 156 -56.5t58 -153.5h-90q0 62 -32.5 96t-91.5 34t-92.5 -34t-33.5 -95v-331q0 -62 33 -96t93 -34q59 0 91.5 34t32.5 96h90q0 -97 -58 -153.5t-156 -56.5q-100 0 -158 56zM290 800q-29 0 -47 16.5t-18 42.5
q0 27 18 44t47 17h20q29 0 47 -17t18 -44q0 -26 -18 -42.5t-47 -16.5h-20z" />
    <glyph glyph-name="cdotaccent" unicode="&#x10b;" 
d="M146 46q-58 56 -58 154v150q0 98 58 154t158 56q95 0 153 -51t61 -139h-90q-3 52 -35.5 81t-88.5 29q-59 0 -92.5 -34t-33.5 -95v-151q0 -62 33 -96t93 -34q56 0 88.5 29t35.5 81h90q-3 -88 -61 -139t-153 -51q-100 0 -158 56zM280 641q-29 0 -47 16.5t-18 42.5
q0 27 18 44t47 17h20q29 0 47 -17t18 -44q0 -26 -18 -42.5t-47 -16.5h-20z" />
    <glyph glyph-name="Ccaron" unicode="&#x10c;" 
d="M146 46q-58 56 -58 154v330q0 98 58 154t158 56q98 0 156 -56.5t58 -153.5h-90q0 62 -32.5 96t-91.5 34t-92.5 -34t-33.5 -95v-331q0 -62 33 -96t93 -34q59 0 91.5 34t32.5 96h90q0 -97 -58 -153.5t-156 -56.5q-100 0 -158 56zM341 805h-82l-142 140h94l83 -78h10l83 78
h96z" />
    <glyph glyph-name="ccaron" unicode="&#x10d;" 
d="M146 46q-58 56 -58 154v150q0 98 58 154t158 56q95 0 153 -51t61 -139h-90q-3 52 -35.5 81t-88.5 29q-59 0 -92.5 -34t-33.5 -95v-151q0 -62 33 -96t93 -34q56 0 88.5 29t35.5 81h90q-3 -88 -61 -139t-153 -51q-100 0 -158 56zM341 645h-82l-142 140h94l83 -78h10l83 78
h96z" />
    <glyph glyph-name="Dcaron" unicode="&#x10e;" 
d="M92 0v730h189q70 0 122 -27t80.5 -76.5t28.5 -115.5v-291q0 -101 -62.5 -160.5t-168.5 -59.5h-189zM281 80q66 0 103.5 37t37.5 103v291q0 65 -37.5 102t-103.5 37h-99v-570h99zM341 805h-82l-142 140h94l83 -78h10l83 78h96z" />
    <glyph glyph-name="dcaron" unicode="&#x10f;" 
d="M514 610l50 146h90l-70 -146h-70zM398 570v160h90v-730h-90v105h-1q-7 -54 -47 -84.5t-102 -30.5q-83 0 -131.5 55t-48.5 149v161q0 95 48.5 150t131.5 55q61 0 101 -31t48 -84h3zM398 350q0 62 -32 97t-88 35q-57 0 -88.5 -34.5t-31.5 -97.5v-150q0 -63 31.5 -97.5
t88.5 -34.5q56 0 88 35t32 97v150z" />
    <glyph glyph-name="Dcroat" unicode="&#x110;" 
d="M281 730q70 0 122 -27t80.5 -76.5t28.5 -115.5v-291q0 -101 -62.5 -160.5t-168.5 -59.5h-189v320h-57v75h57v335h189zM422 511q0 65 -37.5 102t-103.5 37h-99v-255h118v-75h-118v-240h99q66 0 103.5 37t37.5 103v291z" />
    <glyph glyph-name="dcroat" unicode="&#x111;" 
d="M600 645v-75h-94v-570h-90v105h-1q-7 -54 -46 -84.5t-101 -30.5q-82 0 -130 54.5t-48 149.5v101q0 95 47.5 150t130.5 55q61 0 100.5 -31t46.5 -84h3l-2 125v60h-166v75h166v85h90v-85h94zM416 290q0 62 -31 97t-87 35q-57 0 -87.5 -34t-30.5 -98v-90q0 -64 30.5 -98
t87.5 -34q56 0 87 35t31 97v90z" />
    <glyph glyph-name="Emacron" unicode="&#x112;" 
d="M520 0h-420v730h420v-81h-331v-227h296v-81h-296v-260h331v-81zM430 820h-260v75h260v-75z" />
    <glyph glyph-name="emacron" unicode="&#x113;" 
d="M512 253h-336v-53q0 -66 31.5 -100t92.5 -34q105 0 120 74h90q-9 -69 -66 -109.5t-144 -40.5q-97 0 -154.5 57t-57.5 153v150q0 96 57.5 153t154.5 57t154.5 -57t57.5 -153v-97zM176 321h248v29q0 66 -31.5 100.5t-92.5 34.5t-92.5 -34.5t-31.5 -100.5v-29zM430 665h-260
v75h260v-75z" />
    <glyph glyph-name="Ebreve" unicode="&#x114;" 
d="M520 0h-420v730h420v-81h-331v-227h296v-81h-296v-260h331v-81zM180.5 837q-45.5 37 -45.5 98h71q0 -36 24.5 -56t68.5 -20q45 0 70 20t25 56h71q0 -61 -45.5 -98t-119.5 -37t-119.5 37z" />
    <glyph glyph-name="ebreve" unicode="&#x115;" 
d="M512 253h-336v-53q0 -66 31.5 -100t92.5 -34q105 0 120 74h90q-9 -69 -66 -109.5t-144 -40.5q-97 0 -154.5 57t-57.5 153v150q0 96 57.5 153t154.5 57t154.5 -57t57.5 -153v-97zM176 321h248v29q0 66 -31.5 100.5t-92.5 34.5t-92.5 -34.5t-31.5 -100.5v-29zM180.5 680
q-45.5 40 -45.5 105h71q0 -40 25 -63t68 -23q44 0 69.5 23t25.5 63h71q0 -65 -45.5 -105t-119.5 -40t-119.5 40z" />
    <glyph glyph-name="Edotaccent" unicode="&#x116;" 
d="M520 0h-420v730h420v-81h-331v-227h296v-81h-296v-260h331v-81zM290 800q-29 0 -47 16.5t-18 42.5q0 27 18 44t47 17h20q29 0 47 -17t18 -44q0 -26 -18 -42.5t-47 -16.5h-20z" />
    <glyph glyph-name="edotaccent" unicode="&#x117;" 
d="M512 253h-336v-53q0 -66 31.5 -100t92.5 -34q105 0 120 74h90q-9 -69 -66 -109.5t-144 -40.5q-97 0 -154.5 57t-57.5 153v150q0 96 57.5 153t154.5 57t154.5 -57t57.5 -153v-97zM176 321h248v29q0 66 -31.5 100.5t-92.5 34.5t-92.5 -34.5t-31.5 -100.5v-29zM280 641
q-29 0 -47 16.5t-18 42.5q0 27 18 44t47 17h20q29 0 47 -17t18 -44q0 -26 -18 -42.5t-47 -16.5h-20z" />
    <glyph glyph-name="Eogonek" unicode="&#x118;" 
d="M520 649h-331v-227h296v-81h-296v-260h331v-81h-52q-33 -28 -48 -50t-15 -43q0 -22 15 -36t40 -14h60v-60h-78q-55 0 -88.5 26t-33.5 67q0 27 16.5 54t54.5 56h-291v730h420v-81z" />
    <glyph glyph-name="eogonek" unicode="&#x119;" 
d="M512 253h-336v-53q0 -66 31.5 -100t92.5 -34q105 0 120 74h90q-6 -47 -35.5 -82t-77.5 -52l-6 -5q-33 -27 -48.5 -50t-15.5 -44q0 -22 15 -36t40 -14h60v-60h-78q-55 0 -88.5 26t-33.5 67q0 51 59 100h-1q-97 0 -154.5 57t-57.5 153v150q0 96 57.5 153t154.5 57
t154.5 -57t57.5 -153v-97zM176 321h248v29q0 66 -31.5 100.5t-92.5 34.5t-92.5 -34.5t-31.5 -100.5v-29z" />
    <glyph glyph-name="Ecaron" unicode="&#x11a;" 
d="M520 0h-420v730h420v-81h-331v-227h296v-81h-296v-260h331v-81zM341 805h-82l-142 140h94l83 -78h10l83 78h96z" />
    <glyph glyph-name="ecaron" unicode="&#x11b;" 
d="M512 253h-336v-53q0 -66 31.5 -100t92.5 -34q105 0 120 74h90q-9 -69 -66 -109.5t-144 -40.5q-97 0 -154.5 57t-57.5 153v150q0 96 57.5 153t154.5 57t154.5 -57t57.5 -153v-97zM176 321h248v29q0 66 -31.5 100.5t-92.5 34.5t-92.5 -34.5t-31.5 -100.5v-29zM341 645h-82
l-142 140h94l83 -78h10l83 78h96z" />
    <glyph glyph-name="Gcircumflex" unicode="&#x11c;" 
d="M146 46q-58 56 -58 154v330q0 98 58 154t158 56q98 0 156 -56.5t58 -153.5h-90q0 62 -32.5 96t-91.5 34t-92.5 -34t-33.5 -95v-331q0 -62 33 -96t93 -34q59 0 91.5 34t32.5 96v90h-148v80h238v-170q0 -97 -58 -153.5t-156 -56.5q-100 0 -158 56zM213 805h-96l142 140h82
l142 -140h-94l-83 78h-10z" />
    <glyph glyph-name="gcircumflex" unicode="&#x11d;" 
d="M420 550h87v-570q0 -75 -45.5 -117.5t-126.5 -42.5h-174v82h175q42 0 61.5 19t19.5 59v70l3 70h-13q-13 -41 -49 -63t-90 -22q-83 0 -131.5 55t-48.5 150v116q0 94 48.5 149t131.5 55q54 0 90 -22t49 -63h13v75zM418 350q0 62 -32 97t-88 35q-57 0 -88.5 -34.5
t-31.5 -97.5v-105q0 -63 31.5 -97.5t88.5 -34.5q56 0 88 35t32 97v105zM219 645h-102l143 140h82l141 -140h-105l-75 75h-6z" />
    <glyph glyph-name="Gbreve" unicode="&#x11e;" 
d="M146 46q-58 56 -58 154v330q0 98 58 154t158 56q98 0 156 -56.5t58 -153.5h-90q0 62 -32.5 96t-91.5 34t-92.5 -34t-33.5 -95v-331q0 -62 33 -96t93 -34q59 0 91.5 34t32.5 96v90h-148v80h238v-170q0 -97 -58 -153.5t-156 -56.5q-100 0 -158 56zM180.5 837
q-45.5 37 -45.5 98h71q0 -36 24.5 -56t68.5 -20q45 0 70 20t25 56h71q0 -61 -45.5 -98t-119.5 -37t-119.5 37z" />
    <glyph glyph-name="gbreve" unicode="&#x11f;" 
d="M420 550h87v-570q0 -75 -45.5 -117.5t-126.5 -42.5h-174v82h175q42 0 61.5 19t19.5 59v70l3 70h-13q-13 -41 -49 -63t-90 -22q-83 0 -131.5 55t-48.5 150v116q0 94 48.5 149t131.5 55q54 0 90 -22t49 -63h13v75zM418 350q0 62 -32 97t-88 35q-57 0 -88.5 -34.5
t-31.5 -97.5v-105q0 -63 31.5 -97.5t88.5 -34.5q56 0 88 35t32 97v105zM180.5 680q-45.5 40 -45.5 105h71q0 -40 25 -63t68 -23q44 0 69.5 23t25.5 63h71q0 -65 -45.5 -105t-119.5 -40t-119.5 40z" />
    <glyph glyph-name="Gdotaccent" unicode="&#x120;" 
d="M146 46q-58 56 -58 154v330q0 98 58 154t158 56q98 0 156 -56.5t58 -153.5h-90q0 62 -32.5 96t-91.5 34t-92.5 -34t-33.5 -95v-331q0 -62 33 -96t93 -34q59 0 91.5 34t32.5 96v90h-148v80h238v-170q0 -97 -58 -153.5t-156 -56.5q-100 0 -158 56zM290 800q-29 0 -47 16.5
t-18 42.5q0 27 18 44t47 17h20q29 0 47 -17t18 -44q0 -26 -18 -42.5t-47 -16.5h-20z" />
    <glyph glyph-name="gdotaccent" unicode="&#x121;" 
d="M420 550h87v-570q0 -75 -45.5 -117.5t-126.5 -42.5h-174v82h175q42 0 61.5 19t19.5 59v70l3 70h-13q-13 -41 -49 -63t-90 -22q-83 0 -131.5 55t-48.5 150v116q0 94 48.5 149t131.5 55q54 0 90 -22t49 -63h13v75zM418 350q0 62 -32 97t-88 35q-57 0 -88.5 -34.5
t-31.5 -97.5v-105q0 -63 31.5 -97.5t88.5 -34.5q56 0 88 35t32 97v105zM280 641q-29 0 -47 16.5t-18 42.5q0 27 18 44t47 17h20q29 0 47 -17t18 -44q0 -26 -18 -42.5t-47 -16.5h-20z" />
    <glyph glyph-name="uni0122" unicode="&#x122;" 
d="M146 46q-58 56 -58 154v330q0 98 58 154t158 56q98 0 156 -56.5t58 -153.5h-90q0 62 -32.5 96t-91.5 34t-92.5 -34t-33.5 -95v-331q0 -62 33 -96t93 -34q59 0 91.5 34t32.5 96v90h-148v80h238v-170q0 -97 -58 -153.5t-156 -56.5q-100 0 -158 56zM285 -240h-95l95 146h105
z" />
    <glyph glyph-name="uni0123" unicode="&#x123;" 
d="M315 785h95l-95 -145h-105zM420 550h87v-570q0 -75 -45.5 -117.5t-126.5 -42.5h-174v82h175q42 0 61.5 19t19.5 59v70l3 70h-13q-13 -41 -49 -63t-90 -22q-83 0 -131.5 55t-48.5 150v116q0 94 48.5 149t131.5 55q54 0 90 -22t49 -63h13v75zM418 350q0 62 -32 97t-88 35
q-57 0 -88.5 -34.5t-31.5 -97.5v-105q0 -63 31.5 -97.5t88.5 -34.5q56 0 88 35t32 97v105z" />
    <glyph glyph-name="Hcircumflex" unicode="&#x124;" 
d="M183 0h-90v730h90v-312h234v312h90v-730h-90v336h-234v-336zM213 805h-96l142 140h82l142 -140h-94l-83 78h-10z" />
    <glyph glyph-name="hcircumflex" unicode="&#x125;" 
d="M461 508.5q49 -51.5 49 -138.5v-370h-90v360q0 58 -31.5 91t-85.5 33q-57 0 -89 -35.5t-32 -98.5v-350h-90v730h90v-285h1q7 55 45 85t101 30q83 0 132 -51.5zM69 805h-102l143 140h82l141 -140h-105l-75 75h-6z" />
    <glyph glyph-name="Hbar" unicode="&#x126;" 
d="M507 600h83v-75h-83v-525h-90v336h-234v-336h-90v525h-83v75h83v130h90v-130h234v130h90v-130zM183 418h234v107h-234v-107z" />
    <glyph glyph-name="hbar" unicode="&#x127;" 
d="M460 449q48 -51 48 -139v-310h-90v300q0 58 -30.5 91t-84.5 33q-56 0 -87.5 -35t-31.5 -99v-290h-90v570h-94v75h94v85h90v-85h166v-75h-166v-185h1q6 55 43.5 85t100.5 30q83 0 131 -51z" />
    <glyph glyph-name="Itilde" unicode="&#x128;" 
d="M495 0h-390v81h149v568h-149v81h390v-81h-149v-568h149v-81zM321 811q-19 11 -39 31q-15 15 -24.5 21.5t-22.5 6.5q-14 0 -22 -9t-8 -26v-30h-65v30q0 44 24.5 69.5t65.5 25.5q30 0 49 -11t39 -31q15 -15 24.5 -21.5t22.5 -6.5q14 0 22 9t8 26v30h65v-30
q0 -44 -24.5 -69.5t-65.5 -25.5q-30 0 -49 11z" />
    <glyph glyph-name="itilde" unicode="&#x129;" 
d="M545 0h-455v82h205v386h-180v82h270v-468h160v-82zM321 661q-19 11 -39 31q-14 14 -24 21t-23 7q-14 0 -22 -9t-8 -26v-30h-65v30q0 44 24.5 69.5t65.5 25.5q30 0 49 -11t39 -31q14 -14 24 -21t23 -7q14 0 22 9t8 26v30h65v-30q0 -44 -24.5 -69.5t-65.5 -25.5
q-30 0 -49 11z" />
    <glyph glyph-name="Imacron" unicode="&#x12a;" 
d="M495 0h-390v81h149v568h-149v81h390v-81h-149v-568h149v-81zM430 820h-260v75h260v-75z" />
    <glyph glyph-name="imacron" unicode="&#x12b;" 
d="M545 0h-455v82h205v386h-180v82h270v-468h160v-82zM430 665h-260v75h260v-75z" />
    <glyph glyph-name="Ibreve" unicode="&#x12c;" 
d="M495 0h-390v81h149v568h-149v81h390v-81h-149v-568h149v-81zM180.5 837q-45.5 37 -45.5 98h71q0 -36 24.5 -56t68.5 -20q45 0 70 20t25 56h71q0 -61 -45.5 -98t-119.5 -37t-119.5 37z" />
    <glyph glyph-name="ibreve" unicode="&#x12d;" 
d="M545 0h-455v82h205v386h-180v82h270v-468h160v-82zM180.5 680q-45.5 40 -45.5 105h71q0 -40 25 -63t68 -23q44 0 69.5 23t25.5 63h71q0 -65 -45.5 -105t-119.5 -40t-119.5 40z" />
    <glyph glyph-name="Iogonek" unicode="&#x12e;" 
d="M495 649h-149v-568h149v-81h-161q-33 -28 -48 -50t-15 -43q0 -22 15 -36t40 -14h60v-60h-78q-55 0 -88.5 26t-33.5 67q0 27 16.5 54t54.5 56h-152v81h149v568h-149v81h390v-81z" />
    <glyph glyph-name="iogonek" unicode="&#x12f;" 
d="M300 645q-30 0 -47.5 16t-17.5 43t18 44t47 17h20q29 0 47 -17t18 -44t-18 -43t-47 -16h-20zM372 0q-33 -28 -48 -50t-15 -43q0 -22 15 -36t40 -14h60v-60h-78q-55 0 -88.5 26t-33.5 67q0 27 16.5 54t54.5 56h-215v82h195v386h-170v82h260v-468h185v-82h-178z" />
    <glyph glyph-name="Idotaccent" unicode="&#x130;" 
d="M495 0h-390v81h149v568h-149v81h390v-81h-149v-568h149v-81zM290 800q-29 0 -47 16.5t-18 42.5q0 27 18 44t47 17h20q29 0 47 -17t18 -44q0 -26 -18 -42.5t-47 -16.5h-20z" />
    <glyph glyph-name="dotlessi" unicode="&#x131;" 
d="M545 0h-455v82h205v386h-180v82h270v-468h160v-82z" />
    <glyph glyph-name="IJ" unicode="&#x132;" 
d="M162 0h-92v720h92v-720zM260 0v80h60q60 0 92.5 31.5t32.5 89.5v439h-145v80h235v-519q0 -97 -56 -149t-159 -52h-60z" />
    <glyph glyph-name="ij" unicode="&#x133;" 
d="M140 645q-30 0 -47.5 16t-17.5 43t18 44t47 17h20q29 0 47 -17t18 -44t-18 -43t-47 -16h-20zM440 645q-30 0 -47.5 16t-17.5 43t18 44t47 17h20q29 0 47 -17t18 -44t-18 -43t-47 -16h-20zM195 0h-90v550h90v-550zM210 -165v82h85q53 0 84 30.5t31 82.5v520h90v-520
q0 -88 -56 -141.5t-149 -53.5h-85z" />
    <glyph glyph-name="Jcircumflex" unicode="&#x134;" 
d="M105 49q-60 59 -60 161h90q0 -67 35.5 -103.5t99.5 -36.5t99.5 36.5t35.5 103.5v438h-175v82h265v-520q0 -102 -60.5 -161t-164.5 -59q-105 0 -165 59zM273 805h-96l142 140h82l142 -140h-94l-83 78h-10z" />
    <glyph glyph-name="jcircumflex" unicode="&#x135;" 
d="M239 645h-102l143 140h82l141 -140h-105l-75 75h-6zM85 -180v83h129q62 0 96.5 33.5t34.5 94.5v437h-230v82h320v-519q0 -97 -60 -154t-161 -57h-129z" />
    <glyph glyph-name="uni0136" unicode="&#x136;" 
d="M182 0h-90v730h90v-313h108l162 313h98l-181 -351l191 -379h-103l-170 338h-105v-338zM285 -240h-95l95 146h105z" />
    <glyph glyph-name="uni0137" unicode="&#x137;" 
d="M185 0h-90v730h90v-407h96l160 227h103l-185 -262l188 -288h-105l-160 245h-97v-245zM285 -240h-95l95 146h105z" />
    <glyph glyph-name="kgreenlandic" unicode="&#x138;" 
d="M187 0h-90v550h90v-227h94l160 227h103l-185 -262l188 -288h-105l-160 245h-95v-245z" />
    <glyph glyph-name="Lacute" unicode="&#x139;" 
d="M535 0h-420v730h90v-648h330v-82zM190 810h-90l115 135h100z" />
    <glyph glyph-name="lacute" unicode="&#x13a;" 
d="M365 0q-73 0 -116.5 42.5t-43.5 112.5v493h-165v82h255v-575q0 -34 19 -53.5t51 -19.5h185v-82h-185zM295 805h-90l115 140h100z" />
    <glyph glyph-name="uni013B" unicode="&#x13b;" 
d="M535 0h-420v730h90v-648h330v-82zM285 -240h-95l95 146h105z" />
    <glyph glyph-name="uni013C" unicode="&#x13c;" 
d="M365 0q-73 0 -116.5 42.5t-43.5 112.5v493h-165v82h255v-575q0 -34 19 -53.5t51 -19.5h185v-82h-185zM285 -240h-95l95 146h105z" />
    <glyph glyph-name="Lcaron" unicode="&#x13d;" 
d="M535 0h-420v730h90v-648h330v-82zM380 590h-90l115 140h100z" />
    <glyph glyph-name="lcaron" unicode="&#x13e;" 
d="M365 0q-73 0 -116.5 42.5t-43.5 112.5v493h-165v82h255v-575q0 -34 19 -53.5t51 -19.5h185v-82h-185zM465 615h-90l115 140h100z" />
    <glyph glyph-name="Ldot" unicode="&#x13f;" 
d="M535 0h-420v730h90v-648h330v-82zM385 260q-32 0 -53.5 23t-21.5 57t21.5 57t53.5 23h20q32 0 53.5 -23t21.5 -57t-21.5 -57t-53.5 -23h-20z" />
    <glyph glyph-name="ldot" unicode="&#x140;" 
d="M345 0q-73 0 -116.5 42.5t-43.5 112.5v493h-165v82h255v-575q0 -34 19 -53.5t51 -19.5h185v-82h-185zM450 260q-32 0 -53.5 23t-21.5 57t21.5 57t53.5 23h20q32 0 53.5 -23t21.5 -57t-21.5 -57t-53.5 -23h-20z" />
    <glyph glyph-name="Lslash" unicode="&#x141;" 
d="M205 355v-273h330v-82h-420v294l-95 -64v80l95 64v356h90v-295l185 125v-80z" />
    <glyph glyph-name="lslash" unicode="&#x142;" 
d="M550 82v-82h-185q-73 0 -116.5 42.5t-43.5 112.5v146l-105 -71v80l105 71v267h-165v82h255v-288l175 118v-80l-175 -118v-207q0 -34 19 -53.5t51 -19.5h185z" />
    <glyph glyph-name="Nacute" unicode="&#x143;" 
d="M90 0v730h120l223 -625q-10 120 -10 215v410h87v-730h-120l-222 625q9 -120 9 -215v-410h-87zM330 810h-90l115 135h100z" />
    <glyph glyph-name="nacute" unicode="&#x144;" 
d="M461 508.5q49 -51.5 49 -138.5v-370h-90v360q0 58 -31.5 91t-85.5 33q-57 0 -89 -35.5t-32 -98.5v-350h-90v550h90v-105h1q7 55 45 85t101 30q83 0 132 -51.5zM330 645h-90l115 140h100z" />
    <glyph glyph-name="uni0145" unicode="&#x145;" 
d="M90 0v730h120l223 -625q-10 120 -10 215v410h87v-730h-120l-222 625q9 -120 9 -215v-410h-87zM285 -240h-95l95 146h105z" />
    <glyph glyph-name="uni0146" unicode="&#x146;" 
d="M461 508.5q49 -51.5 49 -138.5v-370h-90v360q0 58 -31.5 91t-85.5 33q-57 0 -89 -35.5t-32 -98.5v-350h-90v550h90v-105h1q7 55 45 85t101 30q83 0 132 -51.5zM285 -240h-95l95 146h105z" />
    <glyph glyph-name="Ncaron" unicode="&#x147;" 
d="M90 0v730h120l223 -625q-10 120 -10 215v410h87v-730h-120l-222 625q9 -120 9 -215v-410h-87zM341 805h-82l-142 140h94l83 -78h10l83 78h96z" />
    <glyph glyph-name="ncaron" unicode="&#x148;" 
d="M461 508.5q49 -51.5 49 -138.5v-370h-90v360q0 58 -31.5 91t-85.5 33q-57 0 -89 -35.5t-32 -98.5v-350h-90v550h90v-105h1q7 55 45 85t101 30q83 0 132 -51.5zM341 645h-82l-142 140h94l83 -78h10l83 78h96z" />
    <glyph glyph-name="napostrophe" unicode="&#x149;" 
d="M461 508.5q49 -51.5 49 -138.5v-370h-90v360q0 58 -31.5 91t-85.5 33q-57 0 -89 -35.5t-32 -98.5v-350h-90v550h90v-105h1q7 55 45 85t101 30q83 0 132 -51.5zM95 645h-95l95 146h105z" />
    <glyph glyph-name="Eng" unicode="&#x14a;" 
d="M240 -180v82h65q53 0 84 30.5t31 82.5l-252 610q9 -120 9 -215v-410h-87v730h120l223 -549q-10 121 -10 216v333h87v-715q0 -88 -56 -141.5t-149 -53.5h-65z" />
    <glyph glyph-name="eng" unicode="&#x14b;" 
d="M460 509q48 -51 48 -139v-355q0 -88 -56 -141.5t-149 -53.5h-63v82h63q53 0 84 30.5t31 82.5v345q0 58 -30.5 91t-84.5 33q-56 0 -87.5 -35t-31.5 -99v-350h-90v550h90v-105h1q6 55 43.5 85t100.5 30q83 0 131 -51z" />
    <glyph glyph-name="Omacron" unicode="&#x14c;" 
d="M145 46q-57 56 -57 154v330q0 98 57 154t155 56t155 -56t57 -153v-331q0 -98 -57 -154t-155 -56t-155 56zM390.5 103.5q31.5 33.5 31.5 96.5v330q0 63 -31.5 96.5t-90.5 33.5t-90.5 -33.5t-31.5 -96.5v-330q0 -63 31.5 -96.5t90.5 -33.5t90.5 33.5zM430 820h-260v75h260
v-75z" />
    <glyph glyph-name="omacron" unicode="&#x14d;" 
d="M145 46q-57 56 -57 154v150q0 98 57 154t155 56t155 -56t57 -153v-151q0 -98 -57 -154t-155 -56t-155 56zM390.5 103.5q31.5 33.5 31.5 96.5v150q0 63 -31.5 96.5t-90.5 33.5t-90.5 -33.5t-31.5 -96.5v-150q0 -63 31.5 -96.5t90.5 -33.5t90.5 33.5zM430 665h-260v75h260
v-75z" />
    <glyph glyph-name="Obreve" unicode="&#x14e;" 
d="M145 46q-57 56 -57 154v330q0 98 57 154t155 56t155 -56t57 -153v-331q0 -98 -57 -154t-155 -56t-155 56zM390.5 103.5q31.5 33.5 31.5 96.5v330q0 63 -31.5 96.5t-90.5 33.5t-90.5 -33.5t-31.5 -96.5v-330q0 -63 31.5 -96.5t90.5 -33.5t90.5 33.5zM180.5 837
q-45.5 37 -45.5 98h71q0 -36 24.5 -56t68.5 -20q45 0 70 20t25 56h71q0 -61 -45.5 -98t-119.5 -37t-119.5 37z" />
    <glyph glyph-name="obreve" unicode="&#x14f;" 
d="M145 46q-57 56 -57 154v150q0 98 57 154t155 56t155 -56t57 -153v-151q0 -98 -57 -154t-155 -56t-155 56zM390.5 103.5q31.5 33.5 31.5 96.5v150q0 63 -31.5 96.5t-90.5 33.5t-90.5 -33.5t-31.5 -96.5v-150q0 -63 31.5 -96.5t90.5 -33.5t90.5 33.5zM180.5 680
q-45.5 40 -45.5 105h71q0 -40 25 -63t68 -23q44 0 69.5 23t25.5 63h71q0 -65 -45.5 -105t-119.5 -40t-119.5 40z" />
    <glyph glyph-name="Ohungarumlaut" unicode="&#x150;" 
d="M145 46q-57 56 -57 154v330q0 98 57 154t155 56t155 -56t57 -153v-331q0 -98 -57 -154t-155 -56t-155 56zM390.5 103.5q31.5 33.5 31.5 96.5v330q0 63 -31.5 96.5t-90.5 33.5t-90.5 -33.5t-31.5 -96.5v-330q0 -63 31.5 -96.5t90.5 -33.5t90.5 33.5zM245 810h-80l105 135
h90zM420 810h-80l105 135h90z" />
    <glyph glyph-name="ohungarumlaut" unicode="&#x151;" 
d="M145 46q-57 56 -57 154v150q0 98 57 154t155 56t155 -56t57 -153v-151q0 -98 -57 -154t-155 -56t-155 56zM390.5 103.5q31.5 33.5 31.5 96.5v150q0 63 -31.5 96.5t-90.5 33.5t-90.5 -33.5t-31.5 -96.5v-150q0 -63 31.5 -96.5t90.5 -33.5t90.5 33.5zM245 645h-80l105 140
h90zM420 645h-80l105 140h90z" />
    <glyph glyph-name="OE" unicode="&#x152;" 
d="M81.5 41q-41.5 51 -41.5 139v370q0 88 41.5 139t113.5 51q47 0 74.5 -26t35.5 -64h5v80h265v-82h-177v-230h152v-82h-152v-254h177v-82h-265v80h-5q-8 -38 -35.5 -64t-74.5 -26q-72 0 -113.5 51zM286 99.5q24 29.5 24 80.5v370q0 51 -24 80.5t-66 29.5t-66 -29.5
t-24 -80.5v-370q0 -51 24 -80.5t66 -29.5t66 29.5z" />
    <glyph glyph-name="oe" unicode="&#x153;" 
d="M74 33q-39 43 -39 117v250q0 74 39 117t106 43q54 0 83 -23.5t35 -56.5h4q6 33 35 56.5t83 23.5q67 0 106 -43t39 -117v-150h-222v-100q0 -38 18 -60.5t49 -22.5q26 0 44.5 16t22.5 42h85q-10 -62 -48 -98.5t-94 -36.5q-54 0 -83 23.5t-35 56.5h-4q-6 -33 -35 -56.5
t-83 -23.5q-67 0 -106 43zM239 89.5q18 22.5 18 60.5v250q0 38 -18 60.5t-49 22.5q-32 0 -51 -22.5t-19 -60.5v-250q0 -38 19 -60.5t51 -22.5q31 0 49 22.5zM343 323h137v77q0 38 -19 60.5t-51 22.5q-31 0 -49 -22.5t-18 -60.5v-77z" />
    <glyph glyph-name="Racute" unicode="&#x154;" 
d="M92 0v730h226q64 0 113.5 -26.5t76.5 -74t27 -109.5q0 -74 -38.5 -127t-104.5 -73l153 -320h-106l-140 310h-117v-310h-90zM318 390q56 0 90 35.5t34 94.5q0 58 -34 94t-90 36h-136v-260h136zM330 810h-90l115 135h100z" />
    <glyph glyph-name="racute" unicode="&#x155;" 
d="M482.5 505.5q51.5 -54.5 51.5 -147.5v-33h-90v25q0 64 -31.5 99t-89.5 35q-57 0 -89.5 -35.5t-32.5 -98.5v-350h-90v550h88v-98q27 108 145 108q87 0 138.5 -54.5zM330 645h-90l115 140h100z" />
    <glyph glyph-name="uni0156" unicode="&#x156;" 
d="M92 0v730h226q64 0 113.5 -26.5t76.5 -74t27 -109.5q0 -74 -38.5 -127t-104.5 -73l153 -320h-106l-140 310h-117v-310h-90zM318 390q56 0 90 35.5t34 94.5q0 58 -34 94t-90 36h-136v-260h136zM285 -240h-95l95 146h105z" />
    <glyph glyph-name="uni0157" unicode="&#x157;" 
d="M482.5 505.5q51.5 -54.5 51.5 -147.5v-33h-90v25q0 64 -31.5 99t-89.5 35q-57 0 -89.5 -35.5t-32.5 -98.5v-350h-90v550h88v-98q27 108 145 108q87 0 138.5 -54.5zM135 -240h-95l95 146h105z" />
    <glyph glyph-name="Rcaron" unicode="&#x158;" 
d="M92 0v730h226q64 0 113.5 -26.5t76.5 -74t27 -109.5q0 -74 -38.5 -127t-104.5 -73l153 -320h-106l-140 310h-117v-310h-90zM318 390q56 0 90 35.5t34 94.5q0 58 -34 94t-90 36h-136v-260h136zM341 805h-82l-142 140h94l83 -78h10l83 78h96z" />
    <glyph glyph-name="rcaron" unicode="&#x159;" 
d="M482.5 505.5q51.5 -54.5 51.5 -147.5v-33h-90v25q0 64 -31.5 99t-89.5 35q-57 0 -89.5 -35.5t-32.5 -98.5v-350h-90v550h88v-98q27 108 145 108q87 0 138.5 -54.5zM341 645h-82l-142 140h94l83 -78h10l83 78h96z" />
    <glyph glyph-name="Sacute" unicode="&#x15a;" 
d="M135.5 43.5q-61.5 53.5 -63.5 146.5h90q0 -56 37.5 -88t104.5 -32q63 0 98.5 31.5t35.5 86.5q0 44 -24 77t-67 46l-99 31q-75 23 -115.5 76.5t-40.5 127.5q0 58 26.5 102t75 68.5t112.5 24.5q96 0 153.5 -53.5t59.5 -142.5h-90q0 54 -32.5 85t-91.5 31q-58 0 -90.5 -28.5
t-32.5 -78.5q0 -45 24 -78t69 -47l100 -32q73 -23 113 -78t40 -129q0 -59 -28 -104.5t-79 -70.5t-117 -25q-107 0 -168.5 53.5zM330 810h-90l115 135h100z" />
    <glyph glyph-name="sacute" unicode="&#x15b;" 
d="M278 -10q-84 0 -134.5 39t-58.5 106h90q6 -30 33 -47.5t70 -17.5h42q52 0 78.5 22t26.5 59q0 68 -93 83l-74 12q-82 13 -121 50.5t-39 106.5q0 75 48 116t140 41h38q78 0 126.5 -37.5t58.5 -101.5h-90q-6 27 -31 43t-64 16h-38q-98 0 -98 -78q0 -33 19.5 -49.5
t63.5 -23.5l74 -12q89 -14 129.5 -52t40.5 -110q0 -78 -49.5 -121.5t-145.5 -43.5h-42zM330 645h-90l115 140h100z" />
    <glyph glyph-name="Scircumflex" unicode="&#x15c;" 
d="M135.5 43.5q-61.5 53.5 -63.5 146.5h90q0 -56 37.5 -88t104.5 -32q63 0 98.5 31.5t35.5 86.5q0 44 -24 77t-67 46l-99 31q-75 23 -115.5 76.5t-40.5 127.5q0 58 26.5 102t75 68.5t112.5 24.5q96 0 153.5 -53.5t59.5 -142.5h-90q0 54 -32.5 85t-91.5 31q-58 0 -90.5 -28.5
t-32.5 -78.5q0 -45 24 -78t69 -47l100 -32q73 -23 113 -78t40 -129q0 -59 -28 -104.5t-79 -70.5t-117 -25q-107 0 -168.5 53.5zM213 805h-96l142 140h82l142 -140h-94l-83 78h-10z" />
    <glyph glyph-name="scircumflex" unicode="&#x15d;" 
d="M278 -10q-84 0 -134.5 39t-58.5 106h90q6 -30 33 -47.5t70 -17.5h42q52 0 78.5 22t26.5 59q0 68 -93 83l-74 12q-82 13 -121 50.5t-39 106.5q0 75 48 116t140 41h38q78 0 126.5 -37.5t58.5 -101.5h-90q-6 27 -31 43t-64 16h-38q-98 0 -98 -78q0 -33 19.5 -49.5
t63.5 -23.5l74 -12q89 -14 129.5 -52t40.5 -110q0 -78 -49.5 -121.5t-145.5 -43.5h-42zM219 645h-102l143 140h82l141 -140h-105l-75 75h-6z" />
    <glyph glyph-name="Scedilla" unicode="&#x15e;" 
d="M299 -10l-9 -25q50 -7 85 -28.5t35 -56.5t-33.5 -59t-86.5 -24h-85v55h70q21 0 35 11t14 25q0 18 -28.5 30.5t-76.5 12.5l24 64q-80 14 -124.5 65t-46.5 130h90q0 -56 37.5 -88t104.5 -32q63 0 98.5 31.5t35.5 86.5q0 44 -24 77t-67 46l-99 31q-75 23 -115.5 76.5
t-40.5 127.5q0 58 26.5 102t75 68.5t112.5 24.5q96 0 153.5 -53.5t59.5 -142.5h-90q0 54 -32.5 85t-91.5 31q-58 0 -90.5 -28.5t-32.5 -78.5q0 -45 24 -78t69 -47l100 -32q73 -23 113 -78t40 -129q0 -59 -28 -104.5t-79 -70.5t-117 -25h-5z" />
    <glyph glyph-name="scedilla" unicode="&#x15f;" 
d="M299 -10l-9 -25q50 -7 85 -28.5t35 -56.5t-33.5 -59t-86.5 -24h-85v55h70q21 0 35 11t14 25q0 18 -28.5 30.5t-76.5 12.5l23 61q-68 8 -109 46t-48 97h90q6 -30 33 -47.5t70 -17.5h42q52 0 78.5 22t26.5 59q0 68 -93 83l-74 12q-82 13 -121 50.5t-39 106.5q0 75 48 116
t140 41h38q78 0 126.5 -37.5t58.5 -101.5h-90q-6 27 -31 43t-64 16h-38q-98 0 -98 -78q0 -33 19.5 -49.5t63.5 -23.5l74 -12q89 -14 129.5 -52t40.5 -110q0 -78 -49.5 -121.5t-145.5 -43.5h-21z" />
    <glyph glyph-name="Scaron" unicode="&#x160;" 
d="M135.5 43.5q-61.5 53.5 -63.5 146.5h90q0 -56 37.5 -88t104.5 -32q63 0 98.5 31.5t35.5 86.5q0 44 -24 77t-67 46l-99 31q-75 23 -115.5 76.5t-40.5 127.5q0 58 26.5 102t75 68.5t112.5 24.5q96 0 153.5 -53.5t59.5 -142.5h-90q0 54 -32.5 85t-91.5 31q-58 0 -90.5 -28.5
t-32.5 -78.5q0 -45 24 -78t69 -47l100 -32q73 -23 113 -78t40 -129q0 -59 -28 -104.5t-79 -70.5t-117 -25q-107 0 -168.5 53.5zM341 805h-82l-142 140h94l83 -78h10l83 78h96z" />
    <glyph glyph-name="scaron" unicode="&#x161;" 
d="M278 -10q-84 0 -134.5 39t-58.5 106h90q6 -30 33 -47.5t70 -17.5h42q52 0 78.5 22t26.5 59q0 68 -93 83l-74 12q-82 13 -121 50.5t-39 106.5q0 75 48 116t140 41h38q78 0 126.5 -37.5t58.5 -101.5h-90q-6 27 -31 43t-64 16h-38q-98 0 -98 -78q0 -33 19.5 -49.5
t63.5 -23.5l74 -12q89 -14 129.5 -52t40.5 -110q0 -78 -49.5 -121.5t-145.5 -43.5h-42zM341 645h-82l-142 140h94l83 -78h10l83 78h96z" />
    <glyph glyph-name="uni0162" unicode="&#x162;" 
d="M345 0h-23l-12 -35q50 -7 85 -28.5t35 -56.5t-33.5 -59t-86.5 -24h-85v55h70q21 0 35 11t14 25q0 18 -28.5 30.5t-76.5 12.5l25 69h-9v649h-200v82h490v-82h-200v-649z" />
    <glyph glyph-name="uni0163" unicode="&#x163;" 
d="M520 468h-220v-323q0 -32 14.5 -47.5t45.5 -15.5h150v-82h-150h-8l-12 -35q50 -7 85 -28.5t35 -56.5t-33.5 -59t-86.5 -24h-85v55h70q21 0 35 11t14 25q0 18 -28.5 30.5t-76.5 12.5l29 78q-43 14 -65.5 49t-22.5 87v323h-155v82h155v150h90v-150h220v-82z" />
    <glyph glyph-name="Tcaron" unicode="&#x164;" 
d="M345 0h-90v649h-200v82h490v-82h-200v-649zM341 805h-82l-142 140h94l83 -78h10l83 78h96z" />
    <glyph glyph-name="tcaron" unicode="&#x165;" 
d="M452 620h-80l90 156h90zM360 0q-71 0 -110.5 38t-39.5 107v323h-155v82h155v150h90v-150h220v-82h-220v-323q0 -32 14.5 -47.5t45.5 -15.5h150v-82h-150z" />
    <glyph glyph-name="Tbar" unicode="&#x166;" 
d="M545 731v-82h-200v-279h145v-75h-145v-295h-90v295h-145v75h145v279h-200v82h490z" />
    <glyph glyph-name="tbar" unicode="&#x167;" 
d="M520 468h-220v-154h175v-75h-175v-94q0 -32 14.5 -47.5t45.5 -15.5h150v-82h-150q-71 0 -110.5 38t-39.5 107v94h-125v75h125v154h-155v82h155v150h90v-150h220v-82z" />
    <glyph glyph-name="Utilde" unicode="&#x168;" 
d="M144.5 45.5q-54.5 55.5 -54.5 154.5v530h90v-530q0 -61 30.5 -95.5t89.5 -34.5t89.5 34.5t30.5 95.5v530h90v-530q0 -99 -54 -154.5t-156 -55.5q-101 0 -155.5 55.5zM321 811q-19 11 -39 31q-15 15 -24.5 21.5t-22.5 6.5q-14 0 -22 -9t-8 -26v-30h-65v30q0 44 24.5 69.5
t65.5 25.5q30 0 49 -11t39 -31q15 -15 24.5 -21.5t22.5 -6.5q14 0 22 9t8 26v30h65v-30q0 -44 -24.5 -69.5t-65.5 -25.5q-30 0 -49 11z" />
    <glyph glyph-name="utilde" unicode="&#x169;" 
d="M147 47q-57 57 -57 153v350h90v-350q0 -62 31.5 -96.5t87.5 -34.5q57 0 89 34.5t32 96.5v350h90v-350q0 -96 -57.5 -153t-153.5 -57q-95 0 -152 57zM321 661q-19 11 -39 31q-14 14 -24 21t-23 7q-14 0 -22 -9t-8 -26v-30h-65v30q0 44 24.5 69.5t65.5 25.5q30 0 49 -11
t39 -31q14 -14 24 -21t23 -7q14 0 22 9t8 26v30h65v-30q0 -44 -24.5 -69.5t-65.5 -25.5q-30 0 -49 11z" />
    <glyph glyph-name="Umacron" unicode="&#x16a;" 
d="M144.5 45.5q-54.5 55.5 -54.5 154.5v530h90v-530q0 -61 30.5 -95.5t89.5 -34.5t89.5 34.5t30.5 95.5v530h90v-530q0 -99 -54 -154.5t-156 -55.5q-101 0 -155.5 55.5zM430 820h-260v75h260v-75z" />
    <glyph glyph-name="umacron" unicode="&#x16b;" 
d="M147 47q-57 57 -57 153v350h90v-350q0 -62 31.5 -96.5t87.5 -34.5q57 0 89 34.5t32 96.5v350h90v-350q0 -96 -57.5 -153t-153.5 -57q-95 0 -152 57zM430 665h-260v75h260v-75z" />
    <glyph glyph-name="Ubreve" unicode="&#x16c;" 
d="M144.5 45.5q-54.5 55.5 -54.5 154.5v530h90v-530q0 -61 30.5 -95.5t89.5 -34.5t89.5 34.5t30.5 95.5v530h90v-530q0 -99 -54 -154.5t-156 -55.5q-101 0 -155.5 55.5zM180.5 837q-45.5 37 -45.5 98h71q0 -36 24.5 -56t68.5 -20q45 0 70 20t25 56h71q0 -61 -45.5 -98
t-119.5 -37t-119.5 37z" />
    <glyph glyph-name="ubreve" unicode="&#x16d;" 
d="M147 47q-57 57 -57 153v350h90v-350q0 -62 31.5 -96.5t87.5 -34.5q57 0 89 34.5t32 96.5v350h90v-350q0 -96 -57.5 -153t-153.5 -57q-95 0 -152 57zM180.5 680q-45.5 40 -45.5 105h71q0 -40 25 -63t68 -23q44 0 69.5 23t25.5 63h71q0 -65 -45.5 -105t-119.5 -40
t-119.5 40z" />
    <glyph glyph-name="Uring" unicode="&#x16e;" 
d="M144.5 45.5q-54.5 55.5 -54.5 154.5v530h90v-530q0 -61 30.5 -95.5t89.5 -34.5t89.5 34.5t30.5 95.5v530h90v-530q0 -99 -54 -154.5t-156 -55.5q-101 0 -155.5 55.5zM213 772.5q-33 27.5 -33 72.5t33 72.5t87 27.5t87 -27.5t33 -72.5t-33 -72.5t-87 -27.5t-87 27.5z
M344 809q16 13 16 36q0 24 -16 37t-45 13q-28 0 -43.5 -13t-15.5 -37t15 -36.5t44 -12.5t45 13z" />
    <glyph glyph-name="uring" unicode="&#x16f;" 
d="M147 47q-57 57 -57 153v350h90v-350q0 -62 31.5 -96.5t87.5 -34.5q57 0 89 34.5t32 96.5v350h90v-350q0 -96 -57.5 -153t-153.5 -57q-95 0 -152 57zM213 632.5q-33 27.5 -33 72.5t33 72.5t87 27.5t87 -27.5t33 -72.5t-33 -72.5t-87 -27.5t-87 27.5zM343.5 669.5
q16.5 13.5 16.5 35.5q0 25 -16 37.5t-45 12.5q-26 0 -42.5 -14t-16.5 -36t16.5 -35.5t42.5 -13.5q28 0 44.5 13.5z" />
    <glyph glyph-name="Uhungarumlaut" unicode="&#x170;" 
d="M144.5 45.5q-54.5 55.5 -54.5 154.5v530h90v-530q0 -61 30.5 -95.5t89.5 -34.5t89.5 34.5t30.5 95.5v530h90v-530q0 -99 -54 -154.5t-156 -55.5q-101 0 -155.5 55.5zM245 810h-80l105 135h90zM420 810h-80l105 135h90z" />
    <glyph glyph-name="uhungarumlaut" unicode="&#x171;" 
d="M147 47q-57 57 -57 153v350h90v-350q0 -62 31.5 -96.5t87.5 -34.5q57 0 89 34.5t32 96.5v350h90v-350q0 -96 -57.5 -153t-153.5 -57q-95 0 -152 57zM245 645h-80l105 140h90zM420 645h-80l105 140h90z" />
    <glyph glyph-name="Uogonek" unicode="&#x172;" 
d="M420 730h90v-530q0 -75 -31.5 -126t-92.5 -71l-2 -2q-33 -27 -48.5 -50t-15.5 -44q0 -22 15 -36t40 -14h60v-60h-78q-55 0 -88.5 26t-33.5 67q0 51 59 100q-98 1 -151 57t-53 153v530h90v-530q0 -61 30.5 -95.5t89.5 -34.5t89.5 34.5t30.5 95.5v530z" />
    <glyph glyph-name="uogonek" unicode="&#x173;" 
d="M420 550h90v-350q0 -78 -38.5 -131t-105.5 -71q-61 -50 -61 -91q0 -22 15 -36t40 -14h60v-60h-78q-55 0 -88.5 26t-33.5 67q0 52 59 101q-87 6 -138 62t-51 147v350h90v-350q0 -62 31.5 -96.5t87.5 -34.5q57 0 89 34.5t32 96.5v350z" />
    <glyph glyph-name="Wcircumflex" unicode="&#x174;" 
d="M109 0l-84 730h86l55 -540q6 -57 9 -125q6 68 13 125l68 540h93l62 -540l14 -125q5 68 11 125l57 540h82l-86 -730h-113l-62 550l-12 117l-13 -117l-67 -550h-113zM213 805h-96l142 140h82l142 -140h-94l-83 78h-10z" />
    <glyph glyph-name="wcircumflex" unicode="&#x175;" 
d="M123 0l-88 550h80l55 -390l12 -90l14 90l61 390h86l61 -390l14 -90l14 90l57 390h76l-92 -550h-99l-59 380l-16 100l-15 -100l-62 -380h-99zM219 645h-102l143 140h82l141 -140h-105l-75 75h-6z" />
    <glyph glyph-name="Ycircumflex" unicode="&#x176;" 
d="M255 0v273l-220 457h93l145 -300q20 -43 28 -68q8 25 29 68l142 300h93l-220 -457v-273h-90zM213 805h-96l142 140h82l142 -140h-94l-83 78h-10z" />
    <glyph glyph-name="ycircumflex" unicode="&#x177;" 
d="M181 -180l81 214l-202 516h100l123 -340q10 -29 23 -80q12 51 22 80l115 340h97l-263 -730h-96zM219 645h-102l143 140h82l141 -140h-105l-75 75h-6z" />
    <glyph glyph-name="Ydieresis" unicode="&#x178;" 
d="M255 0v273l-220 457h93l145 -300q20 -43 28 -68q8 25 29 68l142 300h93l-220 -457v-273h-90zM151 822q-17 17 -17 43t17 43t43 17t43 -17t17 -43t-17 -43t-43 -17t-43 17zM363 822q-17 17 -17 43t17 43t43 17t43 -17t17 -43t-17 -43t-43 -17t-43 17z" />
    <glyph glyph-name="Zacute" unicode="&#x179;" 
d="M515 0h-430v90l329 559l-324 -1v82h415v-90l-329 -558h339v-82zM330 810h-90l115 135h100z" />
    <glyph glyph-name="zacute" unicode="&#x17a;" 
d="M510 0h-420v90l308 378h-300v82h401v-90l-314 -378h325v-82zM330 645h-90l115 140h100z" />
    <glyph glyph-name="Zdotaccent" unicode="&#x17b;" 
d="M515 0h-430v90l329 559l-324 -1v82h415v-90l-329 -558h339v-82zM290 800q-29 0 -47 16.5t-18 42.5q0 27 18 44t47 17h20q29 0 47 -17t18 -44q0 -26 -18 -42.5t-47 -16.5h-20z" />
    <glyph glyph-name="zdotaccent" unicode="&#x17c;" 
d="M510 0h-420v90l308 378h-300v82h401v-90l-314 -378h325v-82zM290 641q-29 0 -47 16.5t-18 42.5q0 27 18 44t47 17h20q29 0 47 -17t18 -44q0 -26 -18 -42.5t-47 -16.5h-20z" />
    <glyph glyph-name="Zcaron" unicode="&#x17d;" 
d="M515 0h-430v90l329 559l-324 -1v82h415v-90l-329 -558h339v-82zM341 805h-82l-142 140h94l83 -78h10l83 78h96z" />
    <glyph glyph-name="zcaron" unicode="&#x17e;" 
d="M510 0h-420v90l308 378h-300v82h401v-90l-314 -378h325v-82zM341 645h-82l-142 140h94l83 -78h10l83 78h96z" />
    <glyph glyph-name="longs" unicode="&#x17f;" 
d="M165 571q0 71 46.5 115t122.5 44h176v-80h-176q-35 0 -57 -22t-22 -58v-570h-90v571z" />
    <glyph glyph-name="uni018F" unicode="&#x18f;" 
d="M454.5 684.5q55.5 -55.5 55.5 -154.5v-330q0 -96 -56.5 -153t-153.5 -57t-153.5 57t-56.5 153v200h330v131q0 62 -30.5 95.5t-89.5 33.5q-58 0 -89 -33.5t-31 -96.5h-90q0 97 56 153.5t154 56.5q99 0 154.5 -55.5zM420 330h-240v-130q0 -135 120 -135t120 135v130z" />
    <glyph glyph-name="florin" unicode="&#x192;" 
d="M0 -180v82h105q53 0 84 30.5t31 82.5v398h-160v82h160v96q0 66 40.5 102.5t113.5 36.5h161v-80h-161q-64 0 -64 -60v-95h225v-82h-225v-398q0 -88 -56 -141.5t-149 -53.5h-105z" />
    <glyph glyph-name="Ohorn" unicode="&#x1a0;" 
d="M487 840h75v-105q0 -37 -19 -64t-53 -39q20 -43 20 -101v-331q0 -98 -56 -154t-154 -56t-154 56t-56 154v330q0 98 56 154t154 56q92 0 147 -49q19 2 29.5 15t10.5 34v100zM420 530q0 64 -30.5 97t-89.5 33t-89.5 -33t-30.5 -97v-330q0 -64 30.5 -97t89.5 -33t89.5 33
t30.5 97v330z" />
    <glyph glyph-name="ohorn" unicode="&#x1a1;" 
d="M476 660h75v-96q0 -35 -18 -61t-50 -37q27 -46 27 -115v-151q0 -98 -56 -154t-154 -56t-154 56t-56 154v150q0 98 56 154t154 56q77 0 130 -36h1q20 0 32.5 12t12.5 33v91zM420 350q0 64 -30.5 97t-89.5 33t-89.5 -33t-30.5 -97v-150q0 -64 30.5 -97t89.5 -33t89.5 33
t30.5 97v150z" />
    <glyph glyph-name="Uhorn" unicode="&#x1af;" 
d="M530 840h75v-80q0 -40 -26 -66t-69 -29v-465q0 -99 -54 -154.5t-156 -55.5q-101 0 -155.5 55.5t-54.5 154.5v530h90v-530q0 -61 30.5 -95.5t89.5 -34.5t89.5 34.5t30.5 95.5v530h75q35 0 35 35v75z" />
    <glyph glyph-name="uhorn" unicode="&#x1b0;" 
d="M525 660h75v-80q0 -39 -24.5 -64.5t-65.5 -29.5v-286q0 -96 -57.5 -153t-153.5 -57q-95 0 -152 57t-57 153v350h90v-350q0 -62 31.5 -96.5t87.5 -34.5q57 0 89 34.5t32 96.5v350h70q35 0 35 35v75z" />
    <glyph glyph-name="Gcaron" unicode="&#x1e6;" 
d="M146 46q-58 56 -58 154v330q0 98 58 154t158 56q98 0 156 -56.5t58 -153.5h-90q0 62 -32.5 96t-91.5 34t-92.5 -34t-33.5 -95v-331q0 -62 33 -96t93 -34q59 0 91.5 34t32.5 96v90h-148v80h238v-170q0 -97 -58 -153.5t-156 -56.5q-100 0 -158 56zM341 805h-82l-142 140h94
l83 -78h10l83 78h96z" />
    <glyph glyph-name="gcaron" unicode="&#x1e7;" 
d="M420 550h87v-570q0 -75 -45.5 -117.5t-126.5 -42.5h-174v82h175q42 0 61.5 19t19.5 59v70l3 70h-13q-13 -41 -49 -63t-90 -22q-83 0 -131.5 55t-48.5 150v116q0 94 48.5 149t131.5 55q54 0 90 -22t49 -63h13v75zM418 350q0 62 -32 97t-88 35q-57 0 -88.5 -34.5
t-31.5 -97.5v-105q0 -63 31.5 -97.5t88.5 -34.5q56 0 88 35t32 97v105zM341 645h-82l-142 140h94l83 -78h10l83 78h96z" />
    <glyph glyph-name="uni01EA" unicode="&#x1ea;" 
d="M455 684q57 -56 57 -153v-331q0 -73 -32.5 -124t-91.5 -72l-4 -3q-33 -27 -48.5 -50t-15.5 -44q0 -22 15 -36t40 -14h60v-60h-78q-55 0 -88.5 26t-33.5 67q0 51 59 100q-96 2 -151 58t-55 152v330q0 98 57 154t155 56t155 -56zM422 530q0 63 -31.5 96.5t-90.5 33.5
t-90.5 -33.5t-31.5 -96.5v-330q0 -63 31.5 -96.5t90.5 -33.5t90.5 33.5t31.5 96.5v330z" />
    <glyph glyph-name="uni01EB" unicode="&#x1eb;" 
d="M455 504q57 -56 57 -153v-151q0 -73 -32.5 -124t-91.5 -72l-4 -3q-33 -27 -48.5 -50t-15.5 -44q0 -22 15 -36t40 -14h60v-60h-78q-55 0 -88.5 26t-33.5 67q0 51 59 100q-96 2 -151 58t-55 152v150q0 98 57 154t155 56t155 -56zM422 350q0 63 -31.5 96.5t-90.5 33.5
t-90.5 -33.5t-31.5 -96.5v-150q0 -63 31.5 -96.5t90.5 -33.5t90.5 33.5t31.5 96.5v150z" />
    <glyph glyph-name="uni01F4" unicode="&#x1f4;" 
d="M146 46q-58 56 -58 154v330q0 98 58 154t158 56q98 0 156 -56.5t58 -153.5h-90q0 62 -32.5 96t-91.5 34t-92.5 -34t-33.5 -95v-331q0 -62 33 -96t93 -34q59 0 91.5 34t32.5 96v90h-148v80h238v-170q0 -97 -58 -153.5t-156 -56.5q-100 0 -158 56zM330 810h-90l115 135h100
z" />
    <glyph glyph-name="uni01F5" unicode="&#x1f5;" 
d="M420 550h87v-570q0 -75 -45.5 -117.5t-126.5 -42.5h-174v82h175q42 0 61.5 19t19.5 59v70l3 70h-13q-13 -41 -49 -63t-90 -22q-83 0 -131.5 55t-48.5 150v116q0 94 48.5 149t131.5 55q54 0 90 -22t49 -63h13v75zM418 350q0 62 -32 97t-88 35q-57 0 -88.5 -34.5
t-31.5 -97.5v-105q0 -63 31.5 -97.5t88.5 -34.5q56 0 88 35t32 97v105zM330 645h-90l115 140h100z" />
    <glyph glyph-name="AEacute" unicode="&#x1fc;" 
d="M121 0h-91l145 730h395v-82h-182v-228h157v-82h-157v-256h182v-82h-268v203h-141zM246 648l-71 -370h127v370h-56zM330 810h-90l115 135h100z" />
    <glyph glyph-name="aeacute" unicode="&#x1fd;" 
d="M71.5 27.5q-36.5 37.5 -36.5 102.5v60q0 62 41.5 98.5t111.5 36.5h74v74q0 43 -16 63.5t-51 20.5q-28 0 -45.5 -17t-17.5 -46h-85q0 63 36.5 101.5t96.5 38.5q53 0 83 -23.5t38 -56.5h4q8 33 36.5 56.5t78.5 23.5q67 0 106 -43t39 -117v-145h-222v-105q0 -37 18.5 -60
t48.5 -23q32 0 51 17t19 46h85q0 -63 -40 -101.5t-105 -38.5q-51 0 -79.5 23.5t-35.5 56.5h-4q-8 -33 -41 -56.5t-90 -23.5q-62 0 -98.5 37.5zM343 325h137v75q0 38 -18.5 60.5t-51.5 22.5q-31 0 -49 -22.5t-18 -60.5v-75zM242 90q20 23 20 60v105h-72q-31 0 -48 -17.5
t-17 -47.5v-60q0 -29 17.5 -46t47.5 -17q32 0 52 23zM330 645h-90l115 140h100z" />
    <glyph glyph-name="Oslashacute" unicode="&#x1fe;" 
d="M565 750l-70 -125q17 -42 17 -94v-331q0 -98 -57 -154t-155 -56q-85 0 -140 43l-41 -73h-84l76 134q-23 46 -23 106v330q0 98 57 154t155 56q93 0 148 -49l33 59h84zM178 213l224 398q-31 49 -102 49q-59 0 -90.5 -33.5t-31.5 -96.5v-317zM422 497l-218 -387
q31 -40 96 -40q59 0 90.5 33.5t31.5 96.5v297zM330 810h-90l115 135h100z" />
    <glyph glyph-name="oslashacute" unicode="&#x1ff;" 
d="M330 645h-90l115 140h100zM565 590l-84 -118q31 -51 31 -121v-151q0 -98 -57 -154t-155 -56q-81 0 -134 38l-41 -58h-90l81 114q-28 50 -28 116v150q0 98 57 154t155 56q75 0 128 -34l46 64h91zM178 200q0 -10 2 -26l200 283q-31 23 -80 23q-59 0 -90.5 -33.5
t-31.5 -96.5v-150zM422 350q0 19 -3 35l-203 -287q29 -28 84 -28q59 0 90.5 33.5t31.5 96.5v150z" />
    <glyph glyph-name="uni0218" unicode="&#x218;" 
d="M135.5 43.5q-61.5 53.5 -63.5 146.5h90q0 -56 37.5 -88t104.5 -32q63 0 98.5 31.5t35.5 86.5q0 44 -24 77t-67 46l-99 31q-75 23 -115.5 76.5t-40.5 127.5q0 58 26.5 102t75 68.5t112.5 24.5q96 0 153.5 -53.5t59.5 -142.5h-90q0 54 -32.5 85t-91.5 31q-58 0 -90.5 -28.5
t-32.5 -78.5q0 -45 24 -78t69 -47l100 -32q73 -23 113 -78t40 -129q0 -59 -28 -104.5t-79 -70.5t-117 -25q-107 0 -168.5 53.5zM285 -240h-95l95 146h105z" />
    <glyph glyph-name="uni0219" unicode="&#x219;" 
d="M278 -10q-84 0 -134.5 39t-58.5 106h90q6 -30 33 -47.5t70 -17.5h42q52 0 78.5 22t26.5 59q0 68 -93 83l-74 12q-82 13 -121 50.5t-39 106.5q0 75 48 116t140 41h38q78 0 126.5 -37.5t58.5 -101.5h-90q-6 27 -31 43t-64 16h-38q-98 0 -98 -78q0 -33 19.5 -49.5
t63.5 -23.5l74 -12q89 -14 129.5 -52t40.5 -110q0 -78 -49.5 -121.5t-145.5 -43.5h-42zM275 -240h-95l95 146h105z" />
    <glyph glyph-name="uni021A" unicode="&#x21a;" 
d="M345 0h-90v649h-200v82h490v-82h-200v-649zM250 -240h-95l95 146h105z" />
    <glyph glyph-name="uni021B" unicode="&#x21b;" 
d="M360 0q-71 0 -110.5 38t-39.5 107v323h-155v82h155v150h90v-150h220v-82h-220v-323q0 -32 14.5 -47.5t45.5 -15.5h150v-82h-150zM285 -240h-95l95 146h105z" />
    <glyph glyph-name="uni0237" unicode="&#x237;" 
d="M85 -180v83h129q62 0 96.5 33.5t34.5 94.5v437h-230v82h320v-519q0 -97 -60 -154t-161 -57h-129z" />
    <glyph glyph-name="uni0259" unicode="&#x259;" 
d="M453.5 503q56.5 -57 56.5 -153v-150q0 -96 -56.5 -153t-153.5 -57t-153.5 57t-56.5 153v97h332v53q0 66 -30.5 100t-91.5 34q-103 0 -118 -74h-90q9 69 65 109.5t143 40.5q97 0 153.5 -57zM422 229h-244v-29q0 -66 30.5 -100.5t91.5 -34.5t91.5 34.5t30.5 100.5v29z" />
    <glyph glyph-name="uni02B9" unicode="&#x2b9;" 
d="M245 410h-80l80 311h130z" />
    <glyph glyph-name="uni02BA" unicode="&#x2ba;" 
d="M135 409h-80l80 311h130zM410 409h-80l80 311h130z" />
    <glyph glyph-name="uni02BC" unicode="&#x2bc;" 
d="M245 465h-80l80 311h130z" />
    <glyph glyph-name="circumflex" unicode="&#x2c6;" 
d="M219 645h-102l143 140h82l141 -140h-105l-75 75h-6z" />
    <glyph glyph-name="caron" unicode="&#x2c7;" 
d="M341 645h-82l-142 140h94l83 -78h10l83 78h96z" />
    <glyph glyph-name="uni02C9" unicode="&#x2c9;" 
d="M430 665h-260v75h260v-75z" />
    <glyph glyph-name="breve" unicode="&#x2d8;" 
d="M180.5 680q-45.5 40 -45.5 105h71q0 -40 25 -63t68 -23q44 0 69.5 23t25.5 63h71q0 -65 -45.5 -105t-119.5 -40t-119.5 40z" />
    <glyph glyph-name="dotaccent" unicode="&#x2d9;" 
d="M280 641q-29 0 -47 16.5t-18 42.5q0 27 18 44t47 17h20q29 0 47 -17t18 -44q0 -26 -18 -42.5t-47 -16.5h-20z" />
    <glyph glyph-name="ring" unicode="&#x2da;" 
d="M213 632.5q-33 27.5 -33 72.5t33 72.5t87 27.5t87 -27.5t33 -72.5t-33 -72.5t-87 -27.5t-87 27.5zM343.5 669.5q16.5 13.5 16.5 35.5q0 25 -16 37.5t-45 12.5q-26 0 -42.5 -14t-16.5 -36t16.5 -35.5t42.5 -13.5q28 0 44.5 13.5z" />
    <glyph glyph-name="ogonek" unicode="&#x2db;" 
d="M307 -203q-55 0 -88.5 26t-33.5 67q0 30 20 59t65 61h75l-11 -9q-33 -27 -48.5 -50t-15.5 -44q0 -22 15 -36t40 -14h60v-60h-78z" />
    <glyph glyph-name="tilde" unicode="&#x2dc;" 
d="M321 661q-19 11 -39 31q-14 14 -24 21t-23 7q-14 0 -22 -9t-8 -26v-30h-65v30q0 44 24.5 69.5t65.5 25.5q30 0 49 -11t39 -31q14 -14 24 -21t23 -7q14 0 22 9t8 26v30h65v-30q0 -44 -24.5 -69.5t-65.5 -25.5q-30 0 -49 11z" />
    <glyph glyph-name="hungarumlaut" unicode="&#x2dd;" 
d="M245 645h-80l105 140h90zM420 645h-80l105 140h90z" />
    <glyph glyph-name="uni02F3" unicode="&#x2f3;" 
d="M213 -217.5q-33 27.5 -33 72.5t33 72.5t87 27.5t87 -27.5t33 -72.5t-33 -72.5t-87 -27.5t-87 27.5zM343.5 -180.5q16.5 13.5 16.5 35.5q0 25 -16 37.5t-45 12.5q-26 0 -42.5 -14t-16.5 -36t16.5 -35.5t42.5 -13.5q28 0 44.5 13.5z" />
    <glyph glyph-name="uni02F7" unicode="&#x2f7;" 
d="M321 -194q-19 11 -39 31q-15 15 -24.5 21.5t-22.5 6.5q-14 0 -22 -9t-8 -26v-30h-65v30q0 44 24.5 69.5t65.5 25.5q30 0 49 -11t39 -31q15 -15 24.5 -21.5t22.5 -6.5q14 0 22 9t8 26v30h65v-30q0 -44 -24.5 -69.5t-65.5 -25.5q-30 0 -49 11z" />
    <glyph glyph-name="hookabovecomb" unicode="&#x309;" horiz-adv-x="0" 
d="M-292 708q14 19 14 32q0 20 -32 20h-80v65h105q39 0 62 -20t23 -54q0 -15 -4.5 -29.5t-12.5 -24.5l-40 -52h-85z" />
    <glyph glyph-name="uni031B" unicode="&#x31b;" horiz-adv-x="0" 
d="M-120 485v65h20q35 0 35 35v75h75v-80q0 -43 -29 -69t-76 -26h-25z" />
    <glyph glyph-name="dotbelowcomb" unicode="&#x323;" horiz-adv-x="0" 
d="M-320 -205q-29 0 -47 16.5t-18 42.5q0 27 18 44t47 17h20q29 0 47 -17t18 -44q0 -26 -18 -42.5t-47 -16.5h-20z" />
    <glyph glyph-name="uni0325" unicode="&#x325;" horiz-adv-x="0" 
d="M-387 -217.5q-33 27.5 -33 72.5t33 72.5t87 27.5t87 -27.5t33 -72.5t-33 -72.5t-87 -27.5t-87 27.5zM-256.5 -180.5q16.5 13.5 16.5 35.5q0 25 -16 37.5t-45 12.5q-26 0 -42.5 -14t-16.5 -36t16.5 -35.5t42.5 -13.5q28 0 44.5 13.5z" />
    <glyph glyph-name="uni0326" unicode="&#x326;" horiz-adv-x="0" 
d="M-315 -240h-95l95 146h105z" />
    <glyph glyph-name="uni0336" unicode="&#x336;" horiz-adv-x="0" 
d="M30 290h-660v70h660v-70z" />
    <glyph glyph-name="uni0338" unicode="&#x338;" horiz-adv-x="0" 
d="M-417 -60h-63l297 840h63z" />
    <glyph glyph-name="uni0374" unicode="&#x374;" 
d="M245 410h-80l80 311h130z" />
    <glyph glyph-name="uni0394" unicode="&#x394;" 
d="M240 730h121l189 -730h-500zM162 80h277l-103 415q-22 90 -36 165q-14 -75 -36 -164z" />
    <glyph glyph-name="uni03A9" unicode="&#x3a9;" 
d="M50 0v80h145v5q-48 9 -81.5 49t-33.5 111v280q0 98 59.5 156.5t160.5 58.5t160.5 -58.5t59.5 -156.5v-280q0 -71 -33.5 -110.5t-81.5 -48.5v-6h146v-80h-211v110q40 0 65 36.5t25 93.5v285q0 62 -35.5 98.5t-94.5 36.5t-94.5 -36.5t-35.5 -98.5v-285q0 -57 25 -93.5
t65 -36.5v-110h-210z" />
    <glyph glyph-name="lambda" unicode="&#x3bb;" 
d="M50 0l215 541l-74 189h96l263 -730h-98l-115 357q-19 60 -27 110q-9 -50 -31 -110l-131 -357h-98z" />
    <glyph glyph-name="uni03BC" unicode="&#x3bc;" 
d="M93 -180v730h90v-356q0 -59 30.5 -92t85.5 -33q56 0 87 33t31 92v356h90v-356q0 -94 -53.5 -149t-144.5 -55q-62 0 -100 22.5t-51 54.5h-4q2 0 9 -29.5t8 -50.5l11 -167h-89z" />
    <glyph glyph-name="pi" unicode="&#x3c0;" 
d="M552 -5q-76 0 -121.5 48t-45.5 127v298h-195v-468h-90v469h-80v81h535v-78h-80v-308q0 -41 18.5 -63t53.5 -22h28v-84h-23z" />
    <glyph glyph-name="uni0401" unicode="&#x401;" 
d="M520 0h-420v730h420v-81h-331v-227h296v-81h-296v-260h331v-81zM151 822q-17 17 -17 43t17 43t43 17t43 -17t17 -43t-17 -43t-43 -17t-43 17zM363 822q-17 17 -17 43t17 43t43 17t43 -17t17 -43t-17 -43t-43 -17t-43 17z" />
    <glyph glyph-name="uni0402" unicode="&#x402;" 
d="M260 -180v82h70q53 0 84 30.5t31 82.5v281q0 60 -22.5 91.5t-64.5 31.5q-56 0 -114 -62l-44 -47v-310h-90v651h-110v79h320v-79h-120v-255l16 17q76 82 163 82q71 0 113.5 -48.5t42.5 -130.5v-301q0 -88 -56 -141.5t-149 -53.5h-70z" />
    <glyph glyph-name="uni0403" unicode="&#x403;" 
d="M200 0h-90v730h425v-82h-335v-648zM330 810h-90l115 135h100z" />
    <glyph glyph-name="uni0404" unicode="&#x404;" 
d="M394 104q32 34 32 96h90q0 -97 -57 -153.5t-155 -56.5q-100 0 -157 56t-57 154v330q0 98 57 154t157 56q98 0 155 -56.5t57 -153.5h-90q0 62 -32 96t-90 34q-59 0 -91.5 -33.5t-32.5 -95.5v-122h225v-82h-225v-127q0 -62 32.5 -96t91.5 -34q58 0 90 34z" />
    <glyph glyph-name="uni0405" unicode="&#x405;" 
d="M135.5 43.5q-61.5 53.5 -63.5 146.5h90q0 -56 37.5 -88t104.5 -32q63 0 98.5 31.5t35.5 86.5q0 44 -24 77t-67 46l-99 31q-75 23 -115.5 76.5t-40.5 127.5q0 58 26.5 102t75 68.5t112.5 24.5q96 0 153.5 -53.5t59.5 -142.5h-90q0 54 -32.5 85t-91.5 31q-58 0 -90.5 -28.5
t-32.5 -78.5q0 -45 24 -78t69 -47l100 -32q73 -23 113 -78t40 -129q0 -59 -28 -104.5t-79 -70.5t-117 -25q-107 0 -168.5 53.5z" />
    <glyph glyph-name="uni0406" unicode="&#x406;" 
d="M495 0h-390v81h149v568h-149v81h390v-81h-149v-568h149v-81z" />
    <glyph glyph-name="uni0407" unicode="&#x407;" 
d="M495 0h-390v81h149v568h-149v81h390v-81h-149v-568h149v-81zM151 822q-17 17 -17 43t17 43t43 17t43 -17t17 -43t-17 -43t-43 -17t-43 17zM363 822q-17 17 -17 43t17 43t43 17t43 -17t17 -43t-17 -43t-43 -17t-43 17z" />
    <glyph glyph-name="uni0408" unicode="&#x408;" 
d="M105 49q-60 59 -60 161h90q0 -67 35.5 -103.5t99.5 -36.5t99.5 36.5t35.5 103.5v438h-175v82h265v-520q0 -102 -60.5 -161t-164.5 -59q-105 0 -165 59z" />
    <glyph glyph-name="uni0409" unicode="&#x409;" 
d="M-5 -5v80h18q25 0 40 31.5t16 87.5l5 536h286v-300h60q72 0 116 -42.5t44 -112.5v-120q0 -70 -44 -112.5t-116 -42.5h-140v655h-127l-5 -461q-1 -92 -38 -145.5t-100 -53.5h-15zM420 75q36 0 58 22t22 58v120q0 36 -22 58t-58 22h-60v-280h60z" />
    <glyph glyph-name="uni040A" unicode="&#x40a;" 
d="M53 0v730h80v-300h147v300h80v-300h60q74 0 117 -42t43 -113v-120q0 -71 -43 -113t-117 -42h-140v355h-147v-355h-80zM420 75q38 0 59 21.5t21 58.5v120q0 38 -21 59t-59 21h-60v-280h60z" />
    <glyph glyph-name="uni040B" unicode="&#x40b;" 
d="M110 0v651h-110v79h320v-79h-120v-255l16 17q76 82 163 82q71 0 113.5 -48.5t42.5 -130.5v-316h-90v296q0 60 -22.5 91.5t-64.5 31.5q-56 0 -114 -62l-44 -47v-310h-90z" />
    <glyph glyph-name="uni040C" unicode="&#x40c;" 
d="M182 0h-90v730h90v-313h108l162 313h98l-181 -351l191 -379h-103l-170 338h-105v-338zM330 810h-90l115 135h100z" />
    <glyph glyph-name="uni040E" unicode="&#x40e;" 
d="M191 0l74 189l-215 541h98l131 -357q22 -60 31 -110q8 50 27 110l115 357h98l-263 -730h-96zM180.5 837q-45.5 37 -45.5 98h71q0 -36 24.5 -56t68.5 -20q45 0 70 20t25 56h71q0 -61 -45.5 -98t-119.5 -37t-119.5 37z" />
    <glyph glyph-name="uni040F" unicode="&#x40f;" 
d="M345 -125h-90v125h-161v730h90v-648h232v648h90v-730h-161v-125z" />
    <glyph glyph-name="uni0410" unicode="&#x410;" 
d="M142 0h-92l190 730h121l189 -730h-91l-48 194h-221zM208 270h184l-56 225q-27 110 -36 163q-9 -54 -36 -162z" />
    <glyph glyph-name="uni0411" unicode="&#x411;" 
d="M94 0v730h406v-82h-316v-220h121q104 0 164.5 -58t60.5 -156t-60.5 -156t-164.5 -58h-211zM305 82q62 0 97 35.5t35 96.5q0 62 -35 97t-97 35h-121v-264h121z" />
    <glyph glyph-name="uni0412" unicode="&#x412;" 
d="M496.5 321q33.5 -48 33.5 -118q0 -94 -57.5 -148.5t-157.5 -54.5h-222v730h207q100 0 156.5 -50t56.5 -139q0 -59 -29 -100t-81 -55q60 -17 93.5 -65zM181 649v-230h118q58 0 91.5 31t33.5 84t-33 84t-91 31h-119zM305 81q63 0 99.5 33.5t36.5 91.5q0 61 -37 98t-99 37
h-124v-260h124z" />
    <glyph glyph-name="uni0413" unicode="&#x413;" 
d="M200 0h-90v730h425v-82h-335v-648z" />
    <glyph glyph-name="uni0414" unicode="&#x414;" 
d="M25 -140v217h45q21 41 37 99.5t17 121.5l7 432h374v-653h70v-217h-80v140h-390v-140h-80zM415 77v573h-198l-5 -352q-1 -69 -15 -127t-33 -94h251z" />
    <glyph glyph-name="uni0415" unicode="&#x415;" 
d="M520 0h-420v730h420v-81h-331v-227h296v-81h-296v-260h331v-81z" />
    <glyph glyph-name="uni0416" unicode="&#x416;" 
d="M104 0h-92l132 376l-122 354h94l104 -324h42v324h76v-324h43l103 324h94l-120 -355l130 -375h-93l-112 342h-45v-342h-76v342h-45z" />
    <glyph glyph-name="uni0417" unicode="&#x417;" 
d="M497.5 325.5q34.5 -48.5 34.5 -119.5q0 -63 -30 -112t-84.5 -76.5t-127.5 -27.5q-103 0 -167 53t-70 142h90q6 -53 45.5 -84t101.5 -31q67 0 107 36t40 94q0 59 -40 94.5t-107 35.5h-90v82h89q60 0 97.5 37.5t37.5 93.5q0 55 -36.5 86t-98.5 31q-61 0 -98 -34.5
t-37 -90.5h-90q0 61 28 107.5t79 72t118 25.5q106 0 167.5 -48.5t61.5 -136.5q0 -60 -31 -104t-84 -60q60 -17 94.5 -65.5z" />
    <glyph glyph-name="uni0418" unicode="&#x418;" 
d="M90 0v730h87v-410q0 -95 -9 -215l222 625h120v-730h-87v410q0 95 10 215l-223 -625h-120z" />
    <glyph glyph-name="uni0419" unicode="&#x419;" 
d="M90 0v730h87v-410q0 -95 -9 -215l222 625h120v-730h-87v410q0 95 10 215l-223 -625h-120zM180.5 837q-45.5 37 -45.5 98h71q0 -36 24.5 -56t68.5 -20q45 0 70 20t25 56h71q0 -61 -45.5 -98t-119.5 -37t-119.5 37z" />
    <glyph glyph-name="uni041A" unicode="&#x41a;" 
d="M182 0h-90v730h90v-313h108l162 313h98l-181 -351l191 -379h-103l-170 338h-105v-338z" />
    <glyph glyph-name="uni041B" unicode="&#x41b;" 
d="M20 -5v84h18q44 0 63.5 39.5t20.5 135.5l6 476h378v-730h-90v648h-199l-5 -394q-2 -134 -42.5 -196.5t-126.5 -62.5h-23z" />
    <glyph glyph-name="uni041C" unicode="&#x41c;" 
d="M76 0v730h118l76 -236q18 -56 33 -112q14 56 31 113l72 235h118v-730h-88v265q0 83 9 197.5t22 222.5l-118 -365h-95l-119 365q12 -104 20.5 -218t8.5 -202v-265h-88z" />
    <glyph glyph-name="uni041D" unicode="&#x41d;" 
d="M183 0h-90v730h90v-312h234v312h90v-730h-90v336h-234v-336z" />
    <glyph glyph-name="uni041E" unicode="&#x41e;" 
d="M145 46q-57 56 -57 154v330q0 98 57 154t155 56t155 -56t57 -153v-331q0 -98 -57 -154t-155 -56t-155 56zM390.5 103.5q31.5 33.5 31.5 96.5v330q0 63 -31.5 96.5t-90.5 33.5t-90.5 -33.5t-31.5 -96.5v-330q0 -63 31.5 -96.5t90.5 -33.5t90.5 33.5z" />
    <glyph glyph-name="uni041F" unicode="&#x41f;" 
d="M184 0h-90v730h412v-730h-90v648h-232v-648z" />
    <glyph glyph-name="uni0420" unicode="&#x420;" 
d="M92 0v730h235q102 0 162.5 -58.5t60.5 -156.5t-60.5 -156.5t-162.5 -58.5h-145v-300h-90zM327 380q59 0 94.5 36.5t35.5 98.5t-35.5 98.5t-94.5 36.5h-145v-270h145z" />
    <glyph glyph-name="uni0421" unicode="&#x421;" 
d="M146 46q-58 56 -58 154v330q0 98 58 154t158 56q98 0 156 -56.5t58 -153.5h-90q0 62 -32.5 96t-91.5 34t-92.5 -34t-33.5 -95v-331q0 -62 33 -96t93 -34q59 0 91.5 34t32.5 96h90q0 -97 -58 -153.5t-156 -56.5q-100 0 -158 56z" />
    <glyph glyph-name="uni0422" unicode="&#x422;" 
d="M345 0h-90v649h-200v82h490v-82h-200v-649z" />
    <glyph glyph-name="uni0423" unicode="&#x423;" 
d="M191 0l74 189l-215 541h98l131 -357q22 -60 31 -110q8 50 27 110l115 357h98l-263 -730h-96z" />
    <glyph glyph-name="uni0424" unicode="&#x424;" 
d="M258 45q-92 0 -148 57t-56 151v234q0 97 55.5 155t148.5 58v70h84v-70q93 0 148.5 -58t55.5 -155v-234q0 -94 -56 -151t-148 -57v-70h-84v70zM258 624q-56 0 -88 -36.5t-32 -100.5v-234q0 -62 32 -97t88 -35v503zM342 121q56 0 88 35t32 97v234q0 64 -32 100.5t-88 36.5
v-503z" />
    <glyph glyph-name="uni0425" unicode="&#x425;" 
d="M40 0l210 370l-199 360h104l113 -216l34 -67q17 37 33 67l115 216h99l-199 -354l210 -376h-103l-125 232q-16 29 -33 68q-18 -38 -33 -67l-126 -233h-100z" />
    <glyph glyph-name="uni0426" unicode="&#x426;" 
d="M565 -140h-80v140h-391v730h90v-650h216v650h90v-650h75v-220z" />
    <glyph glyph-name="uni0427" unicode="&#x427;" 
d="M415 281q-47 -10 -135 -10q-94 0 -149.5 57t-55.5 153v249h90v-249q0 -59 35.5 -94.5t94.5 -35.5q83 0 120 10v369h90v-730h-90v281z" />
    <glyph glyph-name="uni0428" unicode="&#x428;" 
d="M536 0h-470l-2 730h84v-662h117v662h72v-662h116v662h83v-730z" />
    <glyph glyph-name="uni0429" unicode="&#x429;" 
d="M575 -140h-80v140h-431v730h81v-654h116v654h70v-654h116v654h81v-654h47v-216z" />
    <glyph glyph-name="uni042A" unicode="&#x42a;" 
d="M135 0v648h-140v82h230v-300h105q65 0 115 -27t77.5 -75.5t27.5 -112.5q0 -63 -27.5 -112t-77.5 -76t-115 -27h-195zM325 82q59 0 95.5 36.5t36.5 96.5t-36.5 96.5t-95.5 36.5h-100v-266h100z" />
    <glyph glyph-name="uni042B" unicode="&#x42b;" 
d="M65 0v730h84v-300h41q91 0 143.5 -51t52.5 -139v-51q0 -88 -52 -138.5t-144 -50.5h-125zM535 0h-84v730h84v-730zM190 79q52 0 81 29t29 82v50q0 53 -29 82t-81 29h-41v-272h41z" />
    <glyph glyph-name="uni042C" unicode="&#x42c;" 
d="M94 0v730h90v-300h146q65 0 115 -27t77.5 -75.5t27.5 -112.5q0 -63 -27.5 -112t-77.5 -76t-115 -27h-236zM325 82q59 0 95.5 36.5t36.5 96.5t-36.5 96.5t-95.5 36.5h-141v-266h141z" />
    <glyph glyph-name="uni042D" unicode="&#x42d;" 
d="M453 684q57 -56 57 -154v-330q0 -98 -57 -154t-157 -56q-98 0 -155 56.5t-57 153.5h90q0 -62 32 -96t90 -34q59 0 91.5 34t32.5 96v127h-225v82h225v122q0 62 -32.5 95.5t-91.5 33.5q-58 0 -90 -34t-32 -96h-90q0 97 57 153.5t155 56.5q100 0 157 -56z" />
    <glyph glyph-name="uni042E" unicode="&#x42e;" 
d="M267 41q-45 51 -45 139v155h-79v-335h-83v730h83v-315h79v135q0 89 44.5 139.5t122.5 50.5q79 0 125 -51t46 -139v-370q0 -88 -46 -139t-125 -51q-77 0 -122 51zM454.5 97q22.5 29 22.5 83v370q0 54 -22.5 83t-65.5 29t-65.5 -29t-22.5 -83v-370q0 -54 22.5 -83t65.5 -29
t65.5 29z" />
    <glyph glyph-name="uni042F" unicode="&#x42f;" 
d="M206 320q-66 20 -104 73t-38 127q0 62 27 109.5t76.5 74t113.5 26.5h224v-730h-90v310h-116l-139 -310h-104zM415 390v260h-134q-56 0 -90 -36t-34 -94q0 -59 34 -94.5t90 -35.5h134z" />
    <glyph glyph-name="uni0430" unicode="&#x430;" 
d="M454 510.5q56 -48.5 56 -132.5v-378h-88v105h-1q-4 -52 -52 -83.5t-120 -31.5q-84 0 -134 44t-50 119q0 79 49.5 124t135.5 45h170v53q0 50 -31.5 77.5t-87.5 27.5q-49 0 -81 -20t-37 -55h-90q9 70 66 112t143 42q96 0 152 -48.5zM378 92.5q42 31.5 42 82.5v78h-168
q-45 0 -71 -25t-26 -69q0 -46 31 -72t84 -26q66 0 108 31.5z" />
    <glyph glyph-name="uni0431" unicode="&#x431;" 
d="M461.5 439.5q48.5 -55.5 48.5 -154.5v-80q0 -101 -56 -158t-154 -57q-97 0 -153.5 57.5t-56.5 157.5v250q0 132 66 203.5t189 71.5h140v-90h-140q-81 0 -123 -47.5t-42 -137.5v-65h1q7 50 45 77.5t100 27.5q87 0 135.5 -55.5zM420 285q0 65 -31 100t-89 35
q-59 0 -89.5 -34.5t-30.5 -100.5v-80q0 -65 31 -100t89 -35t89 35t31 100v80z" />
    <glyph glyph-name="uni0432" unicode="&#x432;" 
d="M494.5 239q30.5 -33 30.5 -82q0 -74 -50 -115.5t-140 -41.5h-241v550h238q85 0 132.5 -38.5t47.5 -107.5q0 -47 -27 -79t-74 -43q53 -10 83.5 -43zM182 471v-153h150q42 0 66.5 20t24.5 56t-24 56.5t-67 20.5h-150zM335 79q48 0 74.5 21t26.5 59q0 39 -26.5 60t-74.5 21
h-153v-161h153z" />
    <glyph glyph-name="uni0433" unicode="&#x433;" 
d="M220 0h-90v550h395v-82h-305v-468z" />
    <glyph glyph-name="uni0434" unicode="&#x434;" 
d="M30 -140v217h45q22 25 38 75t17 119l6 279h359v-473h70v-217h-80v140h-375v-140h-80zM405 77v393h-184l-4 -201q-1 -71 -15 -120t-32 -72h235z" />
    <glyph glyph-name="uni0435" unicode="&#x435;" 
d="M512 253h-336v-53q0 -66 31.5 -100t92.5 -34q105 0 120 74h90q-9 -69 -66 -109.5t-144 -40.5q-97 0 -154.5 57t-57.5 153v150q0 96 57.5 153t154.5 57t154.5 -57t57.5 -153v-97zM176 321h248v29q0 66 -31.5 100.5t-92.5 34.5t-92.5 -34.5t-31.5 -100.5v-29z" />
    <glyph glyph-name="uni0436" unicode="&#x436;" 
d="M107 0h-89l120 282l-112 268h87l96 -240h53v240h76v-240h51l99 240h86l-112 -265l120 -285h-90l-100 250h-54v-250h-76v250h-54z" />
    <glyph glyph-name="uni0437" unicode="&#x437;" 
d="M274 -7q-87 0 -142.5 37t-66.5 100h95q7 -26 37.5 -41.5t76.5 -15.5h47q48 0 76 23t28 60q0 40 -27 63t-77 23h-121v78h118q45 0 69.5 21.5t24.5 58.5t-24 57t-69 20h-50q-40 0 -69 -17.5t-35 -44.5h-95q10 63 65 102.5t134 39.5h50q88 0 138 -40.5t50 -111.5
q0 -50 -32.5 -81t-89.5 -35v-4q70 -5 102.5 -38t32.5 -95q0 -73 -54 -116t-145 -43h-47z" />
    <glyph glyph-name="uni0438" unicode="&#x438;" 
d="M94 0v550h86v-300q0 -76 -11 -170l222 470h115v-550h-86v300q0 76 11 171l-222 -471h-115z" />
    <glyph glyph-name="uni0439" unicode="&#x439;" 
d="M94 0v550h86v-300q0 -76 -11 -170l222 470h115v-550h-86v300q0 76 11 171l-222 -471h-115zM180.5 680q-45.5 40 -45.5 105h71q0 -40 25 -63t68 -23q44 0 69.5 23t25.5 63h71q0 -65 -45.5 -105t-119.5 -40t-119.5 40z" />
    <glyph glyph-name="uni043A" unicode="&#x43a;" 
d="M187 0h-90v550h90v-227h94l160 227h103l-185 -262l188 -288h-105l-160 245h-95v-245z" />
    <glyph glyph-name="uni043B" unicode="&#x43b;" 
d="M25 -5v84h18q31 0 49 15.5t26 51t9 98.5l6 306h373v-550h-90v468h-194l-5 -228q-3 -131 -42 -188t-127 -57h-23z" />
    <glyph glyph-name="uni043C" unicode="&#x43c;" 
d="M76 0v550h122l72 -211q19 -56 33 -112q13 56 31 113l68 210h122v-550h-87v85q0 156 10 393l-98 -313h-95l-99 311q8 -220 8 -391v-85h-87z" />
    <glyph glyph-name="uni043D" unicode="&#x43d;" 
d="M184 0h-90v550h90v-229h232v229h90v-550h-90v239h-232v-239z" />
    <glyph glyph-name="uni043E" unicode="&#x43e;" 
d="M145 46q-57 56 -57 154v150q0 98 57 154t155 56t155 -56t57 -153v-151q0 -98 -57 -154t-155 -56t-155 56zM390.5 103.5q31.5 33.5 31.5 96.5v150q0 63 -31.5 96.5t-90.5 33.5t-90.5 -33.5t-31.5 -96.5v-150q0 -63 31.5 -96.5t90.5 -33.5t90.5 33.5z" />
    <glyph glyph-name="uni043F" unicode="&#x43f;" 
d="M184 0h-90v550h412v-550h-90v468h-232v-468z" />
    <glyph glyph-name="uni0440" unicode="&#x440;" 
d="M464 505q48 -55 48 -149v-161q0 -95 -48 -150t-131 -55q-62 0 -102.5 31t-47.5 84h-3l2 -125v-160h-90v730h90v-105h1q7 54 47.5 84.5t102.5 30.5q83 0 131 -55zM422 350q0 64 -31 98t-88 34q-56 0 -88.5 -35t-32.5 -97v-150q0 -62 32.5 -97t88.5 -35q57 0 88 34t31 98
v150z" />
    <glyph glyph-name="uni0441" unicode="&#x441;" 
d="M144 46q-58 56 -58 154v150q0 98 58 154t158 56q95 0 153 -51t61 -139h-90q-3 52 -35.5 81t-88.5 29q-59 0 -92.5 -34t-33.5 -95v-151q0 -62 33 -96t93 -34q56 0 88.5 29t35.5 81h90q-3 -88 -61 -139t-153 -51q-100 0 -158 56z" />
    <glyph glyph-name="uni0442" unicode="&#x442;" 
d="M345 0h-90v471h-200v79h490v-79h-200v-471z" />
    <glyph glyph-name="uni0443" unicode="&#x443;" 
d="M181 -180l81 214l-202 516h100l123 -340q10 -29 23 -80q12 51 22 80l115 340h97l-263 -730h-96z" />
    <glyph glyph-name="uni0444" unicode="&#x444;" 
d="M260 0q-96 0 -151 54t-55 148v148q0 93 55.5 146.5t150.5 53.5v180h80v-180q96 0 151 -53.5t55 -146.5v-148q0 -94 -55 -148t-151 -54v-180h-80v180zM262 479q-58 0 -91 -34t-33 -95v-148q0 -62 33 -96.5t91 -34.5v408zM338 71q58 0 91 34.5t33 96.5v148q0 61 -33 95
t-91 34v-408z" />
    <glyph glyph-name="uni0445" unicode="&#x445;" 
d="M55 0l190 283l-178 267h106l104 -170q12 -19 24 -45q11 26 23 45l105 170h105l-178 -268l189 -282h-106l-113 180q-11 19 -25 49q-15 -29 -27 -49l-114 -180h-105z" />
    <glyph glyph-name="uni0446" unicode="&#x446;" 
d="M565 -140h-80v140h-391v550h90v-470h216v470h90v-470h75v-220z" />
    <glyph glyph-name="uni0447" unicode="&#x447;" 
d="M410 200q-55 -11 -120 -11q-101 0 -156.5 50t-55.5 141v170h90v-170q0 -51 34.5 -80.5t95.5 -29.5q73 0 112 10v270h90v-550h-90v200z" />
    <glyph glyph-name="uni0448" unicode="&#x448;" 
d="M536 0h-470l-2 550h84v-482h117v482h72v-482h116v482h83v-550z" />
    <glyph glyph-name="uni0449" unicode="&#x449;" 
d="M575 -140h-80v140h-431v550h81v-474h116v474h70v-474h116v474h81v-474h47v-216z" />
    <glyph glyph-name="uni044A" unicode="&#x44a;" 
d="M140 0v470h-140v80h230v-202h120q93 0 146.5 -46.5t53.5 -127.5q0 -80 -54 -127t-146 -47h-210zM350 82q52 0 79.5 23.5t27.5 68.5t-27.5 68.5t-79.5 23.5h-120v-184h120z" />
    <glyph glyph-name="uni044B" unicode="&#x44b;" 
d="M65 0v550h84v-202h45q89 0 140.5 -46.5t51.5 -127.5t-51.5 -127.5t-140.5 -46.5h-129zM535 0h-84v550h84v-550zM194 72q53 0 82.5 27t29.5 75t-29.5 75t-82.5 27h-45v-204h45z" />
    <glyph glyph-name="uni044C" unicode="&#x44c;" 
d="M98 0v550h90v-202h162q93 0 146.5 -46.5t53.5 -127.5q0 -80 -54 -127t-146 -47h-252zM350 82q52 0 79.5 23.5t27.5 68.5t-27.5 68.5t-79.5 23.5h-162v-184h162z" />
    <glyph glyph-name="uni044D" unicode="&#x44d;" 
d="M453 504q57 -56 57 -154v-150q0 -98 -57 -154t-157 -56q-95 0 -152 51t-60 139h90q3 -53 35 -81.5t87 -28.5q59 0 91.5 34t32.5 96v40h-195v80h195v31q0 62 -32.5 95.5t-91.5 33.5q-55 0 -87 -28.5t-35 -81.5h-90q3 88 60 139t152 51q100 0 157 -56z" />
    <glyph glyph-name="uni044E" unicode="&#x44e;" 
d="M275 36.5q-42 46.5 -42 123.5v83h-88v-243h-83v550h83v-235h88v75q0 77 41.5 123.5t111.5 46.5q74 0 119 -46.5t45 -123.5v-230q0 -77 -45 -123.5t-119 -46.5q-69 0 -111 46.5zM445.5 86.5q21.5 26.5 21.5 73.5v230q0 47 -21.5 73.5t-59.5 26.5q-37 0 -58 -26.5
t-21 -73.5v-230q0 -47 21 -73.5t58 -26.5q38 0 59.5 26.5z" />
    <glyph glyph-name="uni044F" unicode="&#x44f;" 
d="M201 212q-63 15 -97.5 58t-34.5 107q0 81 53.5 127t146.5 46h237v-550h-90v205h-121l-130 -205h-105zM416 285v185h-147q-50 0 -79 -25t-29 -68t29 -67.5t79 -24.5h147z" />
    <glyph glyph-name="uni0451" unicode="&#x451;" 
d="M512 253h-336v-53q0 -66 31.5 -100t92.5 -34q105 0 120 74h90q-9 -69 -66 -109.5t-144 -40.5q-97 0 -154.5 57t-57.5 153v150q0 96 57.5 153t154.5 57t154.5 -57t57.5 -153v-97zM176 321h248v29q0 66 -31.5 100.5t-92.5 34.5t-92.5 -34.5t-31.5 -100.5v-29zM152 657
q-17 17 -17 43t17 43t43 17t43 -17t17 -43t-17 -43t-43 -17t-43 17zM362 657q-17 17 -17 43t17 43t43 17t43 -17t17 -43t-17 -43t-43 -17t-43 17z" />
    <glyph glyph-name="uni0452" unicode="&#x452;" 
d="M460 449q48 -51 48 -139v-279q0 -97 -60 -154t-161 -57h-37v83h37q62 0 96.5 33.5t34.5 94.5v269q0 58 -30.5 91t-84.5 33q-56 0 -87.5 -35t-31.5 -99v-290h-90v570h-94v75h94v85h90v-85h166v-75h-166v-185h1q6 55 43.5 85t100.5 30q83 0 131 -51z" />
    <glyph glyph-name="uni0453" unicode="&#x453;" 
d="M220 0h-90v550h395v-82h-305v-468zM330 645h-90l115 140h100z" />
    <glyph glyph-name="uni0454" unicode="&#x454;" 
d="M391 98.5q32 28.5 35 81.5h90q-3 -88 -60 -139t-152 -51q-100 0 -157 56t-57 154v150q0 98 57 154t157 56q95 0 152 -51t60 -139h-90q-3 53 -35 81.5t-87 28.5q-59 0 -91.5 -33.5t-32.5 -95.5v-31h195v-80h-195v-40q0 -62 32.5 -96t91.5 -34q55 0 87 28.5z" />
    <glyph glyph-name="uni0455" unicode="&#x455;" 
d="M278 -10q-84 0 -134.5 39t-58.5 106h90q6 -30 33 -47.5t70 -17.5h42q52 0 78.5 22t26.5 59q0 68 -93 83l-74 12q-82 13 -121 50.5t-39 106.5q0 75 48 116t140 41h38q78 0 126.5 -37.5t58.5 -101.5h-90q-6 27 -31 43t-64 16h-38q-98 0 -98 -78q0 -33 19.5 -49.5
t63.5 -23.5l74 -12q89 -14 129.5 -52t40.5 -110q0 -78 -49.5 -121.5t-145.5 -43.5h-42z" />
    <glyph glyph-name="uni0456" unicode="&#x456;" 
d="M300 645q-30 0 -47.5 16t-17.5 43t18 44t47 17h20q29 0 47 -17t18 -44t-18 -43t-47 -16h-20zM550 0h-470v82h195v386h-170v82h260v-468h185v-82z" />
    <glyph glyph-name="uni0457" unicode="&#x457;" 
d="M152 657q-17 17 -17 43t17 43t43 17t43 -17t17 -43t-17 -43t-43 -17t-43 17zM362 657q-17 17 -17 43t17 43t43 17t43 -17t17 -43t-17 -43t-43 -17t-43 17zM545 0h-455v82h205v386h-180v82h270v-468h160v-82z" />
    <glyph glyph-name="uni0458" unicode="&#x458;" 
d="M375 645q-30 0 -47.5 16t-17.5 43t18 44t47 17h20q29 0 47 -17t18 -44t-18 -43t-47 -16h-20zM85 -180v83h129q62 0 96.5 33.5t34.5 94.5v437h-230v82h320v-519q0 -97 -60 -154t-161 -57h-129z" />
    <glyph glyph-name="uni0459" unicode="&#x459;" 
d="M5 -5v85h18q25 0 40 31t16 83l4 356h282v-200h60q72 0 116 -42.5t44 -111.5v-42q0 -69 -44 -111.5t-116 -42.5h-140v473h-123l-3 -279q-1 -91 -38 -145t-101 -54h-15zM425 74q36 0 58 22t22 58v42q0 36 -22 58t-58 22h-60v-202h60z" />
    <glyph glyph-name="uni045A" unicode="&#x45a;" 
d="M64 0v550h83v-200h137v200h73v-200h61q72 0 116 -42.5t44 -112.5v-40q0 -70 -44 -112.5t-116 -42.5h-134v275h-137v-275h-83zM418 75q36 0 56.5 22t20.5 58v40q0 36 -20.5 58t-56.5 22h-61v-200h61z" />
    <glyph glyph-name="uni045B" unicode="&#x45b;" 
d="M460 449q48 -51 48 -139v-310h-90v300q0 58 -30.5 91t-84.5 33q-56 0 -87.5 -35t-31.5 -99v-290h-90v570h-94v75h94v85h90v-85h166v-75h-166v-185h1q6 55 43.5 85t100.5 30q83 0 131 -51z" />
    <glyph glyph-name="uni045C" unicode="&#x45c;" 
d="M187 0h-90v550h90v-227h94l160 227h103l-185 -262l188 -288h-105l-160 245h-95v-245zM330 645h-90l115 140h100z" />
    <glyph glyph-name="uni045E" unicode="&#x45e;" 
d="M181 -180l81 214l-202 516h100l123 -340q10 -29 23 -80q12 51 22 80l115 340h97l-263 -730h-96zM180.5 680q-45.5 40 -45.5 105h71q0 -40 25 -63t68 -23q44 0 69.5 23t25.5 63h71q0 -65 -45.5 -105t-119.5 -40t-119.5 40z" />
    <glyph glyph-name="uni045F" unicode="&#x45f;" 
d="M345 -125h-90v125h-161v550h90v-468h232v468h90v-550h-161v-125z" />
    <glyph glyph-name="uni0490" unicode="&#x490;" 
d="M200 0h-90v730h340v95h85v-177h-335v-648z" />
    <glyph glyph-name="uni0491" unicode="&#x491;" 
d="M220 0h-90v550h310v105h85v-187h-305v-468z" />
    <glyph glyph-name="uni04AE" unicode="&#x4ae;" 
d="M255 0v273l-220 457h93l145 -300q20 -43 28 -68q8 25 29 68l142 300h93l-220 -457v-273h-90z" />
    <glyph glyph-name="uni04AF" unicode="&#x4af;" 
d="M255 -180v273l-220 457h93l145 -300q20 -43 28 -68q8 25 29 68l142 300h93l-220 -457v-273h-90z" />
    <glyph glyph-name="uni04E8" unicode="&#x4e8;" 
d="M146 46.5q-56 56.5 -56 154.5v329q0 98 56 154t154 56t154 -56t56 -154v-329q0 -98 -56.5 -154.5t-153.5 -56.5q-98 0 -154 56.5zM179 414h242v116q0 64 -31 97.5t-90 33.5t-90 -33.5t-31 -97.5v-116zM389.5 103q31.5 34 31.5 98v133h-242v-133q0 -64 31.5 -98t89.5 -34
t89.5 34z" />
    <glyph glyph-name="uni04E9" unicode="&#x4e9;" 
d="M146.5 47q-56.5 57 -56.5 154v149q0 97 56.5 153.5t153.5 56.5q96 0 153 -57t57 -152v-150q0 -97 -57 -154t-153 -57q-97 0 -153.5 57zM178 315h244v35q0 63 -31.5 97t-90.5 34t-90.5 -34t-31.5 -97v-35zM390.5 103q31.5 34 31.5 98v39h-244v-39q0 -64 31.5 -98t90.5 -34
t90.5 34z" />
    <glyph glyph-name="Wgrave" unicode="&#x1e80;" 
d="M109 0l-84 730h86l55 -540q6 -57 9 -125q6 68 13 125l68 540h93l62 -540l14 -125q5 68 11 125l57 540h82l-86 -730h-113l-62 550l-12 117l-13 -117l-67 -550h-113zM360 810h-95l-125 135h105z" />
    <glyph glyph-name="wgrave" unicode="&#x1e81;" 
d="M123 0l-88 550h80l55 -390l12 -90l14 90l61 390h86l61 -390l14 -90l14 90l57 390h76l-92 -550h-99l-59 380l-16 100l-15 -100l-62 -380h-99zM360 645h-95l-120 140h100z" />
    <glyph glyph-name="Wacute" unicode="&#x1e82;" 
d="M109 0l-84 730h86l55 -540q6 -57 9 -125q6 68 13 125l68 540h93l62 -540l14 -125q5 68 11 125l57 540h82l-86 -730h-113l-62 550l-12 117l-13 -117l-67 -550h-113zM330 810h-90l115 135h100z" />
    <glyph glyph-name="wacute" unicode="&#x1e83;" 
d="M123 0l-88 550h80l55 -390l12 -90l14 90l61 390h86l61 -390l14 -90l14 90l57 390h76l-92 -550h-99l-59 380l-16 100l-15 -100l-62 -380h-99zM330 645h-90l115 140h100z" />
    <glyph glyph-name="Wdieresis" unicode="&#x1e84;" 
d="M109 0l-84 730h86l55 -540q6 -57 9 -125q6 68 13 125l68 540h93l62 -540l14 -125q5 68 11 125l57 540h82l-86 -730h-113l-62 550l-12 117l-13 -117l-67 -550h-113zM151 822q-17 17 -17 43t17 43t43 17t43 -17t17 -43t-17 -43t-43 -17t-43 17zM363 822q-17 17 -17 43
t17 43t43 17t43 -17t17 -43t-17 -43t-43 -17t-43 17z" />
    <glyph glyph-name="wdieresis" unicode="&#x1e85;" 
d="M123 0l-88 550h80l55 -390l12 -90l14 90l61 390h86l61 -390l14 -90l14 90l57 390h76l-92 -550h-99l-59 380l-16 100l-15 -100l-62 -380h-99zM152 657q-17 17 -17 43t17 43t43 17t43 -17t17 -43t-17 -43t-43 -17t-43 17zM362 657q-17 17 -17 43t17 43t43 17t43 -17t17 -43
t-17 -43t-43 -17t-43 17z" />
    <glyph glyph-name="uni1E9E" unicode="&#x1e9e;" 
d="M367 423q78 -5 125.5 -61.5t47.5 -146.5q0 -64 -27 -112.5t-75.5 -75.5t-112.5 -27h-67v82h57q60 0 95 36t35 97q0 60 -35 95t-95 35h-45v78l164 225h-132q-56 0 -88 -33t-32 -91v-524h-90v524q0 61 26 108t74 72.5t110 25.5h227v-88z" />
    <glyph glyph-name="uni1EA0" unicode="&#x1ea0;" 
d="M142 0h-92l190 730h121l189 -730h-91l-48 194h-221zM208 270h184l-56 225q-27 110 -36 163q-9 -54 -36 -162zM290 -205q-29 0 -47 16.5t-18 42.5q0 27 18 44t47 17h20q29 0 47 -17t18 -44q0 -26 -18 -42.5t-47 -16.5h-20z" />
    <glyph glyph-name="uni1EA1" unicode="&#x1ea1;" 
d="M454 510.5q56 -48.5 56 -132.5v-378h-88v105h-1q-4 -52 -52 -83.5t-120 -31.5q-84 0 -134 44t-50 119q0 79 49.5 124t135.5 45h170v53q0 50 -31.5 77.5t-87.5 27.5q-49 0 -81 -20t-37 -55h-90q9 70 66 112t143 42q96 0 152 -48.5zM378 92.5q42 31.5 42 82.5v78h-168
q-45 0 -71 -25t-26 -69q0 -46 31 -72t84 -26q66 0 108 31.5zM290 -205q-29 0 -47 16.5t-18 42.5q0 27 18 44t47 17h20q29 0 47 -17t18 -44q0 -26 -18 -42.5t-47 -16.5h-20z" />
    <glyph glyph-name="uni1EA2" unicode="&#x1ea2;" 
d="M142 0h-92l190 730h121l189 -730h-91l-48 194h-221zM208 270h184l-56 225q-27 110 -36 163q-9 -54 -36 -162zM326 878q14 19 14 32q0 20 -32 20h-80v65h105q39 0 62 -20t23 -54q0 -15 -4.5 -29.5t-12.5 -24.5l-40 -52h-85z" />
    <glyph glyph-name="uni1EA3" unicode="&#x1ea3;" 
d="M454 510.5q56 -48.5 56 -132.5v-378h-88v105h-1q-4 -52 -52 -83.5t-120 -31.5q-84 0 -134 44t-50 119q0 79 49.5 124t135.5 45h170v53q0 50 -31.5 77.5t-87.5 27.5q-49 0 -81 -20t-37 -55h-90q9 70 66 112t143 42q96 0 152 -48.5zM378 92.5q42 31.5 42 82.5v78h-168
q-45 0 -71 -25t-26 -69q0 -46 31 -72t84 -26q66 0 108 31.5zM326 708q14 19 14 32q0 20 -32 20h-80v65h105q39 0 62 -20t23 -54q0 -15 -4.5 -29.5t-12.5 -24.5l-40 -52h-85z" />
    <glyph glyph-name="uni1EA4" unicode="&#x1ea4;" 
d="M514 900h-95l122 130h100zM219 800h-102l143 140h82l141 -140h-105l-75 75h-6zM142 0h-92l190 730h121l189 -730h-91l-48 194h-221zM208 270h184l-56 225q-27 110 -36 163q-9 -54 -36 -162z" />
    <glyph glyph-name="uni1EA5" unicode="&#x1ea5;" 
d="M454 510.5q56 -48.5 56 -132.5v-378h-88v105h-1q-4 -52 -52 -83.5t-120 -31.5q-84 0 -134 44t-50 119q0 79 49.5 124t135.5 45h170v53q0 50 -31.5 77.5t-87.5 27.5q-49 0 -81 -20t-37 -55h-90q9 70 66 112t143 42q96 0 152 -48.5zM378 92.5q42 31.5 42 82.5v78h-168
q-45 0 -71 -25t-26 -69q0 -46 31 -72t84 -26q66 0 108 31.5zM515 755h-95l115 140h100zM219 645h-102l143 140h82l141 -140h-105l-75 75h-6z" />
    <glyph glyph-name="uni1EA6" unicode="&#x1ea6;" 
d="M142 0h-92l190 730h121l189 -730h-91l-48 194h-221zM208 270h184l-56 225q-27 110 -36 163q-9 -54 -36 -162zM181 900h-95l-127 130h100zM219 800h-102l143 140h82l141 -140h-105l-75 75h-6z" />
    <glyph glyph-name="uni1EA7" unicode="&#x1ea7;" 
d="M454 510.5q56 -48.5 56 -132.5v-378h-88v105h-1q-4 -52 -52 -83.5t-120 -31.5q-84 0 -134 44t-50 119q0 79 49.5 124t135.5 45h170v53q0 50 -31.5 77.5t-87.5 27.5q-49 0 -81 -20t-37 -55h-90q9 70 66 112t143 42q96 0 152 -48.5zM378 92.5q42 31.5 42 82.5v78h-168
q-45 0 -71 -25t-26 -69q0 -46 31 -72t84 -26q66 0 108 31.5zM180 755h-95l-120 140h100zM219 645h-102l143 140h82l141 -140h-105l-75 75h-6z" />
    <glyph glyph-name="uni1EA8" unicode="&#x1ea8;" 
d="M468 966q9 14 9 24q0 12 -8.5 18.5t-23.5 6.5h-50v60h55q46 0 73 -20.5t27 -54.5q0 -21 -17 -45l-35 -50h-75zM219 800h-102l143 140h82l141 -140h-105l-75 75h-6zM142 0h-92l190 730h121l189 -730h-91l-48 194h-221zM208 270h184l-56 225q-27 110 -36 163
q-9 -54 -36 -162z" />
    <glyph glyph-name="uni1EA9" unicode="&#x1ea9;" 
d="M454 510.5q56 -48.5 56 -132.5v-378h-88v105h-1q-4 -52 -52 -83.5t-120 -31.5q-84 0 -134 44t-50 119q0 79 49.5 124t135.5 45h170v53q0 50 -31.5 77.5t-87.5 27.5q-49 0 -81 -20t-37 -55h-90q9 70 66 112t143 42q96 0 152 -48.5zM378 92.5q42 31.5 42 82.5v78h-168
q-45 0 -71 -25t-26 -69q0 -46 31 -72t84 -26q66 0 108 31.5zM468 816q9 14 9 24q0 12 -8.5 18.5t-23.5 6.5h-50v60h55q46 0 73 -20.5t27 -54.5q0 -21 -17 -45l-35 -50h-75zM219 645h-102l143 140h82l141 -140h-105l-75 75h-6z" />
    <glyph glyph-name="uni1EAA" unicode="&#x1eaa;" 
d="M142 0h-92l190 730h121l189 -730h-91l-48 194h-221zM208 270h184l-56 225q-27 110 -36 163q-9 -54 -36 -162zM315.5 967q-18.5 10 -37.5 29q-12 12 -21 18t-22 6q-30 0 -30 -30v-25h-65v20q0 40 26 64t68 24q32 0 50.5 -10t37.5 -29q12 -12 21 -18t22 -6q30 0 30 30v25
h65v-20q0 -40 -26 -64t-68 -24q-32 0 -50.5 10zM213 800h-96l142 135h82l142 -135h-94l-83 73h-10z" />
    <glyph glyph-name="uni1EAB" unicode="&#x1eab;" 
d="M454 510.5q56 -48.5 56 -132.5v-378h-88v105h-1q-4 -52 -52 -83.5t-120 -31.5q-84 0 -134 44t-50 119q0 79 49.5 124t135.5 45h170v53q0 50 -31.5 77.5t-87.5 27.5q-49 0 -81 -20t-37 -55h-90q9 70 66 112t143 42q96 0 152 -48.5zM378 92.5q42 31.5 42 82.5v78h-168
q-45 0 -71 -25t-26 -69q0 -46 31 -72t84 -26q66 0 108 31.5zM315.5 822q-18.5 10 -37.5 29q-12 12 -21 18t-22 6q-30 0 -30 -30v-25h-65v20q0 40 26 64t68 24q32 0 50.5 -10t37.5 -29q12 -12 21 -18t22 -6q30 0 30 30v25h65v-20q0 -40 -26 -64t-68 -24q-32 0 -50.5 10z
M219 645h-102l143 140h82l141 -140h-105l-75 75h-6z" />
    <glyph glyph-name="uni1EAC" unicode="&#x1eac;" 
d="M142 0h-92l190 730h121l189 -730h-91l-48 194h-221zM208 270h184l-56 225q-27 110 -36 163q-9 -54 -36 -162zM290 -205q-29 0 -47 16.5t-18 42.5q0 27 18 44t47 17h20q29 0 47 -17t18 -44q0 -26 -18 -42.5t-47 -16.5h-20zM213 805h-96l142 140h82l142 -140h-94l-83 78
h-10z" />
    <glyph glyph-name="uni1EAD" unicode="&#x1ead;" 
d="M454 510.5q56 -48.5 56 -132.5v-378h-88v105h-1q-4 -52 -52 -83.5t-120 -31.5q-84 0 -134 44t-50 119q0 79 49.5 124t135.5 45h170v53q0 50 -31.5 77.5t-87.5 27.5q-49 0 -81 -20t-37 -55h-90q9 70 66 112t143 42q96 0 152 -48.5zM378 92.5q42 31.5 42 82.5v78h-168
q-45 0 -71 -25t-26 -69q0 -46 31 -72t84 -26q66 0 108 31.5zM290 -205q-29 0 -47 16.5t-18 42.5q0 27 18 44t47 17h20q29 0 47 -17t18 -44q0 -26 -18 -42.5t-47 -16.5h-20zM219 645h-102l143 140h82l141 -140h-105l-75 75h-6z" />
    <glyph glyph-name="uni1EAE" unicode="&#x1eae;" 
d="M142 0h-92l190 730h121l189 -730h-91l-48 194h-221zM208 270h184l-56 225q-27 110 -36 163q-9 -54 -36 -162zM328 910h-91l115 125h96zM177.5 826q-47.5 36 -47.5 94h70q0 -33 27 -51t73 -18q47 0 73.5 18t26.5 51h70q0 -58 -47.5 -94t-122.5 -36t-122.5 36z" />
    <glyph glyph-name="uni1EAF" unicode="&#x1eaf;" 
d="M454 510.5q56 -48.5 56 -132.5v-378h-88v105h-1q-4 -52 -52 -83.5t-120 -31.5q-84 0 -134 44t-50 119q0 79 49.5 124t135.5 45h170v53q0 50 -31.5 77.5t-87.5 27.5q-49 0 -81 -20t-37 -55h-90q9 70 66 112t143 42q96 0 152 -48.5zM378 92.5q42 31.5 42 82.5v78h-168
q-45 0 -71 -25t-26 -69q0 -46 31 -72t84 -26q66 0 108 31.5zM328 760h-91l115 130h96zM177.5 676q-47.5 36 -47.5 94h70q0 -33 27 -51t73 -18q47 0 73.5 18t26.5 51h70q0 -58 -47.5 -94t-122.5 -36t-122.5 36z" />
    <glyph glyph-name="uni1EB0" unicode="&#x1eb0;" 
d="M142 0h-92l190 730h121l189 -730h-91l-48 194h-221zM208 270h184l-56 225q-27 110 -36 163q-9 -54 -36 -162zM363 910h-91l-120 126h96zM177.5 826q-47.5 36 -47.5 94h70q0 -33 26.5 -51t73.5 -18q46 0 73 18t27 51h70q0 -58 -47.5 -94t-122.5 -36t-122.5 36z" />
    <glyph glyph-name="uni1EB1" unicode="&#x1eb1;" 
d="M454 510.5q56 -48.5 56 -132.5v-378h-88v105h-1q-4 -52 -52 -83.5t-120 -31.5q-84 0 -134 44t-50 119q0 79 49.5 124t135.5 45h170v53q0 50 -31.5 77.5t-87.5 27.5q-49 0 -81 -20t-37 -55h-90q9 70 66 112t143 42q96 0 152 -48.5zM378 92.5q42 31.5 42 82.5v78h-168
q-45 0 -71 -25t-26 -69q0 -46 31 -72t84 -26q66 0 108 31.5zM363 760h-91l-120 130h96zM177.5 676q-47.5 36 -47.5 94h70q0 -33 27 -51t73 -18q47 0 73.5 18t26.5 51h70q0 -58 -47.5 -94t-122.5 -36t-122.5 36z" />
    <glyph glyph-name="uni1EB2" unicode="&#x1eb2;" 
d="M142 0h-92l190 730h121l189 -730h-91l-48 194h-221zM208 270h184l-56 225q-27 110 -36 163q-9 -54 -36 -162zM298 966q9 14 9 24q0 12 -8.5 18.5t-23.5 6.5h-50v60h55q46 0 73 -20.5t27 -54.5q0 -21 -17 -45l-35 -50h-75zM184 826q-44 36 -44 94h65q0 -34 25 -53.5
t69 -19.5q45 0 70.5 19.5t25.5 53.5h65q0 -58 -44 -94t-116 -36t-116 36z" />
    <glyph glyph-name="uni1EB3" unicode="&#x1eb3;" 
d="M454 510.5q56 -48.5 56 -132.5v-378h-88v105h-1q-4 -52 -52 -83.5t-120 -31.5q-84 0 -134 44t-50 119q0 79 49.5 124t135.5 45h170v53q0 50 -31.5 77.5t-87.5 27.5q-49 0 -81 -20t-37 -55h-90q9 70 66 112t143 42q96 0 152 -48.5zM378 92.5q42 31.5 42 82.5v78h-168
q-45 0 -71 -25t-26 -69q0 -46 31 -72t84 -26q66 0 108 31.5zM298 816q9 14 9 24q0 12 -8.5 18.5t-23.5 6.5h-50v60h55q46 0 73 -20.5t27 -54.5q0 -21 -17 -45l-35 -50h-75zM177.5 676q-47.5 36 -47.5 94h70q0 -33 27 -51t73 -18q47 0 73.5 18t26.5 51h70q0 -58 -47.5 -94
t-122.5 -36t-122.5 36z" />
    <glyph glyph-name="uni1EB4" unicode="&#x1eb4;" 
d="M142 0h-92l190 730h121l189 -730h-91l-48 194h-221zM208 270h184l-56 225q-27 110 -36 163q-9 -54 -36 -162zM315.5 962q-18.5 10 -37.5 29q-12 12 -21 18t-22 6q-30 0 -30 -30v-25h-65v20q0 40 26 64t68 24q32 0 50.5 -10t37.5 -29q12 -12 21 -18t22 -6q30 0 30 30v25
h65v-20q0 -40 -26 -64t-68 -24q-32 0 -50.5 10zM184 831q-44 36 -44 94h65q0 -34 25 -53.5t69 -19.5q45 0 70.5 19.5t25.5 53.5h65q0 -58 -44 -94t-116 -36t-116 36z" />
    <glyph glyph-name="uni1EB5" unicode="&#x1eb5;" 
d="M454 510.5q56 -48.5 56 -132.5v-378h-88v105h-1q-4 -52 -52 -83.5t-120 -31.5q-84 0 -134 44t-50 119q0 79 49.5 124t135.5 45h170v53q0 50 -31.5 77.5t-87.5 27.5q-49 0 -81 -20t-37 -55h-90q9 70 66 112t143 42q96 0 152 -48.5zM378 92.5q42 31.5 42 82.5v78h-168
q-45 0 -71 -25t-26 -69q0 -46 31 -72t84 -26q66 0 108 31.5zM315.5 822q-18.5 10 -37.5 29q-12 12 -21 18t-22 6q-30 0 -30 -30v-25h-65v20q0 40 26 64t68 24q32 0 50.5 -10t37.5 -29q12 -12 21 -18t22 -6q30 0 30 30v25h65v-20q0 -40 -26 -64t-68 -24q-32 0 -50.5 10z
M184 681q-44 36 -44 94h65q0 -34 25 -53.5t69 -19.5q45 0 70.5 19.5t25.5 53.5h65q0 -58 -44 -94t-116 -36t-116 36z" />
    <glyph glyph-name="uni1EB6" unicode="&#x1eb6;" 
d="M180.5 837q-45.5 37 -45.5 98h71q0 -36 24.5 -56t68.5 -20q45 0 70 20t25 56h71q0 -61 -45.5 -98t-119.5 -37t-119.5 37zM142 0h-92l190 730h121l189 -730h-91l-48 194h-221zM208 270h184l-56 225q-27 110 -36 163q-9 -54 -36 -162zM290 -205q-29 0 -47 16.5t-18 42.5
q0 27 18 44t47 17h20q29 0 47 -17t18 -44q0 -26 -18 -42.5t-47 -16.5h-20z" />
    <glyph glyph-name="uni1EB7" unicode="&#x1eb7;" 
d="M454 510.5q56 -48.5 56 -132.5v-378h-88v105h-1q-4 -52 -52 -83.5t-120 -31.5q-84 0 -134 44t-50 119q0 79 49.5 124t135.5 45h170v53q0 50 -31.5 77.5t-87.5 27.5q-49 0 -81 -20t-37 -55h-90q9 70 66 112t143 42q96 0 152 -48.5zM378 92.5q42 31.5 42 82.5v78h-168
q-45 0 -71 -25t-26 -69q0 -46 31 -72t84 -26q66 0 108 31.5zM290 -205q-29 0 -47 16.5t-18 42.5q0 27 18 44t47 17h20q29 0 47 -17t18 -44q0 -26 -18 -42.5t-47 -16.5h-20zM180.5 680q-45.5 40 -45.5 105h71q0 -40 25 -63t68 -23q44 0 69.5 23t25.5 63h71q0 -65 -45.5 -105
t-119.5 -40t-119.5 40z" />
    <glyph glyph-name="uni1EB8" unicode="&#x1eb8;" 
d="M520 0h-420v730h420v-81h-331v-227h296v-81h-296v-260h331v-81zM290 -205q-29 0 -47 16.5t-18 42.5q0 27 18 44t47 17h20q29 0 47 -17t18 -44q0 -26 -18 -42.5t-47 -16.5h-20z" />
    <glyph glyph-name="uni1EB9" unicode="&#x1eb9;" 
d="M512 253h-336v-53q0 -66 31.5 -100t92.5 -34q105 0 120 74h90q-9 -69 -66 -109.5t-144 -40.5q-97 0 -154.5 57t-57.5 153v150q0 96 57.5 153t154.5 57t154.5 -57t57.5 -153v-97zM176 321h248v29q0 66 -31.5 100.5t-92.5 34.5t-92.5 -34.5t-31.5 -100.5v-29zM290 -205
q-29 0 -47 16.5t-18 42.5q0 27 18 44t47 17h20q29 0 47 -17t18 -44q0 -26 -18 -42.5t-47 -16.5h-20z" />
    <glyph glyph-name="uni1EBA" unicode="&#x1eba;" 
d="M520 0h-420v730h420v-81h-331v-227h296v-81h-296v-260h331v-81zM303 863q14 20 14 32q0 20 -32 20h-75v65h80q47 0 76 -20.5t29 -54.5q0 -28 -17 -53l-35 -52h-85z" />
    <glyph glyph-name="uni1EBB" unicode="&#x1ebb;" 
d="M512 253h-336v-53q0 -66 31.5 -100t92.5 -34q105 0 120 74h90q-9 -69 -66 -109.5t-144 -40.5q-97 0 -154.5 57t-57.5 153v150q0 96 57.5 153t154.5 57t154.5 -57t57.5 -153v-97zM176 321h248v29q0 66 -31.5 100.5t-92.5 34.5t-92.5 -34.5t-31.5 -100.5v-29zM308 708
q14 19 14 32q0 20 -32 20h-80v65h105q39 0 62 -20t23 -54q0 -15 -4.5 -29.5t-12.5 -24.5l-40 -52h-85z" />
    <glyph glyph-name="uni1EBC" unicode="&#x1ebc;" 
d="M520 0h-420v730h420v-81h-331v-227h296v-81h-296v-260h331v-81zM321 811q-19 11 -39 31q-15 15 -24.5 21.5t-22.5 6.5q-14 0 -22 -9t-8 -26v-30h-65v30q0 44 24.5 69.5t65.5 25.5q30 0 49 -11t39 -31q15 -15 24.5 -21.5t22.5 -6.5q14 0 22 9t8 26v30h65v-30
q0 -44 -24.5 -69.5t-65.5 -25.5q-30 0 -49 11z" />
    <glyph glyph-name="uni1EBD" unicode="&#x1ebd;" 
d="M512 253h-336v-53q0 -66 31.5 -100t92.5 -34q105 0 120 74h90q-9 -69 -66 -109.5t-144 -40.5q-97 0 -154.5 57t-57.5 153v150q0 96 57.5 153t154.5 57t154.5 -57t57.5 -153v-97zM176 321h248v29q0 66 -31.5 100.5t-92.5 34.5t-92.5 -34.5t-31.5 -100.5v-29zM321 661
q-19 11 -39 31q-14 14 -24 21t-23 7q-14 0 -22 -9t-8 -26v-30h-65v30q0 44 24.5 69.5t65.5 25.5q30 0 49 -11t39 -31q14 -14 24 -21t23 -7q14 0 22 9t8 26v30h65v-30q0 -44 -24.5 -69.5t-65.5 -25.5q-30 0 -49 11z" />
    <glyph glyph-name="uni1EBE" unicode="&#x1ebe;" 
d="M520 0h-420v730h420v-81h-331v-227h296v-81h-296v-260h331v-81zM514 900h-95l122 130h100zM219 800h-102l143 140h82l141 -140h-105l-75 75h-6z" />
    <glyph glyph-name="uni1EBF" unicode="&#x1ebf;" 
d="M512 253h-336v-53q0 -66 31.5 -100t92.5 -34q105 0 120 74h90q-9 -69 -66 -109.5t-144 -40.5q-97 0 -154.5 57t-57.5 153v150q0 96 57.5 153t154.5 57t154.5 -57t57.5 -153v-97zM176 321h248v29q0 66 -31.5 100.5t-92.5 34.5t-92.5 -34.5t-31.5 -100.5v-29zM515 755h-95
l115 140h100zM219 645h-102l143 140h82l141 -140h-105l-75 75h-6z" />
    <glyph glyph-name="uni1EC0" unicode="&#x1ec0;" 
d="M520 0h-420v730h420v-81h-331v-227h296v-81h-296v-260h331v-81zM181 900h-95l-127 130h100zM219 800h-102l143 140h82l141 -140h-105l-75 75h-6z" />
    <glyph glyph-name="uni1EC1" unicode="&#x1ec1;" 
d="M512 253h-336v-53q0 -66 31.5 -100t92.5 -34q105 0 120 74h90q-9 -69 -66 -109.5t-144 -40.5q-97 0 -154.5 57t-57.5 153v150q0 96 57.5 153t154.5 57t154.5 -57t57.5 -153v-97zM176 321h248v29q0 66 -31.5 100.5t-92.5 34.5t-92.5 -34.5t-31.5 -100.5v-29zM180 755h-95
l-120 140h100zM219 645h-102l143 140h82l141 -140h-105l-75 75h-6z" />
    <glyph glyph-name="uni1EC2" unicode="&#x1ec2;" 
d="M520 0h-420v730h420v-81h-331v-227h296v-81h-296v-260h331v-81zM468 966q9 14 9 24q0 12 -8.5 18.5t-23.5 6.5h-50v60h55q46 0 73 -20.5t27 -54.5q0 -21 -17 -45l-35 -50h-75zM219 800h-102l143 140h82l141 -140h-105l-75 75h-6z" />
    <glyph glyph-name="uni1EC3" unicode="&#x1ec3;" 
d="M512 253h-336v-53q0 -66 31.5 -100t92.5 -34q105 0 120 74h90q-9 -69 -66 -109.5t-144 -40.5q-97 0 -154.5 57t-57.5 153v150q0 96 57.5 153t154.5 57t154.5 -57t57.5 -153v-97zM176 321h248v29q0 66 -31.5 100.5t-92.5 34.5t-92.5 -34.5t-31.5 -100.5v-29zM468 816
q9 14 9 24q0 12 -8.5 18.5t-23.5 6.5h-50v60h55q46 0 73 -20.5t27 -54.5q0 -21 -17 -45l-35 -50h-75zM219 645h-102l143 140h82l141 -140h-105l-75 75h-6z" />
    <glyph glyph-name="uni1EC4" unicode="&#x1ec4;" 
d="M520 0h-420v730h420v-81h-331v-227h296v-81h-296v-260h331v-81zM315.5 967q-18.5 10 -37.5 29q-12 12 -21 18t-22 6q-30 0 -30 -30v-25h-65v20q0 40 26 64t68 24q32 0 50.5 -10t37.5 -29q12 -12 21 -18t22 -6q30 0 30 30v25h65v-20q0 -40 -26 -64t-68 -24q-32 0 -50.5 10
zM213 800h-96l142 135h82l142 -135h-94l-83 73h-10z" />
    <glyph glyph-name="uni1EC5" unicode="&#x1ec5;" 
d="M512 253h-336v-53q0 -66 31.5 -100t92.5 -34q105 0 120 74h90q-9 -69 -66 -109.5t-144 -40.5q-97 0 -154.5 57t-57.5 153v150q0 96 57.5 153t154.5 57t154.5 -57t57.5 -153v-97zM176 321h248v29q0 66 -31.5 100.5t-92.5 34.5t-92.5 -34.5t-31.5 -100.5v-29zM315.5 822
q-18.5 10 -37.5 29q-12 12 -21 18t-22 6q-30 0 -30 -30v-25h-65v20q0 40 26 64t68 24q32 0 50.5 -10t37.5 -29q12 -12 21 -18t22 -6q30 0 30 30v25h65v-20q0 -40 -26 -64t-68 -24q-32 0 -50.5 10zM219 645h-102l143 140h82l141 -140h-105l-75 75h-6z" />
    <glyph glyph-name="uni1EC6" unicode="&#x1ec6;" 
d="M520 0h-420v730h420v-81h-331v-227h296v-81h-296v-260h331v-81zM290 -205q-29 0 -47 16.5t-18 42.5q0 27 18 44t47 17h20q29 0 47 -17t18 -44q0 -26 -18 -42.5t-47 -16.5h-20zM213 805h-96l142 140h82l142 -140h-94l-83 78h-10z" />
    <glyph glyph-name="uni1EC7" unicode="&#x1ec7;" 
d="M512 253h-336v-53q0 -66 31.5 -100t92.5 -34q105 0 120 74h90q-9 -69 -66 -109.5t-144 -40.5q-97 0 -154.5 57t-57.5 153v150q0 96 57.5 153t154.5 57t154.5 -57t57.5 -153v-97zM176 321h248v29q0 66 -31.5 100.5t-92.5 34.5t-92.5 -34.5t-31.5 -100.5v-29zM290 -205
q-29 0 -47 16.5t-18 42.5q0 27 18 44t47 17h20q29 0 47 -17t18 -44q0 -26 -18 -42.5t-47 -16.5h-20zM219 645h-102l143 140h82l141 -140h-105l-75 75h-6z" />
    <glyph glyph-name="uni1EC8" unicode="&#x1ec8;" 
d="M495 0h-390v81h149v568h-149v81h390v-81h-149v-568h149v-81zM321 863q14 20 14 32q0 20 -32 20h-75v65h80q47 0 76 -20.5t29 -54.5q0 -28 -17 -53l-35 -52h-85z" />
    <glyph glyph-name="uni1EC9" unicode="&#x1ec9;" 
d="M545 0h-455v82h205v386h-180v82h270v-468h160v-82zM326 708q14 19 14 32q0 20 -32 20h-80v65h105q39 0 62 -20t23 -54q0 -15 -4.5 -29.5t-12.5 -24.5l-40 -52h-85z" />
    <glyph glyph-name="uni1ECA" unicode="&#x1eca;" 
d="M495 0h-390v81h149v568h-149v81h390v-81h-149v-568h149v-81zM280 -205q-29 0 -47 16.5t-18 42.5q0 27 18 44t47 17h20q29 0 47 -17t18 -44q0 -26 -18 -42.5t-47 -16.5h-20z" />
    <glyph glyph-name="uni1ECB" unicode="&#x1ecb;" 
d="M300 645q-30 0 -47.5 16t-17.5 43t18 44t47 17h20q29 0 47 -17t18 -44t-18 -43t-47 -16h-20zM550 0h-470v82h195v386h-170v82h260v-468h185v-82zM315 -205q-29 0 -47 16.5t-18 42.5q0 27 18 44t47 17h20q29 0 47 -17t18 -44q0 -26 -18 -42.5t-47 -16.5h-20z" />
    <glyph glyph-name="uni1ECC" unicode="&#x1ecc;" 
d="M145 46q-57 56 -57 154v330q0 98 57 154t155 56t155 -56t57 -153v-331q0 -98 -57 -154t-155 -56t-155 56zM390.5 103.5q31.5 33.5 31.5 96.5v330q0 63 -31.5 96.5t-90.5 33.5t-90.5 -33.5t-31.5 -96.5v-330q0 -63 31.5 -96.5t90.5 -33.5t90.5 33.5zM290 -205
q-29 0 -47 16.5t-18 42.5q0 27 18 44t47 17h20q29 0 47 -17t18 -44q0 -26 -18 -42.5t-47 -16.5h-20z" />
    <glyph glyph-name="uni1ECD" unicode="&#x1ecd;" 
d="M145 46q-57 56 -57 154v150q0 98 57 154t155 56t155 -56t57 -153v-151q0 -98 -57 -154t-155 -56t-155 56zM390.5 103.5q31.5 33.5 31.5 96.5v150q0 63 -31.5 96.5t-90.5 33.5t-90.5 -33.5t-31.5 -96.5v-150q0 -63 31.5 -96.5t90.5 -33.5t90.5 33.5zM290 -205
q-29 0 -47 16.5t-18 42.5q0 27 18 44t47 17h20q29 0 47 -17t18 -44q0 -26 -18 -42.5t-47 -16.5h-20z" />
    <glyph glyph-name="uni1ECE" unicode="&#x1ece;" 
d="M145 46q-57 56 -57 154v330q0 98 57 154t155 56t155 -56t57 -153v-331q0 -98 -57 -154t-155 -56t-155 56zM390.5 103.5q31.5 33.5 31.5 96.5v330q0 63 -31.5 96.5t-90.5 33.5t-90.5 -33.5t-31.5 -96.5v-330q0 -63 31.5 -96.5t90.5 -33.5t90.5 33.5zM321 863q14 20 14 32
q0 20 -32 20h-75v65h80q47 0 76 -20.5t29 -54.5q0 -28 -17 -53l-35 -52h-85z" />
    <glyph glyph-name="uni1ECF" unicode="&#x1ecf;" 
d="M145 46q-57 56 -57 154v150q0 98 57 154t155 56t155 -56t57 -153v-151q0 -98 -57 -154t-155 -56t-155 56zM390.5 103.5q31.5 33.5 31.5 96.5v150q0 63 -31.5 96.5t-90.5 33.5t-90.5 -33.5t-31.5 -96.5v-150q0 -63 31.5 -96.5t90.5 -33.5t90.5 33.5zM326 708q14 19 14 32
q0 20 -32 20h-80v65h105q39 0 62 -20t23 -54q0 -15 -4.5 -29.5t-12.5 -24.5l-40 -52h-85z" />
    <glyph glyph-name="uni1ED0" unicode="&#x1ed0;" 
d="M145 46q-57 56 -57 154v330q0 98 57 154t155 56t155 -56t57 -153v-331q0 -98 -57 -154t-155 -56t-155 56zM390.5 103.5q31.5 33.5 31.5 96.5v330q0 63 -31.5 96.5t-90.5 33.5t-90.5 -33.5t-31.5 -96.5v-330q0 -63 31.5 -96.5t90.5 -33.5t90.5 33.5zM514 900h-95l122 130
h100zM219 800h-102l143 140h82l141 -140h-105l-75 75h-6z" />
    <glyph glyph-name="uni1ED1" unicode="&#x1ed1;" 
d="M145 46q-57 56 -57 154v150q0 98 57 154t155 56t155 -56t57 -153v-151q0 -98 -57 -154t-155 -56t-155 56zM390.5 103.5q31.5 33.5 31.5 96.5v150q0 63 -31.5 96.5t-90.5 33.5t-90.5 -33.5t-31.5 -96.5v-150q0 -63 31.5 -96.5t90.5 -33.5t90.5 33.5zM515 755h-95l115 140
h100zM219 645h-102l143 140h82l141 -140h-105l-75 75h-6z" />
    <glyph glyph-name="uni1ED2" unicode="&#x1ed2;" 
d="M145 46q-57 56 -57 154v330q0 98 57 154t155 56t155 -56t57 -153v-331q0 -98 -57 -154t-155 -56t-155 56zM390.5 103.5q31.5 33.5 31.5 96.5v330q0 63 -31.5 96.5t-90.5 33.5t-90.5 -33.5t-31.5 -96.5v-330q0 -63 31.5 -96.5t90.5 -33.5t90.5 33.5zM181 900h-95l-127 130
h100zM219 800h-102l143 140h82l141 -140h-105l-75 75h-6z" />
    <glyph glyph-name="uni1ED3" unicode="&#x1ed3;" 
d="M145 46q-57 56 -57 154v150q0 98 57 154t155 56t155 -56t57 -153v-151q0 -98 -57 -154t-155 -56t-155 56zM390.5 103.5q31.5 33.5 31.5 96.5v150q0 63 -31.5 96.5t-90.5 33.5t-90.5 -33.5t-31.5 -96.5v-150q0 -63 31.5 -96.5t90.5 -33.5t90.5 33.5zM180 755h-95l-120 140
h100zM219 645h-102l143 140h82l141 -140h-105l-75 75h-6z" />
    <glyph glyph-name="uni1ED4" unicode="&#x1ed4;" 
d="M145 46q-57 56 -57 154v330q0 98 57 154t155 56t155 -56t57 -153v-331q0 -98 -57 -154t-155 -56t-155 56zM390.5 103.5q31.5 33.5 31.5 96.5v330q0 63 -31.5 96.5t-90.5 33.5t-90.5 -33.5t-31.5 -96.5v-330q0 -63 31.5 -96.5t90.5 -33.5t90.5 33.5zM468 966q9 14 9 24
q0 12 -8.5 18.5t-23.5 6.5h-50v60h55q46 0 73 -20.5t27 -54.5q0 -21 -17 -45l-35 -50h-75zM219 800h-102l143 140h82l141 -140h-105l-75 75h-6z" />
    <glyph glyph-name="uni1ED5" unicode="&#x1ed5;" 
d="M145 46q-57 56 -57 154v150q0 98 57 154t155 56t155 -56t57 -153v-151q0 -98 -57 -154t-155 -56t-155 56zM390.5 103.5q31.5 33.5 31.5 96.5v150q0 63 -31.5 96.5t-90.5 33.5t-90.5 -33.5t-31.5 -96.5v-150q0 -63 31.5 -96.5t90.5 -33.5t90.5 33.5zM468 816q9 14 9 24
q0 12 -8.5 18.5t-23.5 6.5h-50v60h55q46 0 73 -20.5t27 -54.5q0 -21 -17 -45l-35 -50h-75zM219 645h-102l143 140h82l141 -140h-105l-75 75h-6z" />
    <glyph glyph-name="uni1ED6" unicode="&#x1ed6;" 
d="M145 46q-57 56 -57 154v330q0 98 57 154t155 56t155 -56t57 -153v-331q0 -98 -57 -154t-155 -56t-155 56zM390.5 103.5q31.5 33.5 31.5 96.5v330q0 63 -31.5 96.5t-90.5 33.5t-90.5 -33.5t-31.5 -96.5v-330q0 -63 31.5 -96.5t90.5 -33.5t90.5 33.5zM315.5 967
q-18.5 10 -37.5 29q-12 12 -21 18t-22 6q-30 0 -30 -30v-25h-65v20q0 40 26 64t68 24q32 0 50.5 -10t37.5 -29q12 -12 21 -18t22 -6q30 0 30 30v25h65v-20q0 -40 -26 -64t-68 -24q-32 0 -50.5 10zM213 800h-96l142 135h82l142 -135h-94l-83 73h-10z" />
    <glyph glyph-name="uni1ED7" unicode="&#x1ed7;" 
d="M145 46q-57 56 -57 154v150q0 98 57 154t155 56t155 -56t57 -153v-151q0 -98 -57 -154t-155 -56t-155 56zM390.5 103.5q31.5 33.5 31.5 96.5v150q0 63 -31.5 96.5t-90.5 33.5t-90.5 -33.5t-31.5 -96.5v-150q0 -63 31.5 -96.5t90.5 -33.5t90.5 33.5zM315.5 822
q-18.5 10 -37.5 29q-12 12 -21 18t-22 6q-30 0 -30 -30v-25h-65v20q0 40 26 64t68 24q32 0 50.5 -10t37.5 -29q12 -12 21 -18t22 -6q30 0 30 30v25h65v-20q0 -40 -26 -64t-68 -24q-32 0 -50.5 10zM219 645h-102l143 140h82l141 -140h-105l-75 75h-6z" />
    <glyph glyph-name="uni1ED8" unicode="&#x1ed8;" 
d="M145 46q-57 56 -57 154v330q0 98 57 154t155 56t155 -56t57 -153v-331q0 -98 -57 -154t-155 -56t-155 56zM390.5 103.5q31.5 33.5 31.5 96.5v330q0 63 -31.5 96.5t-90.5 33.5t-90.5 -33.5t-31.5 -96.5v-330q0 -63 31.5 -96.5t90.5 -33.5t90.5 33.5zM290 -205
q-29 0 -47 16.5t-18 42.5q0 27 18 44t47 17h20q29 0 47 -17t18 -44q0 -26 -18 -42.5t-47 -16.5h-20zM213 805h-96l142 140h82l142 -140h-94l-83 78h-10z" />
    <glyph glyph-name="uni1ED9" unicode="&#x1ed9;" 
d="M145 46q-57 56 -57 154v150q0 98 57 154t155 56t155 -56t57 -153v-151q0 -98 -57 -154t-155 -56t-155 56zM390.5 103.5q31.5 33.5 31.5 96.5v150q0 63 -31.5 96.5t-90.5 33.5t-90.5 -33.5t-31.5 -96.5v-150q0 -63 31.5 -96.5t90.5 -33.5t90.5 33.5zM290 -205
q-29 0 -47 16.5t-18 42.5q0 27 18 44t47 17h20q29 0 47 -17t18 -44q0 -26 -18 -42.5t-47 -16.5h-20zM219 645h-102l143 140h82l141 -140h-105l-75 75h-6z" />
    <glyph glyph-name="uni1EDA" unicode="&#x1eda;" 
d="M487 840h75v-105q0 -37 -19 -64t-53 -39q20 -43 20 -101v-331q0 -98 -56 -154t-154 -56t-154 56t-56 154v330q0 98 56 154t154 56q92 0 147 -49q19 2 29.5 15t10.5 34v100zM420 530q0 64 -30.5 97t-89.5 33t-89.5 -33t-30.5 -97v-330q0 -64 30.5 -97t89.5 -33t89.5 33
t30.5 97v330zM330 810h-90l115 135h100z" />
    <glyph glyph-name="uni1EDB" unicode="&#x1edb;" 
d="M476 660h75v-96q0 -35 -18 -61t-50 -37q27 -46 27 -115v-151q0 -98 -56 -154t-154 -56t-154 56t-56 154v150q0 98 56 154t154 56q77 0 130 -36h1q20 0 32.5 12t12.5 33v91zM420 350q0 64 -30.5 97t-89.5 33t-89.5 -33t-30.5 -97v-150q0 -64 30.5 -97t89.5 -33t89.5 33
t30.5 97v150zM330 645h-90l115 140h100z" />
    <glyph glyph-name="uni1EDC" unicode="&#x1edc;" 
d="M487 840h75v-105q0 -37 -19 -64t-53 -39q20 -43 20 -101v-331q0 -98 -56 -154t-154 -56t-154 56t-56 154v330q0 98 56 154t154 56q92 0 147 -49q19 2 29.5 15t10.5 34v100zM420 530q0 64 -30.5 97t-89.5 33t-89.5 -33t-30.5 -97v-330q0 -64 30.5 -97t89.5 -33t89.5 33
t30.5 97v330zM360 810h-95l-125 135h105z" />
    <glyph glyph-name="uni1EDD" unicode="&#x1edd;" 
d="M476 660h75v-96q0 -35 -18 -61t-50 -37q27 -46 27 -115v-151q0 -98 -56 -154t-154 -56t-154 56t-56 154v150q0 98 56 154t154 56q77 0 130 -36h1q20 0 32.5 12t12.5 33v91zM420 350q0 64 -30.5 97t-89.5 33t-89.5 -33t-30.5 -97v-150q0 -64 30.5 -97t89.5 -33t89.5 33
t30.5 97v150zM360 645h-95l-120 140h100z" />
    <glyph glyph-name="uni1EDE" unicode="&#x1ede;" 
d="M487 840h75v-105q0 -37 -19 -64t-53 -39q20 -43 20 -101v-331q0 -98 -56 -154t-154 -56t-154 56t-56 154v330q0 98 56 154t154 56q92 0 147 -49q19 2 29.5 15t10.5 34v100zM420 530q0 64 -30.5 97t-89.5 33t-89.5 -33t-30.5 -97v-330q0 -64 30.5 -97t89.5 -33t89.5 33
t30.5 97v330zM303 863q14 20 14 32q0 20 -32 20h-75v65h80q47 0 76 -20.5t29 -54.5q0 -28 -17 -53l-35 -52h-85z" />
    <glyph glyph-name="uni1EDF" unicode="&#x1edf;" 
d="M476 660h75v-96q0 -35 -18 -61t-50 -37q27 -46 27 -115v-151q0 -98 -56 -154t-154 -56t-154 56t-56 154v150q0 98 56 154t154 56q77 0 130 -36h1q20 0 32.5 12t12.5 33v91zM420 350q0 64 -30.5 97t-89.5 33t-89.5 -33t-30.5 -97v-150q0 -64 30.5 -97t89.5 -33t89.5 33
t30.5 97v150zM308 708q14 19 14 32q0 20 -32 20h-80v65h105q39 0 62 -20t23 -54q0 -15 -4.5 -29.5t-12.5 -24.5l-40 -52h-85z" />
    <glyph glyph-name="uni1EE0" unicode="&#x1ee0;" 
d="M487 840h75v-105q0 -37 -19 -64t-53 -39q20 -43 20 -101v-331q0 -98 -56 -154t-154 -56t-154 56t-56 154v330q0 98 56 154t154 56q92 0 147 -49q19 2 29.5 15t10.5 34v100zM420 530q0 64 -30.5 97t-89.5 33t-89.5 -33t-30.5 -97v-330q0 -64 30.5 -97t89.5 -33t89.5 33
t30.5 97v330zM321 811q-19 11 -39 31q-15 15 -24.5 21.5t-22.5 6.5q-14 0 -22 -9t-8 -26v-30h-65v30q0 44 24.5 69.5t65.5 25.5q30 0 49 -11t39 -31q15 -15 24.5 -21.5t22.5 -6.5q14 0 22 9t8 26v30h65v-30q0 -44 -24.5 -69.5t-65.5 -25.5q-30 0 -49 11z" />
    <glyph glyph-name="uni1EE1" unicode="&#x1ee1;" 
d="M476 660h75v-96q0 -35 -18 -61t-50 -37q27 -46 27 -115v-151q0 -98 -56 -154t-154 -56t-154 56t-56 154v150q0 98 56 154t154 56q77 0 130 -36h1q20 0 32.5 12t12.5 33v91zM420 350q0 64 -30.5 97t-89.5 33t-89.5 -33t-30.5 -97v-150q0 -64 30.5 -97t89.5 -33t89.5 33
t30.5 97v150zM321 661q-19 11 -39 31q-14 14 -24 21t-23 7q-14 0 -22 -9t-8 -26v-30h-65v30q0 44 24.5 69.5t65.5 25.5q30 0 49 -11t39 -31q14 -14 24 -21t23 -7q14 0 22 9t8 26v30h65v-30q0 -44 -24.5 -69.5t-65.5 -25.5q-30 0 -49 11z" />
    <glyph glyph-name="uni1EE2" unicode="&#x1ee2;" 
d="M487 840h75v-105q0 -37 -19 -64t-53 -39q20 -43 20 -101v-331q0 -98 -56 -154t-154 -56t-154 56t-56 154v330q0 98 56 154t154 56q92 0 147 -49q19 2 29.5 15t10.5 34v100zM420 530q0 64 -30.5 97t-89.5 33t-89.5 -33t-30.5 -97v-330q0 -64 30.5 -97t89.5 -33t89.5 33
t30.5 97v330zM290 -205q-29 0 -47 16.5t-18 42.5q0 27 18 44t47 17h20q29 0 47 -17t18 -44q0 -26 -18 -42.5t-47 -16.5h-20z" />
    <glyph glyph-name="uni1EE3" unicode="&#x1ee3;" 
d="M476 660h75v-96q0 -35 -18 -61t-50 -37q27 -46 27 -115v-151q0 -98 -56 -154t-154 -56t-154 56t-56 154v150q0 98 56 154t154 56q77 0 130 -36h1q20 0 32.5 12t12.5 33v91zM420 350q0 64 -30.5 97t-89.5 33t-89.5 -33t-30.5 -97v-150q0 -64 30.5 -97t89.5 -33t89.5 33
t30.5 97v150zM290 -205q-29 0 -47 16.5t-18 42.5q0 27 18 44t47 17h20q29 0 47 -17t18 -44q0 -26 -18 -42.5t-47 -16.5h-20z" />
    <glyph glyph-name="uni1EE4" unicode="&#x1ee4;" 
d="M144.5 45.5q-54.5 55.5 -54.5 154.5v530h90v-530q0 -61 30.5 -95.5t89.5 -34.5t89.5 34.5t30.5 95.5v530h90v-530q0 -99 -54 -154.5t-156 -55.5q-101 0 -155.5 55.5zM290 -205q-29 0 -47 16.5t-18 42.5q0 27 18 44t47 17h20q29 0 47 -17t18 -44q0 -26 -18 -42.5
t-47 -16.5h-20z" />
    <glyph glyph-name="uni1EE5" unicode="&#x1ee5;" 
d="M147 47q-57 57 -57 153v350h90v-350q0 -62 31.5 -96.5t87.5 -34.5q57 0 89 34.5t32 96.5v350h90v-350q0 -96 -57.5 -153t-153.5 -57q-95 0 -152 57zM290 -205q-29 0 -47 16.5t-18 42.5q0 27 18 44t47 17h20q29 0 47 -17t18 -44q0 -26 -18 -42.5t-47 -16.5h-20z" />
    <glyph glyph-name="uni1EE6" unicode="&#x1ee6;" 
d="M144.5 45.5q-54.5 55.5 -54.5 154.5v530h90v-530q0 -61 30.5 -95.5t89.5 -34.5t89.5 34.5t30.5 95.5v530h90v-530q0 -99 -54 -154.5t-156 -55.5q-101 0 -155.5 55.5zM303 863q14 20 14 32q0 20 -32 20h-75v65h80q47 0 76 -20.5t29 -54.5q0 -28 -17 -53l-35 -52h-85z" />
    <glyph glyph-name="uni1EE7" unicode="&#x1ee7;" 
d="M147 47q-57 57 -57 153v350h90v-350q0 -62 31.5 -96.5t87.5 -34.5q57 0 89 34.5t32 96.5v350h90v-350q0 -96 -57.5 -153t-153.5 -57q-95 0 -152 57zM308 708q14 19 14 32q0 20 -32 20h-80v65h105q39 0 62 -20t23 -54q0 -15 -4.5 -29.5t-12.5 -24.5l-40 -52h-85z" />
    <glyph glyph-name="uni1EE8" unicode="&#x1ee8;" 
d="M530 840h75v-80q0 -40 -26 -66t-69 -29v-465q0 -99 -54 -154.5t-156 -55.5q-101 0 -155.5 55.5t-54.5 154.5v530h90v-530q0 -61 30.5 -95.5t89.5 -34.5t89.5 34.5t30.5 95.5v530h75q35 0 35 35v75zM330 810h-90l115 135h100z" />
    <glyph glyph-name="uni1EE9" unicode="&#x1ee9;" 
d="M525 660h75v-80q0 -39 -24.5 -64.5t-65.5 -29.5v-286q0 -96 -57.5 -153t-153.5 -57q-95 0 -152 57t-57 153v350h90v-350q0 -62 31.5 -96.5t87.5 -34.5q57 0 89 34.5t32 96.5v350h70q35 0 35 35v75zM330 645h-90l115 140h100z" />
    <glyph glyph-name="uni1EEA" unicode="&#x1eea;" 
d="M530 840h75v-80q0 -40 -26 -66t-69 -29v-465q0 -99 -54 -154.5t-156 -55.5q-101 0 -155.5 55.5t-54.5 154.5v530h90v-530q0 -61 30.5 -95.5t89.5 -34.5t89.5 34.5t30.5 95.5v530h75q35 0 35 35v75zM360 810h-95l-125 135h105z" />
    <glyph glyph-name="uni1EEB" unicode="&#x1eeb;" 
d="M525 660h75v-80q0 -39 -24.5 -64.5t-65.5 -29.5v-286q0 -96 -57.5 -153t-153.5 -57q-95 0 -152 57t-57 153v350h90v-350q0 -62 31.5 -96.5t87.5 -34.5q57 0 89 34.5t32 96.5v350h70q35 0 35 35v75zM360 645h-95l-120 140h100z" />
    <glyph glyph-name="uni1EEC" unicode="&#x1eec;" 
d="M530 840h75v-80q0 -40 -26 -66t-69 -29v-465q0 -99 -54 -154.5t-156 -55.5q-101 0 -155.5 55.5t-54.5 154.5v530h90v-530q0 -61 30.5 -95.5t89.5 -34.5t89.5 34.5t30.5 95.5v530h75q35 0 35 35v75zM303 863q14 20 14 32q0 20 -32 20h-75v65h80q47 0 76 -20.5t29 -54.5
q0 -28 -17 -53l-35 -52h-85z" />
    <glyph glyph-name="uni1EED" unicode="&#x1eed;" 
d="M525 660h75v-80q0 -39 -24.5 -64.5t-65.5 -29.5v-286q0 -96 -57.5 -153t-153.5 -57q-95 0 -152 57t-57 153v350h90v-350q0 -62 31.5 -96.5t87.5 -34.5q57 0 89 34.5t32 96.5v350h70q35 0 35 35v75zM308 708q14 19 14 32q0 20 -32 20h-80v65h105q39 0 62 -20t23 -54
q0 -15 -4.5 -29.5t-12.5 -24.5l-40 -52h-85z" />
    <glyph glyph-name="uni1EEE" unicode="&#x1eee;" 
d="M530 840h75v-80q0 -40 -26 -66t-69 -29v-465q0 -99 -54 -154.5t-156 -55.5q-101 0 -155.5 55.5t-54.5 154.5v530h90v-530q0 -61 30.5 -95.5t89.5 -34.5t89.5 34.5t30.5 95.5v530h75q35 0 35 35v75zM321 811q-19 11 -39 31q-15 15 -24.5 21.5t-22.5 6.5q-14 0 -22 -9
t-8 -26v-30h-65v30q0 44 24.5 69.5t65.5 25.5q30 0 49 -11t39 -31q15 -15 24.5 -21.5t22.5 -6.5q14 0 22 9t8 26v30h65v-30q0 -44 -24.5 -69.5t-65.5 -25.5q-30 0 -49 11z" />
    <glyph glyph-name="uni1EEF" unicode="&#x1eef;" 
d="M525 660h75v-80q0 -39 -24.5 -64.5t-65.5 -29.5v-286q0 -96 -57.5 -153t-153.5 -57q-95 0 -152 57t-57 153v350h90v-350q0 -62 31.5 -96.5t87.5 -34.5q57 0 89 34.5t32 96.5v350h70q35 0 35 35v75zM321 661q-19 11 -39 31q-14 14 -24 21t-23 7q-14 0 -22 -9t-8 -26v-30
h-65v30q0 44 24.5 69.5t65.5 25.5q30 0 49 -11t39 -31q14 -14 24 -21t23 -7q14 0 22 9t8 26v30h65v-30q0 -44 -24.5 -69.5t-65.5 -25.5q-30 0 -49 11z" />
    <glyph glyph-name="uni1EF0" unicode="&#x1ef0;" 
d="M530 840h75v-80q0 -40 -26 -66t-69 -29v-465q0 -99 -54 -154.5t-156 -55.5q-101 0 -155.5 55.5t-54.5 154.5v530h90v-530q0 -61 30.5 -95.5t89.5 -34.5t89.5 34.5t30.5 95.5v530h75q35 0 35 35v75zM290 -205q-29 0 -47 16.5t-18 42.5q0 27 18 44t47 17h20q29 0 47 -17
t18 -44q0 -26 -18 -42.5t-47 -16.5h-20z" />
    <glyph glyph-name="uni1EF1" unicode="&#x1ef1;" 
d="M525 660h75v-80q0 -39 -24.5 -64.5t-65.5 -29.5v-286q0 -96 -57.5 -153t-153.5 -57q-95 0 -152 57t-57 153v350h90v-350q0 -62 31.5 -96.5t87.5 -34.5q57 0 89 34.5t32 96.5v350h70q35 0 35 35v75zM290 -205q-29 0 -47 16.5t-18 42.5q0 27 18 44t47 17h20q29 0 47 -17
t18 -44q0 -26 -18 -42.5t-47 -16.5h-20z" />
    <glyph glyph-name="Ygrave" unicode="&#x1ef2;" 
d="M255 0v273l-220 457h93l145 -300q20 -43 28 -68q8 25 29 68l142 300h93l-220 -457v-273h-90zM360 810h-95l-125 135h105z" />
    <glyph glyph-name="ygrave" unicode="&#x1ef3;" 
d="M181 -180l81 214l-202 516h100l123 -340q10 -29 23 -80q12 51 22 80l115 340h97l-263 -730h-96zM360 645h-95l-120 140h100z" />
    <glyph glyph-name="uni1EF4" unicode="&#x1ef4;" 
d="M255 0v273l-220 457h93l145 -300q20 -43 28 -68q8 25 29 68l142 300h93l-220 -457v-273h-90zM290 -205q-29 0 -47 16.5t-18 42.5q0 27 18 44t47 17h20q29 0 47 -17t18 -44q0 -26 -18 -42.5t-47 -16.5h-20z" />
    <glyph glyph-name="uni1EF5" unicode="&#x1ef5;" 
d="M181 -180l81 214l-202 516h100l123 -340q10 -29 23 -80q12 51 22 80l115 340h97l-263 -730h-96zM440 -205q-29 0 -47 16.5t-18 42.5q0 27 18 44t47 17h20q29 0 47 -17t18 -44q0 -26 -18 -42.5t-47 -16.5h-20z" />
    <glyph glyph-name="uni1EF6" unicode="&#x1ef6;" 
d="M255 0v273l-220 457h93l145 -300q20 -43 28 -68q8 25 29 68l142 300h93l-220 -457v-273h-90zM303 863q14 20 14 32q0 20 -32 20h-75v65h80q47 0 76 -20.5t29 -54.5q0 -28 -17 -53l-35 -52h-85z" />
    <glyph glyph-name="uni1EF7" unicode="&#x1ef7;" 
d="M181 -180l81 214l-202 516h100l123 -340q10 -29 23 -80q12 51 22 80l115 340h97l-263 -730h-96zM308 708q14 19 14 32q0 20 -32 20h-80v65h105q39 0 62 -20t23 -54q0 -15 -4.5 -29.5t-12.5 -24.5l-40 -52h-85z" />
    <glyph glyph-name="uni1EF8" unicode="&#x1ef8;" 
d="M255 0v273l-220 457h93l145 -300q20 -43 28 -68q8 25 29 68l142 300h93l-220 -457v-273h-90zM321 811q-19 11 -39 31q-15 15 -24.5 21.5t-22.5 6.5q-14 0 -22 -9t-8 -26v-30h-65v30q0 44 24.5 69.5t65.5 25.5q30 0 49 -11t39 -31q15 -15 24.5 -21.5t22.5 -6.5q14 0 22 9
t8 26v30h65v-30q0 -44 -24.5 -69.5t-65.5 -25.5q-30 0 -49 11z" />
    <glyph glyph-name="uni1EF9" unicode="&#x1ef9;" 
d="M181 -180l81 214l-202 516h100l123 -340q10 -29 23 -80q12 51 22 80l115 340h97l-263 -730h-96zM321 661q-19 11 -39 31q-14 14 -24 21t-23 7q-14 0 -22 -9t-8 -26v-30h-65v30q0 44 24.5 69.5t65.5 25.5q30 0 49 -11t39 -31q14 -14 24 -21t23 -7q14 0 22 9t8 26v30h65
v-30q0 -44 -24.5 -69.5t-65.5 -25.5q-30 0 -49 11z" />
    <glyph glyph-name="uni2010" unicode="&#x2010;" 
d="M515 290h-430v80h430v-80z" />
    <glyph glyph-name="endash" unicode="&#x2013;" 
d="M530 290h-460v80h460v-80z" />
    <glyph glyph-name="emdash" unicode="&#x2014;" 
d="M585 290h-570v80h570v-80z" />
    <glyph glyph-name="quoteleft" unicode="&#x2018;" 
d="M360 775h80l-80 -311h-130z" />
    <glyph glyph-name="quoteright" unicode="&#x2019;" 
d="M240 465h-80l80 311h130z" />
    <glyph glyph-name="quotesinglbase" unicode="&#x201a;" 
d="M245 -160h-80l80 311h130z" />
    <glyph glyph-name="quotedblleft" unicode="&#x201c;" 
d="M205 465h-130l130 311h80zM435 465h-130l130 311h80z" />
    <glyph glyph-name="quotedblright" unicode="&#x201d;" 
d="M165 465h-80l80 311h130zM395 465h-80l80 311h130z" />
    <glyph glyph-name="quotedblbase" unicode="&#x201e;" 
d="M165 -160h-80l80 311h130zM395 -160h-80l80 311h130z" />
    <glyph glyph-name="dagger" unicode="&#x2020;" 
d="M345 -110h-90v630h-175v80h175v230h90v-230h175v-80h-175v-630z" />
    <glyph glyph-name="daggerdbl" unicode="&#x2021;" 
d="M345 -110h-90v250h-175v80h175v290h-175v80h175v240h90v-240h175v-80h-175v-290h175v-80h-175v-250z" />
    <glyph glyph-name="bullet" unicode="&#x2022;" 
d="M214 279q-34 34 -34 86q0 53 34 86.5t86 33.5q53 0 86.5 -33.5t33.5 -86.5q0 -52 -33.5 -86t-86.5 -34q-52 0 -86 34z" />
    <glyph glyph-name="onedotenleader" unicode="&#x2024;" 
d="M290 -10q-32 0 -53.5 23t-21.5 57t21.5 57t53.5 23h20q32 0 53.5 -23t21.5 -57t-21.5 -57t-53.5 -23h-20z" />
    <glyph glyph-name="ellipsis" unicode="&#x2026;" 
d="M74 5q-14 15 -14 40v70q0 25 14 40t36 15q23 0 36.5 -15t13.5 -40v-70q0 -25 -13.5 -40t-36.5 -15q-22 0 -36 15zM264 5q-14 15 -14 40v70q0 25 14 40t36 15q23 0 36.5 -15t13.5 -40v-70q0 -25 -13.5 -40t-36.5 -15q-22 0 -36 15zM453.5 5q-13.5 15 -13.5 40v70
q0 25 13.5 40t36.5 15t36.5 -15t13.5 -40v-70q0 -25 -13.5 -40t-36.5 -15t-36.5 15z" />
    <glyph glyph-name="perthousand" unicode="&#x2030;" 
d="M32 471q-32 31 -32 84v65q0 53 32 84t88 31t88 -31t32 -84v-65q0 -53 -32 -84t-88 -31t-88 31zM52 0h-60l397 730h60zM176 555v65q0 56 -56 56t-56 -56v-65q0 -56 56 -56t56 56zM241.5 24.5q-28.5 29.5 -28.5 80.5v90q0 51 28.5 80.5t78.5 29.5q39 0 60.5 -18.5
t25.5 -45.5q5 27 26.5 45.5t60.5 18.5q50 0 78.5 -29.5t28.5 -80.5v-90q0 -51 -28.5 -80.5t-78.5 -29.5q-39 0 -60.5 18.5t-25.5 45.5q-5 -27 -26.5 -45.5t-60.5 -18.5q-50 0 -78.5 29.5zM364 62q14 15 14 43v90q0 28 -14 43t-40 15q-25 0 -38.5 -15t-13.5 -43v-90
q0 -58 52 -58q26 0 40 15zM541 105v90q0 58 -52 58q-26 0 -40 -15t-14 -43v-90q0 -28 14 -43t40 -15q52 0 52 58z" />
    <glyph glyph-name="minute" unicode="&#x2032;" 
d="M245 465h-80l80 311h130z" />
    <glyph glyph-name="second" unicode="&#x2033;" 
d="M165 465h-80l80 311h130zM395 465h-80l80 311h130z" />
    <glyph glyph-name="guilsinglleft" unicode="&#x2039;" 
d="M454 40h-105l-202 240l202 240h102l-204 -238z" />
    <glyph glyph-name="guilsinglright" unicode="&#x203a;" 
d="M252 40h-102l204 238l-207 242h105l202 -240z" />
    <glyph glyph-name="fraction" unicode="&#x2044;" 
d="M153 0h-63l357 730h63z" />
    <glyph glyph-name="uni2070" unicode="&#x2070;" 
d="M186.5 434.5q-41.5 39.5 -41.5 109.5v148q0 69 41.5 108.5t113.5 39.5t113.5 -39.5t41.5 -108.5v-148q0 -70 -41.5 -109.5t-113.5 -39.5t-113.5 39.5zM362.5 481q22.5 23 22.5 63v148q0 40 -22.5 62.5t-62.5 22.5t-62.5 -22.5t-22.5 -62.5v-148q0 -40 22.5 -63t62.5 -23
t62.5 23z" />
    <glyph glyph-name="uni2074" unicode="&#x2074;" 
d="M428 405h-70v92h-212v93l170 241h78l-178 -255v-15h142v104h70v-260z" />
    <glyph glyph-name="uni2075" unicode="&#x2075;" 
d="M401.5 636q33.5 -36 33.5 -98q0 -66 -40.5 -104.5t-109.5 -38.5q-62 0 -101.5 32.5t-46.5 87.5h70q5 -26 26 -41.5t52 -15.5q36 0 57 21.5t21 58.5t-21.5 58.5t-58.5 21.5q-20 0 -37.5 -8t-26.5 -22h-65v242h262v-64h-192v-138q13 21 35.5 32.5t51.5 11.5q57 0 90.5 -36z
" />
    <glyph glyph-name="uni2076" unicode="&#x2076;" 
d="M422.5 635q32.5 -36 32.5 -97q0 -65 -42 -104t-112 -39q-71 0 -113.5 39t-42.5 104q0 31 11 66.5t29 63.5l107 162h76l-125 -193h8q13 16 35 25t49 9q55 0 87.5 -36zM361.5 478.5q22.5 21.5 22.5 59.5t-22.5 59.5t-61.5 21.5q-38 0 -61 -22t-23 -59t23 -59t61 -22
q39 0 61.5 21.5z" />
    <glyph glyph-name="uni2077" unicode="&#x2077;" 
d="M290 405h-79l167 361h-154v-63h-69v127h290v-80z" />
    <glyph glyph-name="uni2078" unicode="&#x2078;" 
d="M429 592q23 -29 23 -73q0 -57 -41.5 -90.5t-110.5 -33.5t-110.5 33t-41.5 89q0 46 22 75.5t64 36.5q-37 7 -57 32.5t-20 66.5q0 52 39 82t104 30t104 -30t39 -82q0 -39 -20.5 -65.5t-56.5 -33.5q40 -8 63 -37zM247 769q-19 -17 -19 -47q0 -33 19 -51.5t53 -18.5
t53.5 18.5t19.5 51.5q0 30 -19.5 47t-53.5 17t-53 -17zM360 469.5q22 19.5 22 54.5q0 37 -22 58t-60 21t-59.5 -21t-21.5 -58q0 -34 21.5 -54t59.5 -20t60 19.5z" />
    <glyph glyph-name="uni2079" unicode="&#x2079;" 
d="M413.5 801q42.5 -39 42.5 -104q0 -29 -11 -64.5t-30 -63.5l-106 -164h-77l126 193h-8q-13 -16 -35 -25t-49 -9q-55 0 -87.5 36t-32.5 97q0 65 42 104t112 39q71 0 113.5 -39zM362 638q23 22 23 59t-23 59t-61 22q-39 0 -61.5 -21.5t-22.5 -59.5t22.5 -59.5t61.5 -21.5
q38 0 61 22z" />
    <glyph glyph-name="uni207A" unicode="&#x207a;" 
d="M340 305h-80v105h-100v70h100v105h80v-105h100v-70h-100v-105z" />
    <glyph glyph-name="uni2080" unicode="&#x2080;" 
d="M186.5 -80.5q-41.5 39.5 -41.5 109.5v148q0 69 41.5 108.5t113.5 39.5t113.5 -39.5t41.5 -108.5v-148q0 -70 -41.5 -109.5t-113.5 -39.5t-113.5 39.5zM362.5 -34q22.5 23 22.5 63v148q0 40 -22.5 62.5t-62.5 22.5t-62.5 -22.5t-22.5 -62.5v-148q0 -40 22.5 -63t62.5 -23
t62.5 23z" />
    <glyph glyph-name="uni2081" unicode="&#x2081;" 
d="M460 -110h-305v64h131v298l-122 -87v79l97 71h95v-361h104v-64z" />
    <glyph glyph-name="uni2082" unicode="&#x2082;" 
d="M166 -110v87l162 121q22 16 34.5 38t12.5 45q0 37 -21 59t-56 22t-56 -22t-21 -59h-70q3 66 43 105t104 39q67 0 106.5 -38.5t39.5 -103.5q0 -35 -21 -71t-58 -63l-128 -95h218v-64h-289z" />
    <glyph glyph-name="uni2083" unicode="&#x2083;" 
d="M316 152q54 -8 85 -42.5t31 -89.5q0 -65 -40 -102.5t-108 -37.5t-108 37.5t-40 102.5h69q0 -35 21 -56t58 -21q35 0 55.5 21t20.5 56t-20 55.5t-55 20.5h-30v67l93 89h-183v64h240v-79z" />
    <glyph glyph-name="uni2084" unicode="&#x2084;" 
d="M428 -110h-70v92h-212v93l170 241h78l-178 -255v-15h142v104h70v-260z" />
    <glyph glyph-name="uni2085" unicode="&#x2085;" 
d="M401.5 121q33.5 -36 33.5 -98q0 -66 -40.5 -104.5t-109.5 -38.5q-62 0 -101.5 32.5t-46.5 87.5h70q5 -26 26 -41.5t52 -15.5q36 0 57 21.5t21 58.5t-21.5 58.5t-58.5 21.5q-20 0 -37.5 -8t-26.5 -22h-65v242h262v-64h-192v-138q13 21 35.5 32.5t51.5 11.5q57 0 90.5 -36z
" />
    <glyph glyph-name="uni2086" unicode="&#x2086;" 
d="M422.5 120q32.5 -36 32.5 -97q0 -65 -42 -104t-112 -39q-71 0 -113.5 39t-42.5 104q0 31 11 66.5t29 63.5l107 162h76l-125 -193h8q13 16 35 25t49 9q55 0 87.5 -36zM361.5 -36.5q22.5 21.5 22.5 59.5t-22.5 59.5t-61.5 21.5q-38 0 -61 -22t-23 -59t23 -59t61 -22
q39 0 61.5 21.5z" />
    <glyph glyph-name="uni2087" unicode="&#x2087;" 
d="M290 -110h-79l167 361h-154v-63h-69v127h290v-80z" />
    <glyph glyph-name="uni2088" unicode="&#x2088;" 
d="M429 67q23 -29 23 -73q0 -57 -41.5 -90.5t-110.5 -33.5t-110.5 33t-41.5 89q0 46 22 75.5t64 36.5q-37 7 -57 32.5t-20 66.5q0 52 39 82t104 30t104 -30t39 -82q0 -39 -20.5 -65.5t-56.5 -33.5q40 -8 63 -37zM247 244q-19 -17 -19 -47q0 -33 19 -51.5t53 -18.5t53.5 18.5
t19.5 51.5q0 30 -19.5 47t-53.5 17t-53 -17zM360 -55.5q22 19.5 22 54.5q0 37 -22 58t-60 21t-59.5 -21t-21.5 -58q0 -34 21.5 -54t59.5 -20t60 19.5z" />
    <glyph glyph-name="uni2089" unicode="&#x2089;" 
d="M413.5 286q42.5 -39 42.5 -104q0 -29 -11 -64.5t-30 -63.5l-106 -164h-77l126 193h-8q-13 -16 -35 -25t-49 -9q-55 0 -87.5 36t-32.5 97q0 65 42 104t112 39q71 0 113.5 -39zM362 123q23 22 23 59t-23 59t-61 22q-39 0 -61.5 -21.5t-22.5 -59.5t22.5 -59.5t61.5 -21.5
q38 0 61 22z" />
    <glyph glyph-name="dong" unicode="&#x20ab;" 
d="M506 645h94v-75h-94v-510h-90v105h-1q-7 -54 -46 -84.5t-101 -30.5q-82 0 -130 54.5t-48 149.5v41q0 95 47.5 150t130.5 55q61 0 100.5 -31t46.5 -84h3l-2 125v60h-116v75h116v85h90v-85zM416 290q0 62 -31 97t-87 35q-57 0 -87.5 -34t-30.5 -98v-30q0 -64 30.5 -98
t87.5 -34q56 0 87 35t31 97v30zM510 -80h-420v80h420v-80z" />
    <glyph glyph-name="Euro" unicode="&#x20ac;" 
d="M159.5 48.5q-59.5 58.5 -59.5 156.5v40h-81v65h81v100h-81v65h81v40q0 98 59.5 156.5t160.5 58.5q93 0 151 -51.5t69 -143.5h-90q-6 54 -40.5 84.5t-89.5 30.5q-60 0 -95 -36t-35 -99v-40h165v-65h-165v-100h165v-65h-165v-40q0 -63 34.5 -99t95.5 -36q55 0 89.5 30.5
t40.5 84.5h90q-11 -92 -69 -143.5t-151 -51.5q-101 0 -160.5 58.5z" />
    <glyph glyph-name="uni20AE" unicode="&#x20ae;" 
d="M344 0h-88v183l-176 -48v75l176 48v100l-176 -48v75l176 48v218h-211v79h510v-79h-211v-194l176 48v-75l-176 -48v-100l176 48v-75l-176 -48v-207z" />
    <glyph glyph-name="uni20BD" unicode="&#x20bd;" 
d="M110 0v155h-80v80h80v85h-80v80h80v330h223q65 0 114 -25.5t76 -72t27 -107.5t-27 -107.5t-76 -72t-114 -25.5h-133v-85h230v-80h-230v-155h-90zM333 400q57 0 90.5 34t33.5 91t-33.5 91t-90.5 34h-133v-250h133z" />
    <glyph glyph-name="uni2113" unicode="&#x2113;" 
d="M500 101q-21 -42 -63 -71.5t-100 -29.5q-77 0 -122 43t-45 117v74l-70 -27l-30 81l100 37v260q0 70 44 112.5t116 42.5q73 0 116.5 -42.5t43.5 -112.5v-85q0 -68 -39.5 -121.5t-109.5 -79.5l-81 -31v-108q0 -37 20.5 -57.5t56.5 -20.5q30 0 55 17.5t40 43.5zM260 358
l53 19q42 16 64.5 47.5t22.5 75.5v85q0 35 -18 54t-52 19q-33 0 -51.5 -19.5t-18.5 -53.5v-227z" />
    <glyph glyph-name="uni2115" unicode="&#x2115;" 
d="M90 0v730h129l246 -560q-4 82 -4 130v430h49v-730h-129l-246 560q4 -83 4 -130v-430h-49zM124 691l286 -652h66l-286 652h-66z" />
    <glyph glyph-name="uni2116" unicode="&#x2116;" 
d="M427 329q-27 29 -27 76v230q0 47 27 76t68 29t68 -29t27 -76v-230q0 -47 -27 -76t-68 -29t-68 29zM30 0v730h95l117 -453q14 -55 45 -192q-12 139 -12 205v440h70v-730h-95l-114 454l-46 192q10 -135 10 -206v-440h-70zM520 364.5q10 9.5 10 30.5v250q0 17 -10.5 28.5
t-24.5 11.5t-24.5 -11.5t-10.5 -28.5v-250q0 -21 10 -30.5t25 -9.5t25 9.5z" />
    <glyph glyph-name="trademark" unicode="&#x2122;" 
d="M175 370h-60v310h-100v50h260v-50h-100v-310zM310 370v360h80l34 -102q9 -25 16 -71q5 46 14 71l33 102h78v-360h-55v221q0 47 7 109l-23 -80l-30 -103h-51l-33 104l-23 79q8 -62 8 -109v-221h-55z" />
    <glyph glyph-name="estimated" unicode="&#x212e;" 
d="M540 359h-380v-259q18 -27 54 -46t86 -19q59 0 108 30.5t69 79.5h50q-24 -70 -86.5 -112.5t-140.5 -42.5q-71 0 -125.5 32.5t-84.5 91.5t-30 136v230q0 77 30 136t84.5 91.5t125.5 32.5q72 0 126.5 -32t84 -91t29.5 -137v-121zM214 676q-36 -19 -54 -46v-221h280v221
q-18 27 -54 46t-86 19t-86 -19z" />
    <glyph glyph-name="arrowleft" unicode="&#x2190;" 
d="M272 35l-232 295l231 295h106l-162 -205q-17 -22 -45 -45v-9q42 4 70 4h330v-80h-330q-29 0 -70 5v-9q23 -20 45 -47l162 -204h-105z" />
    <glyph glyph-name="arrowup" unicode="&#x2191;" 
d="M255 520q0 38 5 80h-10q-17 -22 -55 -54l-185 -158v105l291 247l289 -246v-105l-186 158q-38 32 -54 53h-10q5 -42 5 -80v-520h-90v520z" />
    <glyph glyph-name="arrowright" unicode="&#x2192;" 
d="M395 240q17 22 45 45v9q-41 -4 -70 -4h-330v80h330q28 0 70 -5v9q-23 20 -45 47l-162 204h105l232 -295l-231 -295h-106z" />
    <glyph glyph-name="arrowdown" unicode="&#x2193;" 
d="M299 -10l-289 246v105l186 -158q38 -32 54 -53h10q-5 42 -5 80v520h90v-520q0 -38 -5 -80h10q17 22 55 54l185 158v-105z" />
    <glyph glyph-name="arrowboth" unicode="&#x2194;" 
d="M152 35l-232 295l231 295h106l-162 -205q-17 -22 -45 -45v-9q42 4 70 4h360q28 0 70 -5v9q-23 20 -45 47l-162 204h105l232 -295l-231 -295h-106l162 205q17 22 45 45v9q-41 -4 -70 -4h-360q-29 0 -70 5v-9q23 -20 45 -47l162 -204h-105z" />
    <glyph glyph-name="arrowupdn" unicode="&#x2195;" 
d="M300 -170l-290 246v105l186 -158q38 -32 54 -53h10q-5 42 -5 80v630q0 38 5 80h-10q-17 -22 -55 -54l-185 -158v105l290 247l290 -246v-105l-186 158q-38 32 -54 53h-10q5 -42 5 -80v-630q0 -38 -5 -80h10q17 22 55 54l185 158v-105z" />
    <glyph glyph-name="uni2196" unicode="&#x2196;" 
d="M174 433q-25 25 -50 58l-7 -2q8 -42 8 -85v-199h-80v415h415v-78h-195q-43 0 -80 5l-1 -7q30 -23 53 -46l353 -356l-61 -63z" />
    <glyph glyph-name="uni2197" unicode="&#x2197;" 
d="M69 76l-59 62l353 356q23 23 53 46l-1 7q-37 -5 -80 -5h-195v78h415v-415h-80v199q0 43 6 86l-7 2q-25 -33 -50 -58z" />
    <glyph glyph-name="uni2198" unicode="&#x2198;" 
d="M140 75v78h195q43 0 80 -5l1 7q-30 23 -53 46l-353 356l61 63l355 -358q25 -25 50 -58l7 2q-8 42 -8 85v199h80v-415h-415z" />
    <glyph glyph-name="uni2199" unicode="&#x2199;" 
d="M45 75v415h80v-199q0 -43 -7 -87l7 -2q25 33 50 58l355 358l60 -61l-353 -356q-23 -23 -53 -46l1 -7q37 5 80 5h195v-78h-415z" />
    <glyph glyph-name="universal" unicode="&#x2200;" 
d="M408 528l50 202h92l-190 -730h-121l-189 730h91l50 -202h217zM390 452h-180l54 -217q22 -90 36 -165q14 75 36 164z" />
    <glyph glyph-name="partialdiff" unicode="&#x2202;" 
d="M296 730q90 -53 152 -137.5t62 -187.5v-200q0 -100 -56.5 -157.5t-153.5 -57.5q-98 0 -154 57t-56 158v80q0 99 48.5 154.5t135.5 55.5q62 0 100 -27.5t45 -77.5h1v25q0 97 -75.5 179.5t-183.5 135.5h135zM420 285q0 66 -30.5 100.5t-89.5 34.5q-58 0 -89 -35t-31 -100
v-80q0 -65 31 -100t89 -35t89 35t31 100v80z" />
    <glyph glyph-name="existential" unicode="&#x2203;" 
d="M500 0h-420v82h330v258h-295v82h295v226h-330v82h420v-730z" />
    <glyph glyph-name="element" unicode="&#x2208;" 
d="M265 70q-62 0 -115 28.5t-84 78.5t-31 111v144q0 61 31 111t84 78.5t115 28.5h305v-80h-305q-39 0 -71 -19.5t-50.5 -51.5t-18.5 -69v-30h445v-80h-445v-30q0 -37 18.5 -69t50.5 -51.5t71 -19.5h305v-80h-305z" />
    <glyph glyph-name="notelement" unicode="&#x2209;" 
d="M570 570h-164l-60 -170h224v-80h-253l-60 -170h8h305v-80h-305q-19 0 -35 3l-47 -133h-63l52 148q-61 25 -99 78.5t-38 121.5v144q0 61 31 111t84 78.5t115 28.5h106l46 130h63l-46 -130h136v-80zM283 400l60 170h-78q-39 0 -71 -19.5t-50.5 -51.5t-18.5 -69v-30h158z
M254 320h-129v-30q0 -39 20.5 -72.5t54.5 -51.5z" />
    <glyph glyph-name="suchthat" unicode="&#x220b;" 
d="M35 70v80h305q39 0 71 19.5t50.5 51.5t18.5 69v30h-445v80h445v30q0 37 -18.5 69t-50.5 51.5t-71 19.5h-305v80h305q62 0 115 -28.5t84 -78.5t31 -111v-144q0 -61 -31 -111t-84 -78.5t-115 -28.5h-305z" />
    <glyph glyph-name="uni220C" unicode="&#x220c;" 
d="M428 634q64 -25 103 -79.5t39 -122.5v-144q0 -61 -31 -111t-84 -78.5t-115 -28.5h-111l-46 -130h-63l46 130h-131v80h159l60 170h-219v80h248l60 170h-3h-305v80h305q10 0 30 -2l47 132h63zM480 400v30q0 40 -22 74.5t-57 51.5l-55 -156h134zM480 320h-163l-60 -170h83
q39 0 71 19.5t50.5 51.5t18.5 69v30z" />
    <glyph glyph-name="product" unicode="&#x220f;" 
d="M200 -180h-90v828h-70v82h520v-82h-70v-828h-90v828h-200v-828z" />
    <glyph glyph-name="uni2210" unicode="&#x2210;" 
d="M560 -180h-520v82h65v828h90v-828h210v828h90v-828h65v-82z" />
    <glyph glyph-name="summation" unicode="&#x2211;" 
d="M540 -180h-485v82l318 372l-318 374v82h485v-80h-375l274 -323v-103l-280 -324h381v-80z" />
    <glyph glyph-name="minus" unicode="&#x2212;" 
d="M515 290h-430v80h430v-80z" />
    <glyph glyph-name="uni2215" unicode="&#x2215;" 
d="M153 0h-63l357 730h63z" />
    <glyph glyph-name="uni2219" unicode="&#x2219;" 
d="M290 240q-32 0 -53.5 23t-21.5 57t21.5 57t53.5 23h20q32 0 53.5 -23t21.5 -57t-21.5 -57t-53.5 -23h-20z" />
    <glyph glyph-name="radical" unicode="&#x221a;" 
d="M268 0l-127 470h-111v80h175l99 -389q14 -58 13 -96h9q-1 39 15 96l160 569h84l-212 -730h-105z" />
    <glyph glyph-name="infinity" unicode="&#x221e;" 
d="M71 197q-36 37 -36 98v75q0 61 37.5 98t99.5 37q51 0 86 -25.5t52 -73.5h3q11 41 41.5 70t79.5 29q59 0 95 -37t36 -98v-75q0 -61 -37.5 -98t-99.5 -37q-51 0 -86 25.5t-52 73.5h-3q-11 -41 -41.5 -70t-79.5 -29q-59 0 -95 37zM244.5 250.5q21.5 30.5 27.5 58.5l-31 84
q-22 52 -66 52q-31 0 -50.5 -20.5t-19.5 -54.5v-75q0 -34 19.5 -54.5t50.5 -20.5q48 0 69.5 30.5zM476 240.5q19 20.5 19 54.5v75q0 34 -19 54.5t-51 20.5q-48 0 -69.5 -30.5t-27.5 -58.5l31 -84q22 -52 66 -52q32 0 51 20.5z" />
    <glyph glyph-name="uni2223" unicode="&#x2223;" 
d="M345 0h-90v730h90v-730z" />
    <glyph glyph-name="uni2225" unicode="&#x2225;" 
d="M245 0h-90v730h90v-730zM445 0h-90v730h90v-730z" />
    <glyph glyph-name="logicaland" unicode="&#x2227;" 
d="M60 50l179 500h122l179 -500h-92l-117 320q-21 56 -33 111q-13 -55 -33 -111l-114 -320h-91z" />
    <glyph glyph-name="logicalor" unicode="&#x2228;" 
d="M239 50l-179 500h92l117 -320q21 -56 33 -111q13 55 33 111l114 320h91l-179 -500h-122z" />
    <glyph glyph-name="integral" unicode="&#x222b;" 
d="M0 -180v82h105q53 0 84 30.5t31 82.5v576q0 66 40.5 102.5t113.5 36.5h161v-80h-161q-64 0 -64 -60v-575q0 -88 -56 -141.5t-149 -53.5h-105z" />
    <glyph glyph-name="uni2237" unicode="&#x2237;" 
d="M78 370.5q-23 22.5 -23 58.5t23 58.5t59 22.5t59 -22.5t23 -58.5t-23 -58.5t-59 -22.5t-59 22.5zM403 370.5q-23 22.5 -23 58.5t23 58.5t59 22.5t59 -22.5t23 -58.5t-23 -58.5t-59 -22.5t-59 22.5zM78 12.5q-23 22.5 -23 58.5t23 58.5t59 22.5t59 -22.5t23 -58.5
t-23 -58.5t-59 -22.5t-59 22.5zM403 12.5q-23 22.5 -23 58.5t23 58.5t59 22.5t59 -22.5t23 -58.5t-23 -58.5t-59 -22.5t-59 22.5z" />
    <glyph glyph-name="similar" unicode="&#x223c;" 
d="M65 325q0 59 36 94.5t94 35.5q48 0 76.5 -20.5t61.5 -59.5q21 -26 36 -38t34 -12q23 0 35 14t12 41v70h85v-70q0 -58 -36 -94t-94 -36q-48 0 -76.5 20.5t-61.5 59.5q-21 26 -36 38t-34 12q-23 0 -35 -14t-12 -41v-70h-85v70z" />
    <glyph glyph-name="approxequal" unicode="&#x2248;" 
d="M65 425q0 59 36 94.5t94 35.5q48 0 76.5 -20.5t61.5 -59.5q21 -26 36 -38t34 -12q23 0 35 14t12 41v70h85v-70q0 -58 -36 -94t-94 -36q-48 0 -76.5 20.5t-61.5 59.5q-21 26 -36 38t-34 12q-23 0 -35 -14t-12 -41v-70h-85v70zM65 180q0 59 36 94.5t94 35.5
q48 0 76.5 -20.5t61.5 -59.5q21 -26 36 -38t34 -12q23 0 35 14t12 41v70h85v-70q0 -58 -36 -94t-94 -36q-48 0 -76.5 20.5t-61.5 59.5q-21 26 -36 38t-34 12q-23 0 -35 -14t-12 -41v-70h-85v70z" />
    <glyph glyph-name="uni2249" unicode="&#x2249;" 
d="M334 368l-35 -100q9 -9 33 -37q23 -27 37.5 -39t33.5 -12q23 0 35 14t12 41v70h85v-70q0 -58 -36 -94t-94 -36q-47 0 -76 20.5t-60 57.5l-86 -243h-63l102 289q-12 6 -25 6q-23 0 -35 -14t-12 -41v-70h-85v70q0 59 36 94.5t94 35.5q29 0 53 -9l38 107l-17 20
q-22 27 -37.5 39.5t-34.5 12.5q-23 0 -35 -14t-12 -41v-70h-85v70q0 59 36 94.5t94 35.5q40 0 68.5 -16t52.5 -44l101 285h63l-119 -336q21 -19 42 -19q23 0 35 14t12 41v70h85v-70q0 -58 -36 -94t-94 -36q-40 0 -71 18z" />
    <glyph glyph-name="notequal" unicode="&#x2260;" 
d="M515 490v-80h-166l-56 -160h222v-80h-251l-81 -230h-63l81 230h-116v80h145l56 160h-201v80h229l103 290h63l-103 -290h138z" />
    <glyph glyph-name="equivalence" unicode="&#x2261;" 
d="M520 480h-440v70h440v-70zM520 295h-440v70h440v-70zM520 110h-440v70h440v-70z" />
    <glyph glyph-name="lessequal" unicode="&#x2264;" 
d="M515 190l-430 215v100l430 215v-87l-310 -152q-32 -15 -60 -24q30 -9 60 -24l310 -153v-90zM515 0h-430v80h430v-80z" />
    <glyph glyph-name="greaterequal" unicode="&#x2265;" 
d="M85 190v87l310 152q32 15 60 24q-30 9 -60 24l-310 153v90l430 -215v-100zM515 0h-430v80h430v-80z" />
    <glyph glyph-name="propersubset" unicode="&#x2282;" 
d="M265 120q-68 0 -120.5 27t-81 76.5t-28.5 114.5v44q0 65 28.5 114.5t81 76.5t120.5 27h305v-82h-305q-67 0 -103.5 -36t-36.5 -102v-40q0 -66 36.5 -102t103.5 -36h305v-82h-305z" />
    <glyph glyph-name="propersuperset" unicode="&#x2283;" 
d="M30 120v82h305q67 0 103.5 36t36.5 102v40q0 66 -36.5 102t-103.5 36h-305v82h305q68 0 120.5 -27t81 -76.5t28.5 -114.5v-44q0 -65 -28.5 -114.5t-81 -76.5t-120.5 -27h-305z" />
    <glyph glyph-name="notsubset" unicode="&#x2284;" 
d="M570 518h-183l-111 -316h294v-82h-305q-12 0 -18 1l-64 -181h-63l67 190q-71 20 -111.5 75t-40.5 133v44q0 65 28.5 114.5t81 76.5t120.5 27h88l64 180h63l-64 -180h154v-82zM324 518h-59q-67 0 -103.5 -36t-36.5 -102v-40q0 -52 23 -86t67 -46z" />
    <glyph glyph-name="uni2285" unicode="&#x2285;" 
d="M413 590q71 -20 111.5 -75t40.5 -133v-44q0 -65 -28.5 -114.5t-81 -76.5t-120.5 -27h-88l-64 -180h-63l64 180h-154v82h183l111 316h-294v82h305q12 0 18 -1l64 181h63zM475 380q0 52 -23 86t-67 46l-109 -310h59q67 0 103.5 36t36.5 102v40z" />
    <glyph glyph-name="reflexsubset" unicode="&#x2286;" 
d="M265 200q-68 0 -120.5 27t-81 76.5t-28.5 114.5v44q0 65 28.5 114.5t81 76.5t120.5 27h305v-82h-305q-67 0 -103.5 -36t-36.5 -102v-40q0 -66 36.5 -102t103.5 -36h305v-82h-305zM570 0h-520v82h520v-82z" />
    <glyph glyph-name="reflexsuperset" unicode="&#x2287;" 
d="M30 200v82h305q67 0 103.5 36t36.5 102v40q0 66 -36.5 102t-103.5 36h-305v82h305q68 0 120.5 -27t81 -76.5t28.5 -114.5v-44q0 -65 -28.5 -114.5t-81 -76.5t-120.5 -27h-305zM550 0h-520v82h520v-82z" />
    <glyph glyph-name="uni2374" unicode="&#x2374;" 
d="M455 505.5q55 -54.5 55 -149.5v-161q0 -95 -47.5 -150t-130.5 -55q-61 0 -100.5 31t-46.5 84h-3l2 -125v-160h-90v536q0 94 56 149t153 55t152 -54.5zM420 350q0 64 -30.5 98t-87.5 34t-87.5 -34t-30.5 -98v-150q0 -62 31 -97t87 -35q57 0 87.5 34t30.5 98v150z" />
    <glyph glyph-name="uni23FB" unicode="&#x23fb;" 
d="M261 242.5q-16 17.5 -16 42.5v380q0 25 16 42.5t39 17.5t39 -17.5t16 -42.5v-380q0 -25 -16 -42.5t-39 -17.5t-39 17.5zM139 32q-73 42 -116 114t-43 159q0 64 24.5 121t67.5 101q24 26 54 26q20 0 34 -14q13 -13 13 -33q0 -28 -24 -54q-26 -28 -40 -65.5t-14 -81.5
q0 -60 26 -108t73 -75t106 -27t106 27t73 75t26 108q0 44 -14 81.5t-40 65.5q-24 26 -24 54q0 20 13 33q14 14 34 14q30 0 54 -26q43 -43 67.5 -100.5t24.5 -121.5q0 -87 -43 -159t-116 -114t-161 -42t-161 42z" />
    <glyph glyph-name="uni23FC" unicode="&#x23fc;" 
d="M139 32q-73 42 -116 114t-43 159t43 159t116 114t161 42t161 -42t116 -114t43 -159t-43 -159t-116 -114t-161 -42t-161 42zM408.5 114.5q49.5 29.5 78 80t28.5 110.5t-28.5 110.5t-78 80t-108.5 29.5t-108.5 -29.5t-78 -80t-28.5 -110.5t28.5 -110.5t78 -80t108.5 -29.5
t108.5 29.5zM261 172.5q-16 17.5 -16 42.5v180q0 25 16 42.5t39 17.5t39 -17.5t16 -42.5v-180q0 -25 -16 -42.5t-39 -17.5t-39 17.5z" />
    <glyph glyph-name="uni23FD" unicode="&#x23fd;" 
d="M261 12.5q-16 17.5 -16 42.5v500q0 25 16 42.5t39 17.5t39 -17.5t16 -42.5v-500q0 -25 -16 -42.5t-39 -17.5t-39 17.5z" />
    <glyph glyph-name="uni23FE" unicode="&#x23fe;" 
d="M30.5 188.5q-23.5 57.5 -23.5 119.5q0 63 24.5 123t71.5 107q39 39 82 61q-33 -63 -33 -141q0 -65 23.5 -126t66.5 -104q44 -44 105 -67.5t126 -23.5q77 0 141 33q-23 -44 -61 -82q-47 -47 -106.5 -71.5t-122.5 -24.5q-62 0 -120 23.5t-104 69.5t-69.5 103.5z" />
    <glyph glyph-name="uni2500" unicode="&#x2500;" 
d="M620 310h-640v100h640v-100z" />
    <glyph glyph-name="uni2501" unicode="&#x2501;" 
d="M620 260h-640v200h640v-200z" />
    <glyph glyph-name="uni2502" unicode="&#x2502;" 
d="M350 -365h-100v1430h100v-1430z" />
    <glyph glyph-name="uni2503" unicode="&#x2503;" 
d="M400 -310h-200v1320h200v-1320z" />
    <glyph glyph-name="uni2504" unicode="&#x2504;" 
d="M163 310h-126v100h126v-100zM363 310h-126v100h126v-100zM563 310h-126v100h126v-100z" />
    <glyph glyph-name="uni2505" unicode="&#x2505;" 
d="M163 260h-126v200h126v-200zM363 260h-126v200h126v-200zM563 260h-126v200h126v-200z" />
    <glyph glyph-name="uni2506" unicode="&#x2506;" 
d="M350 590h-100v338h100v-338zM350 183h-100v334h100v-334zM350 -229h-100v337h100v-337z" />
    <glyph glyph-name="uni2507" unicode="&#x2507;" 
d="M400 602h-200v326h200v-326zM400 172h-200v357h200v-357zM400 -229h-200v326h200v-326z" />
    <glyph glyph-name="uni2508" unicode="&#x2508;" 
d="M125 310h-100v100h100v-100zM275 310h-100v100h100v-100zM425 310h-100v100h100v-100zM575 310h-100v100h100v-100z" />
    <glyph glyph-name="uni2509" unicode="&#x2509;" 
d="M125 260h-100v200h100v-200zM275 260h-100v200h100v-200zM425 260h-100v200h100v-200zM575 260h-100v200h100v-200z" />
    <glyph glyph-name="uni250A" unicode="&#x250a;" 
d="M350 710h-100v215h100v-215zM350 405h-100v215h100v-215zM350 100h-100v215h100v-215zM350 -205h-100v215h100v-215z" />
    <glyph glyph-name="uni250B" unicode="&#x250b;" 
d="M400 710h-200v215h200v-215zM400 405h-200v215h200v-215zM400 100h-200v215h200v-215zM400 -205h-200v215h200v-215z" />
    <glyph glyph-name="uni250C" unicode="&#x250c;" 
d="M350 -310h-100v720h370v-100h-270v-620z" />
    <glyph glyph-name="uni250D" unicode="&#x250d;" 
d="M350 -310h-100v770h370v-200h-270v-570z" />
    <glyph glyph-name="uni250E" unicode="&#x250e;" 
d="M400 -311h-200v721h420v-100h-220v-621z" />
    <glyph glyph-name="uni250F" unicode="&#x250f;" 
d="M400 -310h-200v770h420v-200h-220v-570z" />
    <glyph glyph-name="uni2510" unicode="&#x2510;" 
d="M350 -310h-100v620h-270v100h370v-720z" />
    <glyph glyph-name="uni2511" unicode="&#x2511;" 
d="M350 -310h-100v570h-270v200h370v-770z" />
    <glyph glyph-name="uni2512" unicode="&#x2512;" 
d="M400 -310h-200v620h-220v100h420v-720z" />
    <glyph glyph-name="uni2513" unicode="&#x2513;" 
d="M400 -310h-200v570h-220v200h420v-770z" />
    <glyph glyph-name="uni2514" unicode="&#x2514;" 
d="M620 310h-370v700h100v-600h270v-100z" />
    <glyph glyph-name="uni2515" unicode="&#x2515;" 
d="M620 260h-370v750h100v-550h270v-200z" />
    <glyph glyph-name="uni2516" unicode="&#x2516;" 
d="M620 310h-420v700h200v-600h220v-100z" />
    <glyph glyph-name="uni2517" unicode="&#x2517;" 
d="M620 260h-420v751h200v-551h220v-200z" />
    <glyph glyph-name="uni2518" unicode="&#x2518;" 
d="M350 310h-370v100h270v600h100v-700z" />
    <glyph glyph-name="uni2519" unicode="&#x2519;" 
d="M350 260h-370v200h270v550h100v-750z" />
    <glyph glyph-name="uni251A" unicode="&#x251a;" 
d="M400 310h-420v100h220v600h200v-700z" />
    <glyph glyph-name="uni251B" unicode="&#x251b;" 
d="M400 260h-420v200h220v550h200v-750z" />
    <glyph glyph-name="uni251C" unicode="&#x251c;" 
d="M350 -310h-100v1320h100v-600h270v-100h-270v-620z" />
    <glyph glyph-name="uni251D" unicode="&#x251d;" 
d="M350 -310h-100v1320h100v-550h270v-200h-270v-570z" />
    <glyph glyph-name="uni251E" unicode="&#x251e;" 
d="M350 -311h-100v621h-50v700h200v-600h220v-100h-270v-621z" />
    <glyph glyph-name="uni251F" unicode="&#x251f;" 
d="M400 -310h-200v720h50v600h100v-600h270v-100h-220v-620z" />
    <glyph glyph-name="uni2520" unicode="&#x2520;" 
d="M400 -310h-200v1320h200v-600h220v-100h-220v-620z" />
    <glyph glyph-name="uni2521" unicode="&#x2521;" 
d="M350 -310h-100v570h-50v751h200v-551h220v-200h-270v-570z" />
    <glyph glyph-name="uni2522" unicode="&#x2522;" 
d="M400 -310h-200v770h50v550h100v-550h270v-200h-220v-570z" />
    <glyph glyph-name="uni2523" unicode="&#x2523;" 
d="M400 -310h-200v1320h200v-550h220v-200h-220v-570z" />
    <glyph glyph-name="uni2524" unicode="&#x2524;" 
d="M350 -310h-100v620h-270v100h270v600h100v-1320z" />
    <glyph glyph-name="uni2525" unicode="&#x2525;" 
d="M350 -310h-100v570h-270v200h270v550h100v-1320z" />
    <glyph glyph-name="uni2526" unicode="&#x2526;" 
d="M350 -310h-100v620h-270v100h220v600h200v-700h-50v-620z" />
    <glyph glyph-name="uni2527" unicode="&#x2527;" 
d="M400 -310h-200v620h-220v100h270v600h100v-600h50v-720z" />
    <glyph glyph-name="uni2528" unicode="&#x2528;" 
d="M400 -310h-200v620h-220v100h220v600h200v-1320z" />
    <glyph glyph-name="uni2529" unicode="&#x2529;" 
d="M350 -310h-100v570h-270v200h220v550h200v-750h-50v-570z" />
    <glyph glyph-name="uni252A" unicode="&#x252a;" 
d="M400 -310h-200v570h-220v200h270v550h100v-550h50v-770z" />
    <glyph glyph-name="uni252B" unicode="&#x252b;" 
d="M400 -310h-200v570h-220v200h220v550h200v-1320z" />
    <glyph glyph-name="uni252C" unicode="&#x252c;" 
d="M350 -310h-100v620h-270v100h640v-100h-270v-620z" />
    <glyph glyph-name="uni252D" unicode="&#x252d;" 
d="M350 -310h-100v570h-270v200h370v-50h270v-100h-270v-620z" />
    <glyph glyph-name="uni252E" unicode="&#x252e;" 
d="M350 -310h-100v620h-270v100h270v50h370v-200h-270v-570z" />
    <glyph glyph-name="uni252F" unicode="&#x252f;" 
d="M350 -311h-100v571h-270v200h640v-200h-270v-571z" />
    <glyph glyph-name="uni2530" unicode="&#x2530;" 
d="M400 -310h-200v620h-220v100h640v-100h-220v-620z" />
    <glyph glyph-name="uni2531" unicode="&#x2531;" 
d="M400 -310h-200v570h-220v200h420v-50h220v-100h-220v-620z" />
    <glyph glyph-name="uni2532" unicode="&#x2532;" 
d="M400 -310h-200v620h-220v100h220v50h420v-200h-220v-570z" />
    <glyph glyph-name="uni2533" unicode="&#x2533;" 
d="M400 -310h-200v570h-220v200h640v-200h-220v-570z" />
    <glyph glyph-name="uni2534" unicode="&#x2534;" 
d="M620 310h-640v100h270v600h100v-600h270v-100z" />
    <glyph glyph-name="uni2535" unicode="&#x2535;" 
d="M350 260h-370v200h270v550h100v-600h270v-100h-270v-50z" />
    <glyph glyph-name="uni2536" unicode="&#x2536;" 
d="M620 260h-370v50h-270v100h270v600h100v-550h270v-200z" />
    <glyph glyph-name="uni2537" unicode="&#x2537;" 
d="M620 260h-640v200h270v550h100v-550h270v-200z" />
    <glyph glyph-name="uni2538" unicode="&#x2538;" 
d="M620 310h-640v100h220v600h200v-600h220v-100z" />
    <glyph glyph-name="uni2539" unicode="&#x2539;" 
d="M400 260h-420v200h220v550h200v-600h220v-100h-220v-50z" />
    <glyph glyph-name="uni253A" unicode="&#x253a;" 
d="M620 260h-420v50h-220v100h220v600h200v-550h220v-200z" />
    <glyph glyph-name="uni253B" unicode="&#x253b;" 
d="M620 260h-640v200h220v550h200v-550h220v-200z" />
    <glyph glyph-name="uni253C" unicode="&#x253c;" 
d="M350 -310h-100v620h-270v100h270v600h100v-600h270v-100h-270v-620z" />
    <glyph glyph-name="uni253D" unicode="&#x253d;" 
d="M350 -310h-100v570h-270v200h270v550h100v-600h270v-100h-270v-620z" />
    <glyph glyph-name="uni253E" unicode="&#x253e;" 
d="M350 -311h-100v621h-270v100h270v600h100v-550h270v-200h-270v-571z" />
    <glyph glyph-name="uni253F" unicode="&#x253f;" 
d="M350 -310h-100v570h-270v200h270v550h100v-550h270v-200h-270v-570z" />
    <glyph glyph-name="uni2540" unicode="&#x2540;" 
d="M350 -310h-100v620h-270v100h220v600h200v-600h220v-100h-270v-620z" />
    <glyph glyph-name="uni2541" unicode="&#x2541;" 
d="M400 -310h-200v620h-220v100h270v600h100v-600h270v-100h-220v-620z" />
    <glyph glyph-name="uni2542" unicode="&#x2542;" 
d="M400 -310h-200v620h-220v100h220v600h200v-600h220v-100h-220v-620z" />
    <glyph glyph-name="uni2543" unicode="&#x2543;" 
d="M350 -310h-100v570h-270v200h220v550h200v-600h220v-100h-220v-50h-50v-570z" />
    <glyph glyph-name="uni2544" unicode="&#x2544;" 
d="M350 -310h-100v570h-50v50h-220v100h220v600h200v-550h220v-200h-270v-570z" />
    <glyph glyph-name="uni2545" unicode="&#x2545;" 
d="M400 -310h-200v570h-220v200h270v550h100v-550h50v-50h220v-100h-220v-620z" />
    <glyph glyph-name="uni2546" unicode="&#x2546;" 
d="M400 -310h-200v620h-220v100h220v50h50v550h100v-550h270v-200h-220v-570z" />
    <glyph glyph-name="uni2547" unicode="&#x2547;" 
d="M350 -310h-100v570h-270v200h220v550h200v-550h220v-200h-270v-570z" />
    <glyph glyph-name="uni2548" unicode="&#x2548;" 
d="M400 -310h-200v570h-220v200h270v550h100v-550h270v-200h-220v-570z" />
    <glyph glyph-name="uni2549" unicode="&#x2549;" 
d="M400 -310h-200v570h-220v200h220v550h200v-600h220v-100h-220v-620z" />
    <glyph glyph-name="uni254A" unicode="&#x254a;" 
d="M400 -311h-200v621h-220v100h220v600h200v-550h220v-200h-220v-571z" />
    <glyph glyph-name="uni254B" unicode="&#x254b;" 
d="M400 -310h-200v570h-220v200h220v550h200v-550h220v-200h-220v-570z" />
    <glyph glyph-name="uni254C" unicode="&#x254c;" 
d="M230 310h-160v100h160v-100zM530 310h-160v100h160v-100z" />
    <glyph glyph-name="uni254D" unicode="&#x254d;" 
d="M225 260h-150v200h150v-200zM525 260h-150v200h150v-200z" />
    <glyph glyph-name="uni254E" unicode="&#x254e;" 
d="M350 430h-100v453h100v-453zM350 -175h-100v455h100v-455z" />
    <glyph glyph-name="uni254F" unicode="&#x254f;" 
d="M400 450h-200v413h200v-413zM400 -155h-200v415h200v-415z" />
    <glyph glyph-name="uni2550" unicode="&#x2550;" 
d="M620 410h-640v100h640v-100zM620 210h-640v100h640v-100z" />
    <glyph glyph-name="uni2551" unicode="&#x2551;" 
d="M250 -310h-100v1320h100v-1320zM450 -310h-100v1320h100v-1320z" />
    <glyph glyph-name="uni2552" unicode="&#x2552;" 
d="M350 -310h-100v820h370v-100h-270v-100h270v-100h-270v-520z" />
    <glyph glyph-name="uni2553" unicode="&#x2553;" 
d="M250 -310h-100v720h470v-100h-170v-620h-100v620h-100v-620z" />
    <glyph glyph-name="uni2554" unicode="&#x2554;" 
d="M250 -310h-100v820h470v-100h-370v-720zM450 -310h-100v620h270v-100h-170v-520z" />
    <glyph glyph-name="uni2555" unicode="&#x2555;" 
d="M350 -310h-100v520h-270v100h270v100h-270v100h370v-820z" />
    <glyph glyph-name="uni2556" unicode="&#x2556;" 
d="M250 -310h-100v620h-170v100h470v-720h-100v620h-100v-620z" />
    <glyph glyph-name="uni2557" unicode="&#x2557;" 
d="M450 -310h-100v720h-370v100h470v-820zM250 -310h-100v520h-170v100h270v-620z" />
    <glyph glyph-name="uni2558" unicode="&#x2558;" 
d="M620 210h-370v800h100v-500h270v-100h-270v-100h270v-100z" />
    <glyph glyph-name="uni2559" unicode="&#x2559;" 
d="M620 310h-470v700h100v-600h100v600h100v-600h170v-100z" />
    <glyph glyph-name="uni255A" unicode="&#x255a;" 
d="M620 210h-470v800h100v-700h370v-100zM620 410h-270v600h100v-500h170v-100z" />
    <glyph glyph-name="uni255B" unicode="&#x255b;" 
d="M350 210h-370v100h270v100h-270v100h270v500h100v-800z" />
    <glyph glyph-name="uni255C" unicode="&#x255c;" 
d="M450 310h-470v100h170v600h100v-600h100v600h100v-700z" />
    <glyph glyph-name="uni255D" unicode="&#x255d;" 
d="M450 210h-470v100h370v700h100v-800zM250 410h-270v100h170v500h100v-600z" />
    <glyph glyph-name="uni255E" unicode="&#x255e;" 
d="M350 -310h-100v1320h100v-500h270v-100h-270v-100h270v-100h-270v-520z" />
    <glyph glyph-name="uni255F" unicode="&#x255f;" 
d="M250 -310h-100v1320h100v-1320zM450 -310h-100v1320h100v-600h170v-100h-170v-620z" />
    <glyph glyph-name="uni2560" unicode="&#x2560;" 
d="M250 -310h-100v1320h100v-1320zM620 410h-270v600h100v-500h170v-100zM450 -310h-100v620h270v-100h-170v-520z" />
    <glyph glyph-name="uni2561" unicode="&#x2561;" 
d="M350 -310h-100v520h-270v100h270v100h-270v100h270v500h100v-1320z" />
    <glyph glyph-name="uni2562" unicode="&#x2562;" 
d="M250 -311h-100v621h-170v100h170v600h100v-1321zM450 -311h-100v1321h100v-1321z" />
    <glyph glyph-name="uni2563" unicode="&#x2563;" 
d="M250 410h-270v100h170v500h100v-600zM451 -310h-100v1320h100v-1320zM250 -310h-100v520h-170v100h270v-620z" />
    <glyph glyph-name="uni2564" unicode="&#x2564;" 
d="M620 410h-640v100h640v-100zM350 -310h-100v520h-270v100h640v-100h-270v-520z" />
    <glyph glyph-name="uni2565" unicode="&#x2565;" 
d="M245 -310h-100v620h-165v100h640v-100h-165v-620h-100v620h-110v-620z" />
    <glyph glyph-name="uni2566" unicode="&#x2566;" 
d="M620 410h-640v100h640v-100zM250 -310h-100v520h-170v100h270v-620zM450 -310h-100v620h270v-100h-170v-520z" />
    <glyph glyph-name="uni2567" unicode="&#x2567;" 
d="M620 410h-640v100h270v500h100v-500h270v-100zM620 210h-640v100h640v-100z" />
    <glyph glyph-name="uni2568" unicode="&#x2568;" 
d="M620 310h-640v100h170v600h100v-600h100v600h100v-600h170v-100z" />
    <glyph glyph-name="uni2569" unicode="&#x2569;" 
d="M250 410h-270v100h170v500h100v-600zM620 410h-270v600h100v-500h170v-100zM620 210h-640v100h640v-100z" />
    <glyph glyph-name="uni256A" unicode="&#x256a;" 
d="M350 -310h-100v520h-270v100h270v100h-270v100h270v500h100v-500h270v-100h-270v-100h270v-100h-270v-520z" />
    <glyph glyph-name="uni256B" unicode="&#x256b;" 
d="M250 -310h-100v620h-170v100h170v600h100v-600h100v600h100v-600h170v-100h-170v-620h-100v620h-100v-620z" />
    <glyph glyph-name="uni256C" unicode="&#x256c;" 
d="M250 410h-270v100h170v500h100v-600zM620 410h-270v600h100v-500h170v-100zM250 -310h-100v520h-170v100h270v-620zM450 -310h-100v620h270v-100h-170v-520z" />
    <glyph glyph-name="uni256D" unicode="&#x256d;" 
d="M250 70q0 102 41.5 179t117.5 119t176 42h35v-100h-35q-70 0 -123.5 -29.5t-82.5 -84t-29 -126.5v-380h-100v380z" />
    <glyph glyph-name="uni256E" unicode="&#x256e;" 
d="M250 70q0 72 -29 126.5t-82 84t-124 29.5h-35v100h35q101 0 176.5 -42t117 -119t41.5 -179v-380h-100v380z" />
    <glyph glyph-name="uni256F" unicode="&#x256f;" 
d="M-20 310v100h35q71 0 124 29.5t82 84t29 126.5v360h100v-360q0 -102 -41.5 -179t-117 -119t-176.5 -42h-35z" />
    <glyph glyph-name="uni2570" unicode="&#x2570;" 
d="M585 310q-100 0 -176 42t-117.5 119t-41.5 179v360h100v-360q0 -72 29 -126.5t82.5 -84t123.5 -29.5h35v-100h-35z" />
    <glyph glyph-name="uni2571" unicode="&#x2571;" 
d="M60 -170h-80v40l560 1000h80v-40z" />
    <glyph glyph-name="uni2572" unicode="&#x2572;" 
d="M620 -170h-80l-560 1000v40h80l560 -1000v-40z" />
    <glyph glyph-name="uni2573" unicode="&#x2573;" 
d="M60 -170h-80v40l269 480l-269 480v40h80l240 -425l240 425h80v-40l-269 -480l269 -480v-40h-80l-240 425z" />
    <glyph glyph-name="uni2574" unicode="&#x2574;" 
d="M350 310h-370v100h370v-100z" />
    <glyph glyph-name="uni2575" unicode="&#x2575;" 
d="M350 310h-100v700h100v-700z" />
    <glyph glyph-name="uni2576" unicode="&#x2576;" 
d="M620 310h-370v100h370v-100z" />
    <glyph glyph-name="uni2577" unicode="&#x2577;" 
d="M350 -310h-100v720h100v-720z" />
    <glyph glyph-name="uni2578" unicode="&#x2578;" 
d="M350 260h-370v200h370v-200z" />
    <glyph glyph-name="uni2579" unicode="&#x2579;" 
d="M400 310h-200v700h200v-700z" />
    <glyph glyph-name="uni257A" unicode="&#x257a;" 
d="M620 260h-370v200h370v-200z" />
    <glyph glyph-name="uni257B" unicode="&#x257b;" 
d="M400 -310h-200v720h200v-720z" />
    <glyph glyph-name="uni257C" unicode="&#x257c;" 
d="M620 260h-370v50h-270v100h270v50h370v-200z" />
    <glyph glyph-name="uni257D" unicode="&#x257d;" 
d="M400 -310h-200v720h50v600h100v-600h50v-720z" />
    <glyph glyph-name="uni257E" unicode="&#x257e;" 
d="M350 260h-370v200h370v-50h270v-100h-270v-50z" />
    <glyph glyph-name="uni257F" unicode="&#x257f;" 
d="M350 -310h-100v620h-50v701h200v-701h-50v-620z" />
    <glyph glyph-name="upblock" unicode="&#x2580;" 
d="M620 350h-640v660h640v-660z" />
    <glyph glyph-name="uni2581" unicode="&#x2581;" 
d="M620 -310h-640v195h640v-195z" />
    <glyph glyph-name="uni2582" unicode="&#x2582;" 
d="M620 -310h-640v350h640v-350z" />
    <glyph glyph-name="uni2583" unicode="&#x2583;" 
d="M620 -310h-640v454h640v-454z" />
    <glyph glyph-name="dnblock" unicode="&#x2584;" 
d="M620 -310h-640v660h640v-660z" />
    <glyph glyph-name="uni2585" unicode="&#x2585;" 
d="M620 -310h-640v815h640v-815z" />
    <glyph glyph-name="uni2586" unicode="&#x2586;" 
d="M620 -310h-640v970h640v-970z" />
    <glyph glyph-name="uni2587" unicode="&#x2587;" 
d="M620 -311h-640v1126h640v-1126z" />
    <glyph glyph-name="block" unicode="&#x2588;" 
d="M620 -310h-640v1320h640v-1320z" />
    <glyph glyph-name="uni2589" unicode="&#x2589;" 
d="M525 -310h-545v1320h545v-1320z" />
    <glyph glyph-name="uni258A" unicode="&#x258a;" 
d="M450 -310h-470v1320h470v-1320z" />
    <glyph glyph-name="uni258B" unicode="&#x258b;" 
d="M375 -310h-395v1320h395v-1320z" />
    <glyph glyph-name="lfblock" unicode="&#x258c;" 
d="M300 -310h-320v1320h320v-1320z" />
    <glyph glyph-name="uni258D" unicode="&#x258d;" 
d="M200 -310h-220v1320h220v-1320z" />
    <glyph glyph-name="uni258E" unicode="&#x258e;" 
d="M150 -310h-170v1320h170v-1320z" />
    <glyph glyph-name="uni258F" unicode="&#x258f;" 
d="M75 -310h-95v1320h95v-1320z" />
    <glyph glyph-name="rtblock" unicode="&#x2590;" 
d="M620 -310h-320v1320h320v-1320z" />
    <glyph glyph-name="ltshade" unicode="&#x2591;" 
d="M120 908h-60v67h60v-67zM240 908h-60v67h60v-67zM360 908h-60v67h60v-67zM480 908h-60v67h60v-67zM605 908h-65v67h65v-67zM120 784h-60v62h60v-62zM240 784h-60v62h60v-62zM360 784h-60v62h60v-62zM480 784h-60v62h60v-62zM605 784h-65v62h65v-62zM120 660h-60v62h60
v-62zM240 660h-60v62h60v-62zM360 660h-60v62h60v-62zM480 660h-60v62h60v-62zM605 660h-65v62h65v-62zM120 536h-60v62h60v-62zM240 536h-60v62h60v-62zM360 536h-60v62h60v-62zM480 536h-60v62h60v-62zM605 536h-65v62h65v-62zM120 412h-60v62h60v-62zM240 412h-60v62h60
v-62zM360 412h-60v62h60v-62zM480 412h-60v62h60v-62zM605 412h-65v62h65v-62zM120 288h-60v62h60v-62zM240 288h-60v62h60v-62zM360 288h-60v62h60v-62zM480 288h-60v62h60v-62zM605 288h-65v62h65v-62zM120 164h-60v62h60v-62zM240 164h-60v62h60v-62zM360 164h-60v62h60
v-62zM480 164h-60v62h60v-62zM605 164h-65v62h65v-62zM120 40h-60v62h60v-62zM240 40h-60v62h60v-62zM360 40h-60v62h60v-62zM480 40h-60v62h60v-62zM605 40h-65v62h65v-62zM120 -84h-60v62h60v-62zM240 -84h-60v62h60v-62zM360 -84h-60v62h60v-62zM480 -84h-60v62h60v-62z
M605 -84h-65v62h65v-62zM120 -208h-60v62h60v-62zM240 -208h-60v62h60v-62zM360 -208h-60v62h60v-62zM480 -208h-60v62h60v-62zM605 -208h-65v62h65v-62z" />
    <glyph glyph-name="shade" unicode="&#x2592;" 
d="M120 908h-60v67h60v-67zM240 908h-60v67h60v-67zM360 908h-60v67h60v-67zM480 908h-60v67h60v-67zM605 908h-65v67h65v-67zM60 846h-65v62h65v-62zM180 846h-60v62h60v-62zM300 846h-60v62h60v-62zM420 846h-60v62h60v-62zM540 846h-60v62h60v-62zM120 784h-60v62h60v-62
zM240 784h-60v62h60v-62zM360 784h-60v62h60v-62zM480 784h-60v62h60v-62zM605 784h-65v62h65v-62zM60 722h-65v62h65v-62zM180 722h-60v62h60v-62zM300 722h-60v62h60v-62zM420 722h-60v62h60v-62zM540 722h-60v62h60v-62zM120 660h-60v62h60v-62zM240 660h-60v62h60v-62z
M360 660h-60v62h60v-62zM480 660h-60v62h60v-62zM605 660h-65v62h65v-62zM60 598h-65v62h65v-62zM180 598h-60v62h60v-62zM300 598h-60v62h60v-62zM420 598h-60v62h60v-62zM540 598h-60v62h60v-62zM120 536h-60v62h60v-62zM240 536h-60v62h60v-62zM360 536h-60v62h60v-62z
M480 536h-60v62h60v-62zM605 536h-65v62h65v-62zM60 474h-65v62h65v-62zM180 474h-60v62h60v-62zM300 474h-60v62h60v-62zM420 474h-60v62h60v-62zM540 474h-60v62h60v-62zM120 412h-60v62h60v-62zM240 412h-60v62h60v-62zM360 412h-60v62h60v-62zM480 412h-60v62h60v-62z
M605 412h-65v62h65v-62zM60 350h-65v62h65v-62zM180 350h-60v62h60v-62zM300 350h-60v62h60v-62zM420 350h-60v62h60v-62zM540 350h-60v62h60v-62zM120 288h-60v62h60v-62zM240 288h-60v62h60v-62zM360 288h-60v62h60v-62zM480 288h-60v62h60v-62zM605 288h-65v62h65v-62z
M60 226h-65v62h65v-62zM180 226h-60v62h60v-62zM300 226h-60v62h60v-62zM420 226h-60v62h60v-62zM540 226h-60v62h60v-62zM120 164h-60v62h60v-62zM240 164h-60v62h60v-62zM360 164h-60v62h60v-62zM480 164h-60v62h60v-62zM605 164h-65v62h65v-62zM60 102h-65v62h65v-62z
M180 102h-60v62h60v-62zM300 102h-60v62h60v-62zM420 102h-60v62h60v-62zM540 102h-60v62h60v-62zM120 40h-60v62h60v-62zM240 40h-60v62h60v-62zM360 40h-60v62h60v-62zM480 40h-60v62h60v-62zM605 40h-65v62h65v-62zM60 -22h-65v62h65v-62zM180 -22h-60v62h60v-62z
M300 -22h-60v62h60v-62zM420 -22h-60v62h60v-62zM540 -22h-60v62h60v-62zM120 -84h-60v62h60v-62zM240 -84h-60v62h60v-62zM360 -84h-60v62h60v-62zM480 -84h-60v62h60v-62zM605 -84h-65v62h65v-62zM60 -146h-65v62h65v-62zM180 -146h-60v62h60v-62zM300 -146h-60v62h60v-62
zM420 -146h-60v62h60v-62zM540 -146h-60v62h60v-62zM120 -208h-60v62h60v-62zM240 -208h-60v62h60v-62zM360 -208h-60v62h60v-62zM480 -208h-60v62h60v-62zM605 -208h-65v62h65v-62zM60 -275h-65v67h65v-67zM180 -275h-60v67h60v-67zM300 -275h-60v67h60v-67zM420 -275h-60
v67h60v-67zM540 -275h-60v67h60v-67z" />
    <glyph glyph-name="dkshade" unicode="&#x2593;" 
d="M605 975v-67h-65v-62h65v-62h-65v-62h65v-62h-65v-62h65v-62h-65v-62h65v-62h-65v-62h65v-62h-65v-62h65v-62h-65v-62h65v-62h-65v-62h65v-62h-65v-62h65v-62h-65v-67h-60v67h-60v-67h-60v67h-60v-67h-60v67h-60v-67h-60v67h-60v-67h-65v1250h610zM60 846h60v62h-60v-62z
M180 846h60v62h-60v-62zM300 846h60v62h-60v-62zM420 846h60v62h-60v-62zM60 722h60v62h-60v-62zM180 722h60v62h-60v-62zM300 722h60v62h-60v-62zM420 722h60v62h-60v-62zM60 598h60v62h-60v-62zM180 598h60v62h-60v-62zM300 598h60v62h-60v-62zM420 598h60v62h-60v-62z
M60 474h60v62h-60v-62zM180 474h60v62h-60v-62zM300 474h60v62h-60v-62zM420 474h60v62h-60v-62zM60 350h60v62h-60v-62zM180 350h60v62h-60v-62zM300 350h60v62h-60v-62zM420 350h60v62h-60v-62zM60 226h60v62h-60v-62zM180 226h60v62h-60v-62zM300 226h60v62h-60v-62z
M420 226h60v62h-60v-62zM60 102h60v62h-60v-62zM180 102h60v62h-60v-62zM300 102h60v62h-60v-62zM420 102h60v62h-60v-62zM60 -22h60v62h-60v-62zM180 -22h60v62h-60v-62zM300 -22h60v62h-60v-62zM420 -22h60v62h-60v-62zM60 -146h60v62h-60v-62zM180 -146h60v62h-60v-62z
M300 -146h60v62h-60v-62zM420 -146h60v62h-60v-62z" />
    <glyph glyph-name="uni2594" unicode="&#x2594;" 
d="M620 815h-640v195h640v-195z" />
    <glyph glyph-name="uni2595" unicode="&#x2595;" 
d="M620 -310h-95v1320h95v-1320z" />
    <glyph glyph-name="uni2596" unicode="&#x2596;" 
d="M300 -310h-320v660h320v-660z" />
    <glyph glyph-name="uni2597" unicode="&#x2597;" 
d="M620 -310h-320v660h320v-660z" />
    <glyph glyph-name="uni2598" unicode="&#x2598;" 
d="M300 350h-320v660h320v-660z" />
    <glyph glyph-name="uni2599" unicode="&#x2599;" 
d="M620 -310h-640v1320h320v-660h320v-660z" />
    <glyph glyph-name="uni259A" unicode="&#x259a;" 
d="M300 350h-320v660h320v-660zM620 -310h-320v660h320v-660z" />
    <glyph glyph-name="uni259B" unicode="&#x259b;" 
d="M300 -310h-320v1320h640v-660h-320v-660z" />
    <glyph glyph-name="uni259C" unicode="&#x259c;" 
d="M620 -310h-320v660h-320v660h640v-1320z" />
    <glyph glyph-name="uni259D" unicode="&#x259d;" 
d="M620 350h-320v660h320v-660z" />
    <glyph glyph-name="uni259E" unicode="&#x259e;" 
d="M620 350h-320v660h320v-660zM300 -310h-310v660h310v-660z" />
    <glyph glyph-name="uni259F" unicode="&#x259f;" 
d="M620 -310h-640v660h320v660h320v-1320z" />
    <glyph glyph-name="filledbox" unicode="&#x25a0;" 
d="M600 60h-600v600h600v-600z" />
    <glyph glyph-name="triagup" unicode="&#x25b2;" 
d="M610 60h-620l310 610z" />
    <glyph glyph-name="uni25B6" unicode="&#x25b6;" 
d="M610 360l-610 -310v620z" />
    <glyph glyph-name="triagdn" unicode="&#x25bc;" 
d="M610 660l-310 -610l-310 610h620z" />
    <glyph glyph-name="uni25C0" unicode="&#x25c0;" 
d="M600 670v-621l-610 311z" />
    <glyph glyph-name="uni25C6" unicode="&#x25c6;" 
d="M610 360l-310 -310l-310 310l310 311z" />
    <glyph glyph-name="lozenge" unicode="&#x25ca;" 
d="M366 0h-126l-180 324v71l180 325h126l174 -325v-71zM303 60l49 97l98 187v31l-98 188q-27 50 -49 97h-4l-50 -97l-99 -188v-31l99 -187l50 -97h4z" />
    <glyph glyph-name="uni25CF" unicode="&#x25cf;" 
d="M142 90.5q-71 40.5 -111.5 111.5t-40.5 158t40.5 158t111.5 111.5t158 40.5t158 -40.5t111.5 -111.5t40.5 -158t-40.5 -158t-111.5 -111.5t-158 -40.5t-158 40.5z" />
    <glyph glyph-name="uni27E8" unicode="&#x27e8;" 
d="M485 -115h-108l-252 405v122l252 403h102l-280 -467z" />
    <glyph glyph-name="uni27E9" unicode="&#x27e9;" 
d="M223 -115h-108l286 463l-280 467h102l252 -403v-122z" />
    <glyph glyph-name="uni2B58" unicode="&#x2b58;" 
d="M139 32q-73 42 -116 114t-43 159t43 159t116 114t161 42t161 -42t116 -114t43 -159t-43 -159t-116 -114t-161 -42t-161 42zM408.5 114.5q49.5 29.5 78 80t28.5 110.5t-28.5 110.5t-78 80t-108.5 29.5t-108.5 -29.5t-78 -80t-28.5 -110.5t28.5 -110.5t78 -80t108.5 -29.5
t108.5 29.5z" />
    <glyph glyph-name="uniE000" unicode="&#xe000;" 
d="M-13 800l-67 -46v65l131 96v-536h-64v421zM151 735q0 81 31.5 130.5t83.5 49.5t83.5 -49.5t31.5 -130.5v-180q0 -81 -31.5 -130.5t-83.5 -49.5t-83.5 49.5t-31.5 130.5v180zM440 850v65h191q-36 -132 -62 -277.5t-28 -258.5h-64q0 108 24.5 235t60.5 236h-122zM211 555
q0 -56 15 -90.5t40 -34.5t40 34.5t15 90.5v180q0 56 -15 90.5t-40 34.5t-40 -34.5t-15 -90.5v-180zM148 378h-57v55h57v-55zM441 378h-57v55h57v-55zM20.5 150.5q20.5 42.5 64.5 66.5q-24 5 -32 37q-2 10 -2 14q0 18 10 29.5t28 11.5q14 0 24.5 -10.5t14.5 -28.5q1 -4 1 -13
q0 -13 -6 -24q66 22 177 22t177 -22q-6 11 -6 25q0 23 11.5 37t28.5 14t27 -11.5t10 -29.5q0 -8 -1 -13q-4 -16 -12.5 -26t-20.5 -12q45 -24 65.5 -66t20.5 -105q0 -101 -56.5 -170t-155.5 -92v-44h-38v38q-24 -3 -50 -3t-50 3v-38h-38v44q-99 23 -155.5 91.5t-56.5 169.5
q0 63 20.5 105.5zM93.5 -25.5q58.5 -39.5 156.5 -39.5q57 0 87 8q-6 -15 -23 -34.5t-45 -37.5q136 0 216 55.5t80 158.5q0 59 -34.5 94.5t-90.5 35.5q-52 0 -83.5 -28.5t-31.5 -75.5q0 -25 13 -48.5t33 -33.5l64 -34h-146q-19 0 -31.5 11t-12.5 28q0 18 11 29t29 11
q0 36 -16.5 68.5t-45 52.5t-63.5 20q-56 0 -90.5 -35.5t-34.5 -94.5q0 -71 58.5 -110.5zM129 136q14 14 36 14q23 0 36.5 -13.5t13.5 -36.5q0 -22 -13.5 -36t-36.5 -14q-22 0 -36 14t-14 36t14 36zM399 136.5q14 13.5 36 13.5q23 0 36.5 -13.5t13.5 -36.5q0 -22 -13.5 -36
t-36.5 -14q-22 0 -36 14t-14 36q0 23 14 36.5z" />
    <glyph glyph-name="uniE0A0" unicode="&#xe0a0;" 
d="M210 453l-120 -89v606h120v-517zM90 111q0 45 22.5 89t58.5 71l145 108q25 18 39.5 40.5t14.5 41.5v170h-110l170 170l170 -170h-110v-180q0 -37 -20 -74.5t-52 -61.5l-155 -115q-25 -19 -39 -45t-14 -55v-370h-120v381z" />
    <glyph glyph-name="uniE0A1" unicode="&#xe0a1;" 
d="M406 400h-301v490h80v-415h221v-75zM165 -190v490h93l129 -293q21 -47 38 -122h10q0 4 -7.5 52t-7.5 88v275h75v-490h-92l-128 293q-21 47 -41 122h-10q16 -86 16 -140v-275h-75z" />
    </font>
</defs>
</svg>
